<svg width="118" height="118" viewBox="0 0 118 118" fill="none" xmlns="http://www.w3.org/2000/svg">
<g clip-path="url(#clip0_186_32)">
<path d="M63.3223 0.178223C66.4313 0.643831 69.5575 1.02322 72.6436 1.60954C74.6972 2.00042 75.8789 3.6904 75.9247 5.81725C75.9247 6.73697 75.9247 7.66245 75.9247 8.58216V11.2379L81.0472 13.359C82.1256 12.2093 83.204 11.0079 84.3455 9.86402C86.3991 7.7889 88.1315 7.60495 90.5579 9.13974C97.9625 13.819 104.224 20.1052 108.879 27.5341C110.336 29.8334 110.141 31.6269 108.243 33.5698C107.141 34.7194 106.028 35.8174 104.927 36.9498C104.864 37.0072 104.847 37.0992 104.749 37.2947L106.728 42.1289C108.449 42.1289 110.141 42.1289 111.839 42.1289C114.375 42.1289 115.855 43.3131 116.428 45.7618C118.511 54.4522 118.511 63.5134 116.428 72.2038C115.855 74.641 114.363 75.8251 111.839 75.8424H106.734L104.686 80.7974L107.967 84.1141C110.262 86.4134 110.417 88.0459 108.673 90.7648C104.075 97.9634 97.9723 104.076 90.7873 108.682C88.1315 110.407 86.4507 110.223 84.2538 108.004C83.1467 106.889 82.0969 105.705 81.0472 104.601L75.9247 106.716C75.9247 108.441 75.9247 110.165 75.9247 111.89C75.9247 114.396 74.7775 115.965 72.2593 116.431C69.2994 117.006 66.3051 117.35 63.3223 117.793C63.3223 111.309 63.3223 104.823 63.3223 98.3353C63.3223 92.0697 63.3337 85.8041 63.3567 79.5385C63.7421 79.4954 64.1251 79.4321 64.5039 79.3488C68.7186 78.2072 72.4794 75.7907 75.2736 72.429C78.0678 69.0673 79.7594 64.9239 80.1179 60.5636C80.4099 56.486 79.5136 52.4112 77.5381 48.8345C75.5625 45.2578 72.5927 42.3331 68.9897 40.4159C67.2688 39.5135 65.2382 39.0881 63.3567 38.4443L63.3223 0.178223Z" fill="#2C2F53"/>
<path d="M54.8498 111.913C52.3843 113.949 49.5911 115.551 46.5896 116.649C40.9114 118.606 34.7171 118.43 29.1587 116.154C23.6003 113.877 19.0561 109.655 16.3712 104.273C16.1188 103.773 15.9409 103.239 15.723 102.721C19.4986 103.674 23.4307 103.831 27.27 103.181C33.0397 102.297 38.4319 99.7624 42.798 95.8807C43.6004 95.0924 44.1293 94.0668 44.3066 92.9549C44.6049 91.1384 43.6297 89.7301 42.0121 88.8966C41.299 88.497 40.4782 88.3331 39.6666 88.428C38.8551 88.523 38.0941 88.872 37.492 89.4255C34.8283 91.7118 31.6947 93.382 28.314 94.3172C25.505 95.1535 22.5425 95.3364 19.6523 94.8518C17.6504 94.4667 15.6771 93.9148 13.6981 93.4435C11.8625 92.2938 9.91218 91.2419 8.21426 89.8968C0.986607 84.1486 -1.91018 73.8305 1.23327 65.3863C1.31358 65.1851 1.41682 64.9897 1.50286 64.8115C1.7114 64.9593 1.90368 65.1288 2.07648 65.3173C6.22951 70.6862 11.7248 73.9684 18.2527 75.5147C18.9868 75.7068 19.7593 75.6952 20.4874 75.481C21.2155 75.2668 21.8716 74.8581 22.3856 74.2988C22.8996 73.7394 23.252 73.0504 23.4051 72.3057C23.5582 71.561 23.5062 70.7885 23.2546 70.0711C22.681 68.3869 21.3387 67.5936 19.6695 67.1568C16.0212 66.2025 12.7057 64.5988 10.1244 61.7534C9.01734 60.5348 8.02495 59.2184 6.98095 57.9481C6.40733 56.35 5.68457 54.7865 5.26009 53.1483C3.48185 46.1814 4.11286 39.5709 8.58138 33.6732C10.5322 31.121 13.0321 29.0422 15.8951 27.5916C16.0262 28.0365 16.1164 28.4925 16.1647 28.9539C16.2188 32.6255 16.838 36.2667 18.0003 39.7491C20.0592 46.1378 24.0731 51.7148 29.4727 55.689C29.9411 56.045 30.2553 56.5677 30.3504 57.1491C30.4651 58.7011 30.3504 60.2704 30.402 61.8281C30.4416 65.5285 31.5406 69.1397 33.5684 72.2325C35.1715 74.5215 36.9108 76.7118 38.7769 78.7912C39.3735 79.4111 40.1457 79.8323 40.9891 79.9978C41.8325 80.1633 42.7062 80.0652 43.4921 79.7167C44.2327 79.3856 44.8604 78.8445 45.2977 78.1601C45.735 77.4757 45.9628 76.678 45.9529 75.8653C46.0045 74.3593 45.1843 73.3074 44.2894 72.2784C43.3946 71.2495 42.5686 70.4332 41.7769 69.4043C40.606 67.983 39.7619 66.3207 39.3046 64.5356C38.7234 61.9401 38.5416 59.2708 38.7654 56.6202C38.9482 53.5484 40.0991 50.6139 42.0523 48.2393C43.1422 46.9287 44.3468 45.6871 45.3277 44.319C45.9119 43.4296 46.1267 42.3469 45.9263 41.3012C45.726 40.2555 45.1264 39.3295 44.255 38.7202C43.437 38.1175 42.4279 37.834 41.4164 37.9229C40.405 38.0118 39.4605 38.4669 38.7597 39.203C37.492 40.5826 36.2816 42.0254 35.1286 43.5085C34.2281 44.6581 33.4537 45.917 32.5818 47.1931C32.3351 47.0034 32.1515 46.8942 32.0081 46.7505C28.9976 43.7999 26.8205 40.103 25.6983 36.0357C24.551 32.2477 24.551 28.3618 24.6485 24.4588C25.0673 22.7343 25.3082 20.9179 25.9335 19.2854C29.1228 10.8239 35.1803 5.81722 44.146 4.41465C47.8172 3.83982 51.3564 4.46063 54.8498 5.56429C54.8498 5.96092 54.89 6.3518 54.89 6.74843V110.792C54.89 111.125 54.8613 111.522 54.8498 111.913Z" fill="#01A8C9"/>
<path d="M24.6486 24.4531C24.5568 28.3561 24.5683 32.2419 25.6983 36.03C26.8206 40.0973 28.9976 43.7942 32.0081 46.7448C32.1573 46.8885 32.3408 46.9977 32.5818 47.1874C33.4537 45.9113 34.2281 44.6581 35.1287 43.5028C36.2759 42.0197 37.492 40.5769 38.7597 39.1973C39.4605 38.4611 40.405 38.006 41.4165 37.9172C42.4279 37.8283 43.437 38.1117 44.255 38.7145C45.1264 39.3238 45.726 40.2498 45.9263 41.2955C46.1267 42.3412 45.9119 43.4239 45.3277 44.3132C44.3181 45.6813 43.1422 46.923 42.0523 48.2336C40.1117 50.6087 38.9711 53.5384 38.7941 56.603C38.5702 59.2536 38.7521 61.9229 39.3333 64.5183C39.7906 66.3035 40.6347 67.9658 41.8056 69.3871C42.5686 70.3988 43.4864 71.284 44.3181 72.2612C45.1499 73.2384 46.039 74.3421 45.9816 75.8481C45.9915 76.6607 45.7637 77.4585 45.3264 78.1429C44.8891 78.8273 44.2614 79.3684 43.5208 79.6995C42.7349 80.048 41.8611 80.1461 41.0178 79.9806C40.1744 79.8151 39.4022 79.3939 38.8056 78.774C36.9396 76.6945 35.2002 74.5043 33.5971 72.2152C31.5693 69.1225 30.4703 65.5113 30.4307 61.8109C30.3963 60.2531 30.4938 58.6839 30.3791 57.1318C30.284 56.5505 29.9698 56.0278 29.5014 55.6718C24.1018 51.6976 20.0878 46.1206 18.029 39.7319C16.8667 36.2495 16.2475 32.6083 16.1934 28.9367C16.1451 28.4753 16.0549 28.0193 15.9238 27.5744C18.1035 26.0798 20.5873 25.367 23.1055 24.7405C23.6218 24.6083 24.138 24.545 24.6486 24.4531Z" fill="#12C9E3"/>
<path d="M63.3222 0.178194V38.4328C63.3222 46.2925 63.3108 54.1485 63.2878 62.0006C63.2878 67.8408 63.2878 73.681 63.3222 79.5212C63.3222 85.7868 63.3108 92.0524 63.2878 98.318C63.2878 104.802 63.2878 111.288 63.2878 117.776L58.5439 117.954V0L63.3222 0.178194Z" fill="#027BA3"/>
<path d="M58.5784 -2.1128e-05V117.96H54.8499V111.913C54.8499 111.522 54.89 111.125 54.89 110.728V6.68519C54.89 6.28856 54.8613 5.89768 54.8499 5.50105V-0.0230103L58.5784 -2.1128e-05Z" fill="#B8F0F2"/>
<path d="M13.7211 93.4435C15.7001 93.9149 17.6733 94.4667 19.6753 94.8518C22.5655 95.3364 25.528 95.1535 28.337 94.3172C31.7178 93.382 34.8513 91.7118 37.515 89.4255C38.1171 88.872 38.8781 88.523 39.6896 88.4281C40.5012 88.3331 41.3219 88.4971 42.0351 88.8966C43.6412 89.7301 44.6164 91.1385 44.3296 92.9549C44.1522 94.0669 43.6235 95.0925 42.821 95.8808C38.4465 99.7602 33.046 102.289 27.27 103.164C23.4308 103.814 19.4987 103.657 15.723 102.704C14.2201 99.8068 13.7383 96.674 13.7211 93.4435Z" fill="#12C9E3"/>
<path d="M7.02112 57.925C8.06512 59.1954 9.05747 60.5118 10.1646 61.7304C12.7459 64.6045 16.0614 66.1795 19.7097 67.1337C21.3789 67.5706 22.704 68.3639 23.2948 70.0481C23.5463 70.7655 23.5983 71.5379 23.4452 72.2827C23.2922 73.0274 22.9397 73.7164 22.4258 74.2758C21.9118 74.8351 21.2556 75.2438 20.5276 75.458C19.7995 75.6722 19.027 75.6838 18.2928 75.4917C11.765 73.9454 6.24674 70.6632 2.11665 65.2943C1.94385 65.1058 1.75157 64.9363 1.54303 64.7885C2.59837 61.9774 4.51639 59.5744 7.02112 57.925Z" fill="#12C9E3"/>
<path d="M63.3395 79.527C63.3395 73.6868 63.3051 67.8466 63.3051 62.0063C63.3051 54.1466 63.3165 46.2906 63.3395 38.4385C65.221 39.0823 67.2229 39.5077 68.9725 40.4102C72.5755 42.3274 75.5453 45.252 77.5209 48.8288C79.4964 52.4055 80.3927 56.4802 80.1008 60.5578C79.7423 64.9181 78.0506 69.0616 75.2564 72.4233C72.4622 75.785 68.7014 78.2014 64.4867 79.3431C64.1078 79.4244 63.7248 79.4858 63.3395 79.527Z" fill="#4C4F6E"/>
</g>
<defs>
<clipPath id="clip0_186_32">
<rect width="118" height="118" fill="white"/>
</clipPath>
</defs>
</svg>
