<svg width="118" height="116" viewBox="0 0 118 116" fill="none" xmlns="http://www.w3.org/2000/svg">
<g clip-path="url(#clip0_186_11)">
<path d="M15.3938 76.7627C13.3692 74.5746 11.6353 72.1343 10.235 69.5024C8.29958 65.9828 6.70498 62.2862 5.47298 58.463C3.92453 53.762 2.75239 48.9451 1.96762 44.0581C1.47158 40.9324 1.03339 37.8066 0.760571 34.6478C0.54562 32.0761 0.272815 29.5127 0.314152 26.9244C0.314152 26.3208 -0.0330772 25.7667 0.107468 25.1631C0.186969 25.1726 0.267602 25.1658 0.344377 25.1431C0.421153 25.1203 0.492431 25.0821 0.553887 25.0308C2.61047 23.3189 4.953 21.9837 7.47366 21.0864C13.2446 18.9538 19.2249 17.4376 25.3146 16.5631C29.3987 15.8851 33.5076 15.4551 37.6247 15.0499C42.0312 14.6199 46.446 14.3387 50.8525 14.223C56.8712 14.0741 62.898 13.9914 68.9249 14.3305C71.9095 14.4958 74.894 14.6116 77.8785 14.8266C81.7366 15.1078 85.5727 15.5102 89.3867 16.0339C94.6758 16.672 99.9061 17.7282 105.028 19.1927C109.501 20.5323 113.941 21.9712 117.587 25.0804C117.661 25.1465 117.81 25.13 117.926 25.1465C117.653 26.6102 117.826 28.0904 117.694 29.554C117.463 32.0348 117.314 34.4576 117.049 36.897C116.719 39.9401 116.297 42.9583 115.743 45.9931C114.927 50.5227 113.753 54.9801 112.229 59.323C110.537 64.4306 108.144 69.2785 105.119 73.7279C104.433 74.7037 103.607 75.572 102.912 76.5395C102.845 76.6157 102.763 76.6761 102.67 76.7162C102.577 76.7563 102.476 76.775 102.375 76.771C102.286 74.8387 102.36 72.9023 102.598 70.9826C102.598 67.3689 102.73 63.7636 101.928 60.1748C100.918 55.4706 99.1179 50.9718 96.604 46.8697C94.6329 43.7822 92.2955 40.9445 89.643 38.4186C86.6395 35.5147 83.2276 33.0659 79.5154 31.15C76.6988 29.6784 73.7333 28.5114 70.6693 27.6686C67.7396 26.8487 64.7289 26.3523 61.691 26.1885C58.7118 26.0149 55.7226 26.1479 52.7705 26.5854C50.2255 26.9564 47.7149 27.5344 45.2638 28.3136C41.0614 29.6759 37.0832 31.6515 33.458 34.1765C30.1731 36.5034 27.2195 39.2657 24.678 42.3878C22.1755 45.4888 20.1319 48.9338 18.6098 52.6167C16.1476 58.4092 15.0474 64.6896 15.3938 70.9743C15.6181 72.6013 15.6901 74.2458 15.6088 75.8862C15.6253 76.2087 15.7162 76.5477 15.3938 76.7627Z" fill="#D3F0F2"/>
<path d="M102.606 70.9743C102.369 72.894 102.294 74.8304 102.383 76.7627L102.135 76.986C102.002 79.5137 101.549 82.0144 100.787 84.4283C99.5203 88.9957 97.4941 93.3174 94.7935 97.2124C92.2372 100.847 89.1621 104.087 85.6664 106.829C81.4404 110.159 76.6164 112.648 71.4548 114.164C69.1799 114.833 66.8548 115.317 64.502 115.611C62.7799 115.864 61.0421 115.994 59.3018 116C55.1405 116.003 50.9994 115.421 46.9999 114.272C39.5814 112.17 32.861 108.12 27.5369 102.542C22.2129 96.9634 18.4795 90.0608 16.7249 82.5512C16.3006 80.948 16.0239 79.3094 15.8981 77.6558C15.8981 77.2175 15.6005 77.0439 15.3938 76.7793C15.7328 76.5725 15.6418 76.2335 15.6336 75.9524C15.7108 74.2892 15.6306 72.6224 15.3938 70.9743C15.7493 70.9743 15.8651 70.7345 15.8485 70.4037C15.8627 69.6909 15.9654 68.9826 16.1544 68.2951C16.8045 65.2371 17.7088 62.2388 18.8578 59.3313C20.9263 54.2469 23.8699 49.5646 27.5551 45.497C29.7411 43.1276 32.2126 41.0388 34.913 39.2786C37.458 37.5767 40.1666 36.1334 42.9985 34.9703C46.862 33.3189 50.965 32.2971 55.1516 31.9438C57.0681 31.6636 59.012 31.6219 60.9387 31.8198C62.5922 32.0844 64.2457 32.0844 65.8991 32.349C69.8532 32.9842 73.6954 34.1845 77.3081 35.913C80.8521 37.6202 84.1546 39.789 87.1297 42.363C89.2692 44.2049 91.209 46.2671 92.9169 48.5152C94.9782 51.1866 96.7258 54.0861 98.1253 57.1565C100.096 61.349 101.447 65.8059 102.135 70.3872C102.201 70.7428 102.251 70.9743 102.606 70.9743ZM92.1066 72.5537C92.1404 68.183 91.3108 63.8487 89.6655 59.7995C88.0201 55.7504 85.5915 52.0661 82.5188 48.9582C79.4462 45.8503 75.7901 43.38 71.7605 41.6891C67.7309 39.9982 63.407 39.12 59.0372 39.1049C40.849 39.1049 25.9678 54.0721 25.8686 72.4132C25.7905 76.8063 26.587 81.1711 28.2116 85.2534C29.8363 89.3357 32.2566 93.054 35.3318 96.1917C38.407 99.3294 42.0755 101.824 46.1238 103.53C50.1721 105.236 54.5192 106.119 58.9121 106.128C63.305 106.138 67.6558 105.273 71.7113 103.584C75.7667 101.895 79.4459 99.4165 82.5343 96.2919C85.6228 93.1673 88.0589 89.4593 89.7009 85.3839C91.3429 81.3086 92.1579 76.9472 92.0984 72.5537H92.1066Z" fill="#D3F0F2"/>
<path d="M0.190112 19.7881C-0.520881 16.2076 0.818431 13.3878 3.49705 11.1303C6.29112 8.9383 9.45122 7.25852 12.8309 6.16878C16.7088 4.7769 20.6928 3.70115 24.7442 2.95207C28.0511 2.31534 31.4407 1.74477 34.8304 1.414C37.2362 1.18246 39.6337 0.884774 42.0395 0.694583C44.933 0.454776 47.8266 0.396892 50.7285 0.198432C55.5153 -0.132335 60.2938 0.0413171 65.0724 0.0495862C68.3793 0.0495862 71.6863 0.281123 74.9932 0.520929C78.1513 0.752466 81.3095 1.03362 84.4428 1.48842C87.5761 1.94323 90.6929 2.43111 93.8014 3.0513C98.2392 3.88739 102.594 5.11605 106.814 6.72281C110.121 8.0128 113.205 9.60048 115.677 12.197C116.647 13.1763 117.354 14.3848 117.733 15.7103C118.112 17.0359 118.149 18.4357 117.843 19.7798C117.559 19.6687 117.283 19.5388 117.016 19.3912C113.761 17.5321 110.283 16.0928 106.665 15.1078C100.704 13.432 94.6238 12.213 88.4773 11.461C83.9798 10.8739 79.4658 10.4605 74.9436 10.1297C71.2894 9.8651 67.6187 9.71625 63.9562 9.66664C60.2938 9.61702 56.4578 9.62529 52.7044 9.76587C47.9259 9.93952 43.1556 10.1545 38.3853 10.5349C35.7232 10.7416 33.0694 11.0062 30.4321 11.3618C26.6457 11.8497 22.8758 12.4203 19.1389 13.2224C14.374 14.1521 9.70911 15.5366 5.2084 17.357C3.41439 18.0516 1.85185 19.0191 0.190112 19.7881Z" fill="#B8F0F2"/>
<path d="M0.19012 19.7881C1.84359 19.0191 3.4144 18.0599 5.10921 17.3487C9.60991 15.5283 14.2747 14.1438 19.0397 13.2141C22.7765 12.3872 26.5465 11.8414 30.3329 11.3536C32.9702 11.0145 35.624 10.7499 38.2861 10.5266C43.0564 10.1463 47.8267 9.93125 52.6052 9.7576C56.3586 9.61702 60.1037 9.60875 63.8571 9.65837C67.6104 9.70799 71.1902 9.85683 74.8444 10.1214C79.3666 10.4522 83.8806 10.8657 88.3781 11.4528C94.5246 12.2047 100.605 13.4238 106.566 15.0995C110.183 16.0845 113.661 17.5238 116.917 19.3829C117.184 19.5306 117.46 19.6604 117.744 19.7716C117.919 21.5603 117.975 23.3587 117.909 25.1548C117.793 25.1548 117.645 25.1548 117.57 25.0887C113.924 21.9794 109.485 20.5406 105.012 19.201C99.8896 17.7365 94.6593 16.6803 89.3701 16.0422C85.5451 15.5185 81.709 15.116 77.862 14.8349C74.8774 14.6199 71.8929 14.5041 68.9084 14.3387C62.8815 13.9997 56.8546 14.0824 50.836 14.2312C46.4212 14.3387 42.0064 14.6199 37.6082 15.0581C33.4745 15.4633 29.3822 15.8851 25.2981 16.5714C19.1943 17.443 13.2 18.9592 7.41578 21.0946C4.90153 21.9912 2.56479 23.3236 0.512559 25.0308C0.451103 25.0821 0.379775 25.1203 0.302999 25.1431C0.226223 25.1658 0.145641 25.1726 0.0661399 25.1631C-0.0124724 23.3707 0.0289267 21.575 0.19012 19.7881Z" fill="#027BA3"/>
<path d="M102.151 76.9529L102.399 76.7297C102.383 76.7864 102.351 76.8375 102.308 76.877C102.264 76.9165 102.21 76.9428 102.151 76.9529Z" fill="#C6C6C6"/>
<path d="M102.606 70.9743C102.251 70.9743 102.185 70.7262 102.143 70.412C101.455 65.8307 100.104 61.3739 98.1336 57.1813C96.7341 54.1109 94.9865 51.2114 92.9251 48.5401C91.2172 46.2919 89.2775 44.2298 87.138 42.3878C84.1629 39.8139 80.8604 37.645 77.3164 35.9378C73.7037 34.2093 69.8614 33.009 65.9074 32.3738C64.2539 32.1092 62.6004 32.1092 60.947 31.8446C59.0202 31.6468 57.0763 31.6884 55.1598 31.9686C50.9732 32.322 46.8703 33.3437 43.0068 34.9951C40.1749 36.1582 37.4663 37.6015 34.9213 39.3034C32.2209 41.0637 29.7493 43.1524 27.5634 45.5218C23.879 49.5869 20.9354 54.2664 18.8661 59.3479C17.7171 62.2553 16.8128 65.2537 16.1627 68.3116C15.9737 68.9991 15.871 69.7074 15.8568 70.4203C15.8568 70.7511 15.7576 70.9661 15.4021 70.9909C15.0479 64.7019 16.1425 58.4156 18.6016 52.6168C20.1236 48.9338 22.1673 45.4889 24.6698 42.3878C27.2113 39.2657 30.1649 36.5034 33.4498 34.1765C37.075 31.6515 41.0532 29.6759 45.2555 28.3136C47.7066 27.5344 50.2172 26.9564 52.7623 26.5854C55.7171 26.1473 58.7091 26.0143 61.691 26.1885C64.7348 26.3538 67.7511 26.853 70.6859 27.6769C73.7499 28.5197 76.7154 29.6867 79.532 31.1582C83.2441 33.0742 86.6561 35.523 89.6595 38.4268C92.3121 40.9528 94.6495 43.7905 96.6206 46.8779C99.1359 50.9933 100.933 55.5064 101.937 60.2244C102.738 63.7719 102.631 67.3772 102.606 70.9743Z" fill="#01A8C9"/>
<path d="M92.1066 72.5703C92.1661 76.9638 91.3511 81.3251 89.7092 85.4005C88.0672 89.4759 85.631 93.1838 82.5426 96.3084C79.4541 99.433 75.775 101.912 71.7195 103.601C67.664 105.289 63.3132 106.154 58.9204 106.145C54.5275 106.136 50.1803 105.252 46.132 103.546C42.0838 101.84 38.4153 99.3459 35.3401 96.2083C32.2649 93.0706 29.8445 89.3523 28.2199 85.27C26.5952 81.1877 25.7987 76.8229 25.8768 72.4297C25.9926 54.0887 40.8573 39.0967 59.0455 39.1215C63.4146 39.1377 67.7375 40.0167 71.7662 41.7081C75.7949 43.3995 79.4499 45.8699 82.5217 48.9777C85.5934 52.0855 88.0214 55.7694 89.6663 59.818C91.3111 63.8666 92.1404 68.2003 92.1066 72.5703ZM59.0786 54.9156C55.5926 54.9107 52.1835 55.9408 49.2833 57.8754C46.3831 59.81 44.1223 62.562 42.7871 65.7829C41.4519 69.0038 41.1026 72.5486 41.7833 75.9682C42.464 79.3879 44.1441 82.5285 46.6108 84.9922C49.0775 87.456 52.2198 89.1321 55.6397 89.8081C59.0595 90.4841 62.603 90.1297 65.8213 88.7897C69.0395 87.4497 71.7878 85.1844 73.7179 82.2809C75.648 79.3773 76.673 75.9661 76.6632 72.4793C76.6775 70.1668 76.2323 67.8744 75.3533 65.7354C74.4743 63.5963 73.1792 61.6533 71.5431 60.0192C69.907 58.3851 67.9627 57.0924 65.8229 56.2163C63.6831 55.3402 61.3906 54.898 59.0786 54.9156ZM79.8792 72.4959C79.8727 73.3726 80.1267 74.2315 80.6091 74.9635C81.0914 75.6956 81.7804 76.2678 82.5885 76.6074C83.3966 76.9471 84.2873 77.039 85.1477 76.8714C86.0081 76.7037 86.7993 76.2842 87.4208 75.666C88.0424 75.0478 88.4663 74.2588 88.6387 73.3992C88.8112 72.5396 88.7243 71.6481 88.3893 70.838C88.0542 70.0278 87.4861 69.3355 86.7569 68.8489C86.0278 68.3623 85.1705 68.1033 84.294 68.105C83.1294 68.1114 82.0139 68.5753 81.1881 69.3967C80.3623 70.218 79.8922 71.3311 79.8792 72.4959ZM29.068 72.4959C29.0582 73.3712 29.3083 74.2296 29.7865 74.9627C30.2646 75.6958 30.9495 76.2705 31.7544 76.6142C32.5593 76.9578 33.448 77.0549 34.308 76.8931C35.1681 76.7314 35.9608 76.3181 36.586 75.7056C37.2111 75.093 37.6406 74.3088 37.8199 73.452C37.9993 72.5953 37.9205 71.7046 37.5936 70.8926C37.2667 70.0807 36.7063 69.384 35.9834 68.8907C35.2605 68.3974 34.4075 68.1297 33.5324 68.1215C32.3614 68.1082 31.2327 68.5591 30.393 69.3757C29.5534 70.1923 29.0711 71.3081 29.0515 72.4793L29.068 72.4959ZM76.8947 86.0739C76.315 86.0739 75.741 86.1885 75.2058 86.4111C74.6706 86.6337 74.1846 86.96 73.7759 87.3711C73.3671 87.7823 73.0437 88.2702 72.8241 88.8068C72.6045 89.3434 72.4932 89.9181 72.4965 90.4979C72.5284 91.6681 73.0119 92.7806 73.8457 93.6022C74.6794 94.4238 75.7987 94.8908 76.9691 94.9053C78.1401 94.8836 79.2553 94.4008 80.0725 93.5617C80.8898 92.7225 81.3432 91.5949 81.3343 90.4235C81.339 89.8411 81.2262 89.2637 81.0027 88.7259C80.7793 88.1881 80.4498 87.7008 80.0338 87.2933C79.6179 86.8857 79.124 86.5662 78.5818 86.3538C78.0396 86.1415 77.4602 86.0406 76.8782 86.0573L76.8947 86.0739ZM36.7071 90.4979C36.718 91.6692 37.1902 92.7889 38.0214 93.6141C38.8525 94.4392 39.9756 94.9032 41.1467 94.9053C42.3165 94.8732 43.4282 94.3879 44.2472 93.5518C45.0662 92.7156 45.5285 91.594 45.5366 90.4235C45.5335 89.8383 45.4136 89.2597 45.1838 88.7216C44.9539 88.1835 44.619 87.6968 44.1984 87.2901C43.7779 86.8833 43.2803 86.5647 42.7349 86.353C42.1896 86.1413 41.6074 86.0408 41.0226 86.0573C40.4457 86.0561 39.8743 86.1703 39.3422 86.3934C38.81 86.6164 38.3279 86.9437 37.9242 87.356C37.5205 87.7682 37.2034 88.2571 36.9915 88.7939C36.7796 89.3307 36.6773 89.9044 36.6905 90.4813L36.7071 90.4979ZM36.7071 54.3533C36.6994 54.9329 36.8072 55.5083 37.0241 56.0458C37.2411 56.5833 37.5629 57.0722 37.9708 57.484C38.3786 57.8958 38.8644 58.2223 39.3997 58.4443C39.9351 58.6664 40.5092 58.7796 41.0888 58.7773C41.6852 58.8031 42.2806 58.7079 42.8392 58.4974C43.3978 58.287 43.908 57.9656 44.3392 57.5526C44.7703 57.1396 45.1134 56.6436 45.3477 56.0945C45.5821 55.5454 45.703 54.9545 45.703 54.3574C45.703 53.7604 45.5821 53.1695 45.3477 52.6204C45.1134 52.0713 44.7703 51.5753 44.3392 51.1623C43.908 50.7493 43.3978 50.4279 42.8392 50.2175C42.2806 50.007 41.6852 49.9118 41.0888 49.9376C39.9223 49.9376 38.8036 50.4011 37.9787 51.2261C37.1539 52.0511 36.6905 53.17 36.6905 54.3368L36.7071 54.3533ZM81.3508 54.3533C81.353 53.1836 80.8911 52.0608 80.0665 51.2314C79.2419 50.402 78.122 49.9337 76.9526 49.9293C76.3562 49.9035 75.7607 49.9987 75.2021 50.2092C74.6435 50.4197 74.1333 50.7411 73.7022 51.154C73.271 51.567 72.9279 52.063 72.6936 52.6121C72.4592 53.1612 72.3383 53.7521 72.3383 54.3492C72.3383 54.9462 72.4592 55.5371 72.6936 56.0863C72.9279 56.6354 73.271 57.1314 73.7022 57.5443C74.1333 57.9573 74.6435 58.2787 75.2021 58.4892C75.7607 58.6997 76.3562 58.7949 76.9526 58.7691C77.5304 58.768 78.1023 58.6524 78.6352 58.429C79.1681 58.2056 79.6515 57.8788 80.0574 57.4674C80.4633 57.056 80.7836 56.5683 80.9999 56.0324C81.2163 55.4965 81.3243 54.923 81.3177 54.345L81.3508 54.3533ZM63.3858 46.9937C63.3858 45.8314 62.9242 44.7166 62.1025 43.8947C61.2807 43.0728 60.1662 42.6111 59.0041 42.6111C57.842 42.6111 56.7275 43.0728 55.9058 43.8947C55.0841 44.7166 54.6224 45.8314 54.6224 46.9937C54.6224 48.1561 55.0841 49.2708 55.9058 50.0928C56.7275 50.9147 57.842 51.3764 59.0041 51.3764C60.1662 51.3764 61.2807 50.9147 62.1025 50.0928C62.9242 49.2708 63.3858 48.1561 63.3858 46.9937ZM58.9876 102.199C59.5674 102.215 60.1444 102.112 60.6835 101.899C61.2226 101.685 61.7127 101.363 62.124 100.954C62.5352 100.545 62.8591 100.057 63.076 99.5189C63.293 98.9809 63.3983 98.4044 63.3858 97.8244C63.3858 96.662 62.9242 95.5473 62.1025 94.7254C61.2807 93.9035 60.1662 93.4417 59.0041 93.4417C57.842 93.4417 56.7275 93.9035 55.9058 94.7254C55.0841 95.5473 54.6224 96.662 54.6224 97.8244C54.6112 98.4008 54.7164 98.9736 54.9318 99.5084C55.1472 100.043 55.4683 100.529 55.8759 100.937C56.2835 101.344 56.7692 101.666 57.3039 101.881C57.8386 102.096 58.4112 102.202 58.9876 102.19V102.199Z" fill="#1F2247"/>
<path d="M59.0786 54.9156C62.5539 54.9417 65.9438 55.9958 68.8213 57.9452C71.6988 59.8946 73.9352 62.652 75.249 65.8702C76.5628 69.0885 76.8951 72.6236 76.2041 76.0303C75.5131 79.4371 73.8298 82.5632 71.366 85.0149C68.9022 87.4666 65.7681 89.1343 62.3586 89.8079C58.9491 90.4815 55.4165 90.131 52.2058 88.8004C48.995 87.4698 46.2498 85.2187 44.3156 82.3306C42.3815 79.4424 41.3451 76.0464 41.3368 72.5703C41.3065 70.2357 41.7454 67.9189 42.6275 65.7573C43.5095 63.5957 44.8167 61.6333 46.4714 59.9866C48.1262 58.34 50.0949 57.0426 52.2605 56.1715C54.4262 55.3004 56.7447 54.8733 59.0786 54.9156ZM59.029 82.7579C64.5102 83.0308 69.3631 78.0197 69.3135 72.5455C69.3058 69.8106 68.2123 67.1909 66.2735 65.2625C64.3347 63.3341 61.7094 62.2551 58.9752 62.2627C56.241 62.2704 53.6218 63.3642 51.6938 65.3034C49.7659 67.2427 48.6871 69.8685 48.6948 72.6033C48.6865 78.0362 53.4237 83.006 59.029 82.7579Z" fill="#2C2F53"/>
<path d="M79.8792 72.4958C79.8792 71.3225 80.3452 70.1973 81.1747 69.3676C82.0042 68.5379 83.1292 68.0718 84.3022 68.0718C85.4753 68.0718 86.6003 68.5379 87.4298 69.3676C88.2593 70.1973 88.7253 71.3225 88.7253 72.4958C88.7253 73.6692 88.2593 74.7944 87.4298 75.6241C86.6003 76.4538 85.4753 76.9199 84.3022 76.9199C83.1292 76.9199 82.0042 76.4538 81.1747 75.6241C80.3452 74.7944 79.8792 73.6692 79.8792 72.4958Z" fill="#E1E1E0"/>
<path d="M29.0515 72.4793C29.0614 71.6048 29.3301 70.7527 29.8239 70.0309C30.3177 69.3091 31.0143 68.7499 31.8257 68.4239C32.6371 68.0979 33.5269 68.0198 34.3827 68.1994C35.2385 68.3791 36.0219 68.8084 36.6338 69.4332C37.2457 70.0579 37.6588 70.8501 37.8207 71.7096C37.9827 72.569 37.8864 73.4573 37.5439 74.262C37.2014 75.0667 36.6281 75.7518 35.8964 76.2308C35.1648 76.7098 34.3076 76.9611 33.4332 76.9529C32.2635 76.927 31.1503 76.4445 30.3315 75.6086C29.5128 74.7727 29.0534 73.6496 29.0515 72.4793Z" fill="#E1E1E0"/>
<path d="M76.8782 86.0573C77.4575 86.0429 78.0337 86.1449 78.5729 86.3573C79.112 86.5696 79.6031 86.888 80.0171 87.2936C80.431 87.6991 80.7594 88.1836 80.9828 88.7184C81.2063 89.2532 81.3201 89.8273 81.3178 90.4069C81.3267 91.5783 80.8733 92.706 80.056 93.5451C79.2387 94.3842 78.1236 94.867 76.9526 94.8888C75.7823 94.8743 74.663 94.4073 73.8292 93.5857C72.9954 92.7641 72.5119 91.6516 72.4799 90.4813C72.4767 89.9015 72.588 89.3268 72.8076 88.7902C73.0271 88.2536 73.3506 87.7657 73.7594 87.3546C74.1681 86.9434 74.654 86.6172 75.1893 86.3945C75.7245 86.1719 76.2985 86.0573 76.8782 86.0573Z" fill="#E1E1E0"/>
<path d="M36.6905 90.4813C36.6773 89.9044 36.7796 89.3306 36.9915 88.7939C37.2033 88.2571 37.5205 87.7682 37.9242 87.3559C38.3279 86.9436 38.81 86.6164 39.3421 86.3933C39.8743 86.1703 40.4456 86.056 41.0226 86.0573C41.6026 86.0463 42.1789 86.1505 42.7184 86.3636C43.2579 86.5768 43.7498 86.8948 44.1657 87.2993C44.5816 87.7037 44.9132 88.1866 45.1414 88.72C45.3697 89.2534 45.4899 89.8267 45.4952 90.4069C45.4871 91.5774 45.0248 92.699 44.2058 93.5352C43.3868 94.3713 42.2751 94.8567 41.1053 94.8888C39.9385 94.8802 38.8218 94.4133 37.996 93.5888C37.1702 92.7644 36.7013 91.6483 36.6905 90.4813Z" fill="#E1E1E0"/>
<path d="M36.6905 54.3367C36.6883 53.7569 36.8008 53.1824 37.0213 52.6462C37.2419 52.1101 37.5663 51.6228 37.9758 51.2124C38.3853 50.802 38.8719 50.4767 39.4075 50.2551C39.9432 50.0334 40.5174 49.9199 41.097 49.921C41.6934 49.8952 42.2888 49.9904 42.8474 50.2009C43.4061 50.4114 43.9163 50.7328 44.3474 51.1457C44.7785 51.5587 45.1216 52.0547 45.356 52.6038C45.5904 53.1529 45.7113 53.7438 45.7113 54.3409C45.7113 54.9379 45.5904 55.5288 45.356 56.078C45.1216 56.6271 44.7785 57.1231 44.3474 57.536C43.9163 57.949 43.4061 58.2704 42.8474 58.4809C42.2888 58.6914 41.6934 58.7866 41.097 58.7608C40.5154 58.7663 39.9385 58.6556 39.4003 58.435C38.8621 58.2144 38.3734 57.8885 37.9629 57.4764C37.5524 57.0642 37.2283 56.5742 37.0098 56.035C36.7913 55.4959 36.6828 54.9185 36.6905 54.3367Z" fill="#E1E1E0"/>
<path d="M81.3177 54.345C81.3232 54.925 81.2133 55.5003 80.9944 56.0375C80.7756 56.5746 80.4521 57.0629 80.0428 57.4738C79.6335 57.8847 79.1466 58.2101 78.6104 58.4311C78.0742 58.652 77.4994 58.7641 76.9195 58.7608C76.3231 58.7866 75.7277 58.6914 75.1691 58.4809C74.6105 58.2704 74.1002 57.949 73.6691 57.536C73.238 57.1231 72.8949 56.6271 72.6605 56.078C72.4261 55.5288 72.3053 54.9379 72.3053 54.3409C72.3053 53.7438 72.4261 53.1529 72.6605 52.6038C72.8949 52.0547 73.238 51.5587 73.6691 51.1457C74.1002 50.7328 74.6105 50.4114 75.1691 50.2009C75.7277 49.9904 76.3231 49.8952 76.9195 49.921C78.0889 49.9254 79.2089 50.3937 80.0335 51.2231C80.8581 52.0525 81.3199 53.1753 81.3177 54.345Z" fill="#E1E1E0"/>
<path d="M63.3858 46.9937C63.3858 48.1561 62.9242 49.2708 62.1025 50.0928C61.2808 50.9147 60.1662 51.3764 59.0041 51.3764C57.842 51.3764 56.7275 50.9147 55.9058 50.0928C55.0841 49.2708 54.6225 48.1561 54.6225 46.9937C54.6225 45.8314 55.0841 44.7166 55.9058 43.8947C56.7275 43.0728 57.842 42.6111 59.0041 42.6111C60.1662 42.6111 61.2808 43.0728 62.1025 43.8947C62.9242 44.7166 63.3858 45.8314 63.3858 46.9937Z" fill="#E2E2E1"/>
<path d="M58.9876 102.19C58.4084 102.202 57.833 102.096 57.296 101.878C56.7591 101.661 56.2719 101.337 55.8638 100.925C55.4557 100.514 55.1353 100.024 54.9219 99.4856C54.7086 98.9469 54.6067 98.3705 54.6225 97.7913C54.6225 96.6289 55.0841 95.5142 55.9058 94.6923C56.7275 93.8704 57.8421 93.4086 59.0042 93.4086C60.1663 93.4086 61.2808 93.8704 62.1025 94.6923C62.9242 95.5142 63.3858 96.6289 63.3858 97.7913C63.4018 98.3733 63.2989 98.9525 63.0835 99.4935C62.8682 100.034 62.5448 100.526 62.1331 100.938C61.7215 101.349 61.2303 101.673 60.6895 101.888C60.1486 102.104 59.5695 102.206 58.9876 102.19Z" fill="#E1E1E1"/>
<path d="M59.029 82.7579C53.4072 83.006 48.6865 78.0362 48.6948 72.6033C48.6871 69.8685 49.7659 67.2427 51.6938 65.3034C53.6218 63.3642 56.241 62.2704 58.9752 62.2627C61.7094 62.2551 64.3347 63.3341 66.2735 65.2625C68.2123 67.1909 69.3058 69.8106 69.3135 72.5455C69.3631 78.0197 64.5102 83.0308 59.029 82.7579ZM56.8794 67.1126L55.6724 67.8734C54.8329 68.333 54.1444 69.0256 53.6896 69.8678C53.2349 70.71 53.0334 71.6658 53.1095 72.6199C53.1065 73.7476 53.44 74.8505 54.0674 75.7875C54.6949 76.7244 55.5876 77.4527 56.6314 77.8791C57.5818 78.3629 58.6554 78.5507 59.7135 78.418C60.7717 78.2853 61.7658 77.8384 62.5674 77.1348C63.5036 76.4748 64.2123 75.5407 64.5957 74.4611C64.9792 73.3815 65.0187 72.2095 64.7086 71.1066C63.6752 67.2118 59.5415 65.7482 56.8794 67.1126Z" fill="#12C9E3"/>
<path d="M56.557 67.1291C59.5002 65.5745 63.6752 67.2118 64.7086 71.1066C65.0187 72.2095 64.9792 73.3815 64.5957 74.4611C64.2123 75.5407 63.5036 76.4748 62.5674 77.1348C61.7658 77.8384 60.7717 78.2853 59.7135 78.418C58.6554 78.5507 57.5818 78.3629 56.6314 77.8791C55.6363 77.4418 54.7813 76.7382 54.1605 75.8459C53.5397 74.9536 53.1773 73.9071 53.1132 72.8219C53.0491 71.7367 53.2857 70.6549 53.7971 69.6956C54.3085 68.7364 55.0747 67.937 56.0113 67.3855C55.7701 67.9561 55.5576 68.5384 55.3747 69.1303C55.3341 69.4173 55.354 69.7096 55.4331 69.9884C55.5123 70.2672 55.6489 70.5264 55.8343 70.7492C56.0196 70.972 56.2496 71.1535 56.5093 71.282C56.7691 71.4105 57.0529 71.4831 57.3424 71.4953C57.6294 71.526 57.9197 71.4986 58.1959 71.4146C58.4721 71.3307 58.7285 71.192 58.95 71.0068C59.1714 70.8216 59.3533 70.5936 59.4848 70.3366C59.6162 70.0796 59.6945 69.7987 59.7151 69.5107C59.7411 69.2236 59.7099 68.9342 59.6231 68.6593C59.5363 68.3844 59.3957 68.1295 59.2096 67.9094C59.0234 67.6894 58.7953 67.5085 58.5386 67.3774C58.282 67.2463 58.0018 67.1675 57.7144 67.1457C57.4416 67.1209 56.8298 67.1374 56.557 67.1291ZM60.2112 76.002C60.2221 75.5524 60.0541 75.1168 59.744 74.7912C59.4339 74.4655 59.0072 74.2764 58.5577 74.2654C58.1082 74.2545 57.6728 74.4226 57.3472 74.7327C57.0216 75.0429 56.8325 75.4697 56.8215 75.9193C56.8063 76.1503 56.8398 76.3819 56.9197 76.5992C56.9997 76.8165 57.1244 77.0145 57.2857 77.1805C57.447 77.3466 57.6414 77.4769 57.8562 77.563C58.0711 77.6491 58.3016 77.6892 58.5329 77.6806C58.976 77.6742 59.3992 77.4953 59.7125 77.1819C60.0259 76.8684 60.2048 76.4452 60.2112 76.002Z" fill="#1F2247"/>
<path d="M56.7306 67.0713C56.9819 67.0083 57.2429 66.9942 57.4995 67.03C57.788 67.0518 58.0692 67.1308 58.3269 67.2623C58.5846 67.3938 58.8135 67.5753 59.0005 67.7961C59.1874 68.017 59.3285 68.2728 59.4158 68.5487C59.503 68.8245 59.5345 69.115 59.5085 69.4032C59.4858 69.6908 59.4057 69.971 59.2729 70.2271C59.1401 70.4833 58.9573 70.7102 58.7354 70.8944C58.5134 71.0787 58.2567 71.2165 57.9805 71.2999C57.7044 71.3832 57.4143 71.4103 57.1275 71.3795C56.839 71.3674 56.5563 71.295 56.2976 71.1669C56.0388 71.0388 55.8098 70.8579 55.6252 70.6359C55.4406 70.4138 55.3045 70.1556 55.2258 69.8778C55.1471 69.5999 55.1274 69.3087 55.1681 69.0228C55.1665 68.6021 55.2902 68.1904 55.5236 67.8403C55.6627 67.6375 55.8413 67.4648 56.0487 67.3327C56.2561 67.2005 56.4881 67.1116 56.7306 67.0713Z" fill="#EBEBE9"/>
<path d="M60.2112 76.002C60.1987 76.4367 60.0205 76.8501 59.713 77.1576C59.4056 77.4651 58.9923 77.6433 58.5577 77.6558C58.328 77.6675 58.0985 77.6312 57.8836 77.5491C57.6688 77.467 57.4734 77.341 57.31 77.1792C57.1467 77.0173 57.0188 76.8231 56.9347 76.609C56.8506 76.3949 56.812 76.1657 56.8215 75.9358C56.8325 75.4862 57.0216 75.0594 57.3472 74.7493C57.6728 74.4391 58.1082 74.271 58.5577 74.282C59.0072 74.293 59.4339 74.4821 59.744 74.8077C60.0541 75.1334 60.2221 75.5689 60.2112 76.0185V76.002Z" fill="#EAEAE8"/>
</g>
<defs>
<clipPath id="clip0_186_11">
<rect width="118" height="116" fill="white"/>
</clipPath>
</defs>
</svg>
