<svg width="149" height="172" viewBox="0 0 149 172" fill="none" xmlns="http://www.w3.org/2000/svg">
<g clip-path="url(#clip0_42_2)">
<path d="M130.396 1.55244C141.61 5.32062 149.034 16.0244 148.908 27.2568C148.884 29.5686 149.058 31.9334 148.653 34.1827C147.747 39.2198 144.864 42.9399 140.279 45.3046C139.797 45.5546 139.315 45.8333 138.833 46.0977L136.345 46.5303C136.678 46.2803 136.991 46.0064 137.343 45.7901C138.754 44.9288 139.861 43.6501 140.509 42.1321C141.157 40.6142 141.314 38.9325 140.959 37.3213C140.168 34.1203 136.408 31.3662 133.318 31.3854C112.347 31.5152 91.3756 31.4623 70.4046 31.4479C67.271 31.4479 64.9666 32.8466 63.6554 35.567C62.3923 38.1624 62.3971 40.8876 64.0603 43.3725C64.8193 44.3649 65.6473 45.3028 66.5383 46.1794C65.9473 46.1024 65.3658 45.9655 64.8027 45.7709C63.5397 45.1941 62.3248 44.5164 61.0906 43.882C60.6085 43.4013 60.1747 42.9207 59.6926 42.44C57.4971 40.375 55.9838 37.6928 55.3538 34.7499C55.185 33.9857 55.0259 33.2215 54.8717 32.4573L54.8476 31.7988C54.8476 29.6167 54.9681 27.4202 54.8186 25.2477C54.5246 20.3294 52.7897 15.6051 49.829 11.6602L46.7629 7.99775C45.3889 6.9019 44.068 5.73396 42.641 4.71982C39.6665 2.62425 36.2822 1.47554 32.7726 0.634424L32.8738 0.0720825H59.9336L59.9818 0.692102C58.424 1.26146 57.0929 2.3182 56.1874 3.70434C55.282 5.09048 54.8508 6.73157 54.9584 8.38226C55.5273 13.0636 58.6705 15.7023 63.424 15.7071H114.044C117.9 15.7071 121.757 15.736 125.614 15.7071C130.435 15.6639 134.508 10.9681 133.019 6.09444C132.493 4.45547 131.283 3.05202 130.396 1.55244Z" fill="#12C9E3"/>
<path d="M86.386 132.636C86.8681 132.189 87.3984 131.761 87.8708 131.29C101.713 117.493 115.551 103.691 129.384 89.8835C131.833 87.4371 134.643 85.8991 138.163 86.0385C142.559 86.2163 145.876 88.283 147.804 92.2387C149.733 96.1943 149.304 100.039 146.768 103.635C146.333 104.222 145.849 104.772 145.322 105.278C125.778 124.773 106.229 144.264 86.6752 163.752C86.4631 163.964 86.1931 164.146 85.981 164.339C85.8867 164.027 85.8364 163.703 85.8316 163.377C85.9955 162.128 86.386 160.888 86.3908 159.643C86.4245 150.631 86.3956 141.634 86.386 132.636Z" fill="#1F2247"/>
<path d="M136.355 46.5303L138.842 46.0977C134.648 55.1961 127.629 60.6177 117.693 62.2374C116.55 62.3528 115.408 62.5643 114.265 62.5691C100.445 62.5883 86.6367 62.5883 72.8392 62.5691H70.7373C70.3902 66.318 68.4281 68.601 65.4343 70.3025H78.0988C78.552 72.8787 77.0912 75.6567 74.7917 76.9785C74.2252 77.3667 73.6945 77.8041 73.2056 78.2858H58.5066C56.9784 78.2858 55.4261 78.3916 53.9316 78.1753C50.0363 77.6081 47.6644 74.9646 46.9316 70.4851H40.0425C37.3573 70.4851 35.0095 69.7065 33.2161 67.6013C31.8904 66.0489 31.4275 64.1888 31.2492 62.2182C33.9055 62.2182 36.5522 62.2711 39.2133 62.1942C42.3855 62.098 45.2684 60.858 48.0308 59.4882C51.9646 57.5368 55.1272 54.5713 57.7063 51.0482C59.2876 48.8902 60.6567 46.5831 61.081 43.8676C62.3151 44.502 63.53 45.1797 64.7931 45.7565C65.3562 45.9511 65.9377 46.088 66.5286 46.165V46.1121L67.2855 46.4822C68.6949 46.7581 70.1172 46.9634 71.5472 47.0974C73.7986 47.2176 76.0548 47.1599 78.2965 47.1791C78.4437 47.5754 78.555 47.9839 78.6291 48.3999C78.9521 52.1201 83.0354 54.8741 86.7475 54.8741C99.4748 54.8741 112.202 54.8741 124.929 54.8741C126.645 54.891 128.327 54.3882 129.75 53.4322C131.977 51.9326 132.985 49.7361 133.4 47.1839L136.355 46.5303Z" fill="#2C2F53"/>
<path d="M130.396 1.55243C131.283 3.05201 132.493 4.43624 132.99 6.0704C134.479 10.9633 130.42 15.6591 125.585 15.6831C121.728 15.7216 117.871 15.6831 114.015 15.6831H63.395C58.6416 15.6831 55.4984 13.0396 54.9295 8.35822C54.8219 6.70753 55.253 5.06644 56.1585 3.6803C57.0639 2.29416 58.3951 1.23742 59.9529 0.668064L61.7752 -0.0240479H117.216C120.475 0.0768855 123.748 0.0768834 126.997 0.326814C128.169 0.446972 129.273 1.13909 130.396 1.55243Z" fill="#90EBF6"/>
<path d="M86.386 132.636C86.386 141.633 86.4245 150.631 86.386 159.628C86.386 160.873 85.9907 162.113 85.8267 163.363C85.8316 163.689 85.8819 164.012 85.9762 164.324C85.3109 165.286 84.6842 166.247 83.9755 167.15C81.083 170.88 77.1925 172.5 72.5403 171.846C67.6664 171.159 64.4846 168.318 63.1347 163.56C62.8906 162.68 62.7658 161.772 62.7635 160.859C62.7635 158.61 62.8406 156.355 62.8937 154.101C63.3196 154.439 63.7283 154.799 64.1182 155.178C65.2655 156.384 66.5768 156.62 68.1099 155.99C69.6429 155.36 70.6071 154.015 70.6071 151.962C70.6071 141.792 70.6071 131.623 70.6071 121.456C70.6168 121.274 70.6168 121.091 70.6071 120.909C70.3275 118.159 67.1891 116.064 64.5328 117.967C64.0073 118.342 63.424 118.645 62.8695 118.976C62.8471 115.811 62.8213 112.64 62.7924 109.465C67.864 109.465 72.9163 109.465 78.0024 109.436C79.0871 109.436 80.1718 109.243 81.2565 109.138L86.3908 109.445L86.386 132.636Z" fill="#2C2F53"/>
<path d="M61.0906 43.882C60.6567 46.5976 59.2876 48.9046 57.716 51.0627C55.1368 54.5857 51.9743 57.5512 48.0404 59.5026C45.278 60.8724 42.3951 62.1125 39.223 62.2086C36.5714 62.2855 33.9199 62.2326 31.2588 62.2326C26.3415 61.7231 22.0991 59.6564 18.2423 56.6621C14.5925 53.797 11.7422 50.0451 9.96482 45.7661L9.57915 45.4152V45.4873C9.49462 44.8977 9.3755 44.3135 9.2224 43.7378C7.60247 39.0132 7.38651 33.9225 8.6005 29.0784C11.1411 19.1485 17.2781 12.4581 27.026 9.15611C31.0419 7.79591 35.2216 7.58924 39.4061 8.02181C41.5129 8.64663 43.6341 9.21859 45.7119 9.94435C47.1244 10.425 48.4695 11.0931 49.8482 11.6794C52.8117 15.6349 54.5435 20.3717 54.8283 25.3006C54.9777 27.4731 54.8524 29.6696 54.8572 31.8517C54.7011 31.6097 54.5749 31.3499 54.4811 31.0779C53.6105 26.8931 51.3228 23.1342 48.0018 20.4318C43.3207 16.63 38.0708 15.015 32.0301 16.0724C26.6259 17.0337 22.504 19.8502 19.3319 24.1952C16.7623 27.7182 15.7933 31.6739 15.8753 36.0092C15.9095 39.6238 17.0424 43.1432 19.1246 46.1025C23.9455 52.9083 30.6948 55.893 38.8903 54.4608C46.1554 53.1967 51.0487 48.7316 53.7628 41.8585C54.9632 38.8209 54.809 35.6727 54.8668 32.5246C55.0307 33.2888 55.1898 34.053 55.3489 34.8172C55.979 37.7601 57.4922 40.4423 59.6877 42.5074C60.1746 42.9111 60.623 43.4061 61.0906 43.882Z" fill="#4B4F6D"/>
<path d="M86.3956 109.469L81.2613 109.162C81.7434 108.825 82.2255 108.475 82.751 108.162C83.6206 107.605 84.369 106.879 84.9516 106.027C85.5342 105.176 85.9392 104.216 86.1424 103.206C86.3457 102.195 86.3431 101.154 86.1348 100.144C85.9266 99.1347 85.5169 98.1772 84.9301 97.3286C83.1752 94.8004 80.6925 93.7671 77.7276 93.7527C70.4962 93.7238 63.2986 93.6998 56.0865 93.7815C54.6065 93.7815 53.1313 94.315 51.6465 94.5649C51.3384 94.5632 51.0325 94.5129 50.7401 94.4159C53.1184 89.6096 55.4919 84.8032 57.8606 79.9969C58.1209 79.4682 58.2897 78.8962 58.5018 78.3435H73.2008L74.647 78.3723L82.3605 93.7527C85.9955 93.7527 89.5244 93.6806 93.0533 93.7863C94.4176 93.8248 95.7723 94.2669 97.1366 94.4928C97.4926 94.5096 97.8493 94.4789 98.1972 94.4015C98.6793 95.0023 99.1614 95.6223 99.6965 96.1991C101.967 98.6792 102.589 101.553 101.321 104.625C100.029 107.778 97.4934 109.431 94.0512 109.484C91.5106 109.493 88.9507 109.469 86.3956 109.469Z" fill="#4C4F6E"/>
<path d="M39.3869 8.02177C35.1927 7.57478 31.0226 7.79587 26.9971 9.15607C17.2492 12.458 11.0881 19.1485 8.57159 29.0784C7.35759 33.9225 7.57356 39.0131 9.19349 43.7378C9.34659 44.3135 9.46571 44.8976 9.55023 45.4873C4.69075 43.6512 1.53787 40.0224 0.646003 35.1344C-1.43663 23.7433 1.15702 12.0351 12.6983 4.44104C16.8491 1.71584 21.4193 0.115327 26.515 0.317193C27.3599 0.299755 28.2024 0.222659 29.0364 0.0864868L32.7147 0.63441C36.2244 1.47552 39.6086 2.62424 42.5831 4.71981C44.0294 5.73395 45.3311 6.90189 46.705 7.99774L39.3869 8.02177Z" fill="#027BA3"/>
<path d="M50.7401 94.3919C51.0325 94.4889 51.3384 94.5392 51.6465 94.5409C53.1313 94.2909 54.6065 93.7767 56.0865 93.7574C63.3179 93.6757 70.5155 93.6998 77.7276 93.7286C80.6925 93.7286 83.1753 94.7764 84.9301 97.3045C85.5169 98.1531 85.9266 99.1107 86.1348 100.12C86.3431 101.13 86.3457 102.171 86.1424 103.181C85.9392 104.192 85.5342 105.152 84.9516 106.003C84.369 106.855 83.6206 107.581 82.751 108.138C82.24 108.45 81.7579 108.801 81.2613 109.138C80.1766 109.243 79.0919 109.426 78.0072 109.436C72.9356 109.474 67.8833 109.46 62.7972 109.465C60.1747 109.465 57.5473 109.465 54.9247 109.465C51.497 109.465 49.0866 107.816 47.7415 104.793C46.3965 101.77 46.9316 98.8666 49.101 96.3192L50.7401 94.3919Z" fill="#7C7F94"/>
<path d="M74.6519 78.3291L73.2056 78.3002C73.6945 77.8186 74.2252 77.3811 74.7917 76.9929C77.0912 75.6712 78.552 72.8931 78.0988 70.3169H65.4343C68.4281 68.6154 70.3902 66.3324 70.7373 62.5835H72.8392C86.6591 62.5835 100.468 62.5835 114.265 62.5835C115.408 62.5835 116.55 62.3672 117.693 62.2518C117.532 62.9364 117.412 63.6297 117.331 64.3282C117.148 67.1303 113.899 70.0958 110.616 70.3073C108.422 70.437 106.219 70.365 104.021 70.3794H102.15C102.046 70.6105 101.963 70.8501 101.9 71.0955C101.287 75.4212 98.3611 78.0695 94.0223 78.2426C92.8026 78.2906 91.5781 78.2906 90.3584 78.3146L74.6519 78.3291Z" fill="#1E2147"/>
<path d="M62.8744 118.976C63.4288 118.645 64.0121 118.342 64.5376 117.967C67.1939 116.044 70.3227 118.159 70.6119 120.908C70.6216 121.091 70.6216 121.274 70.6119 121.456C70.6119 131.62 70.6119 141.789 70.6119 151.962C70.6119 154.015 69.7152 155.327 68.1147 155.99C66.5141 156.653 65.2704 156.384 64.123 155.178C63.7296 154.803 63.3177 154.449 62.8888 154.116C62.8069 153.029 62.6622 151.943 62.6574 150.857C62.6381 141.68 62.6381 132.506 62.6574 123.336C62.6719 121.884 62.802 120.433 62.8744 118.976Z" fill="#4B4E6D"/>
<path d="M74.6519 78.3291L90.3584 78.3002C92.7592 83.1546 95.1552 88.0123 97.5464 92.8731C97.7874 93.3537 97.9947 93.868 98.2117 94.3631C97.8638 94.4405 97.5071 94.4712 97.1511 94.4544C95.7867 94.2381 94.4321 93.7863 93.0677 93.7478C89.5388 93.6421 86.0099 93.7142 82.375 93.7142L74.6519 78.3291Z" fill="#2D3053"/>
<path d="M32.7485 0.63441L29.0701 0.0864868H32.8497L32.7485 0.63441Z" fill="#75E0EE"/>
<path d="M61.78 0L59.9577 0.692115L59.9095 0.072096L61.78 0Z" fill="#75E0EE"/>
<path d="M78.3302 47.1935C76.0788 47.1935 73.8227 47.232 71.5809 47.1118C70.151 46.9778 68.7286 46.7725 67.3192 46.4966L66.5624 46.1265V46.1794C65.6714 45.3028 64.8433 44.3649 64.0844 43.3725C62.4212 40.8876 62.4164 38.1624 63.6795 35.567C65.0004 32.8466 67.3048 31.4431 70.4287 31.4479C91.3997 31.4479 112.371 31.5152 133.342 31.3854C136.432 31.3854 140.192 34.1203 140.983 37.3213C141.339 38.9325 141.181 40.6142 140.533 42.1321C139.885 43.6501 138.778 44.9288 137.367 45.7901C137.015 46.0064 136.702 46.2707 136.369 46.5302L133.438 47.1839C123.494 47.1647 113.549 47.1487 103.601 47.1358C95.1697 47.1358 86.7765 47.1743 78.3302 47.1935Z" fill="#01A8C9"/>
<path d="M54.862 32.4909C54.8042 35.6391 54.9584 38.7872 53.758 41.8249C51.0438 48.6979 46.1506 53.163 38.8855 54.4271C30.6514 55.869 23.9021 52.8746 19.1198 46.0689C17.0376 43.1095 15.9047 39.5902 15.8705 35.9755C15.7885 31.6498 16.7575 27.6846 19.327 24.1615C22.4992 19.8358 26.6211 16.9808 32.0253 16.0388C38.0659 14.9814 43.3159 16.5963 47.997 20.3981C51.3208 23.1042 53.6088 26.8687 54.4763 31.0586C54.5701 31.3307 54.6963 31.5905 54.8524 31.8325L54.862 32.4909ZM23.7285 33.0485C23.6852 33.8992 23.6032 34.7499 23.6177 35.6006C23.7141 42.8486 30.8828 48.424 37.9261 46.6552C42.8338 45.4344 45.9289 42.3295 46.8834 37.3405C47.7656 32.7409 46.1651 28.8958 42.5446 26.0264C40.0425 24.051 37.1741 22.9503 33.8669 23.7818C32.7774 23.7097 31.6686 23.4598 30.6032 23.5896C25.7051 24.1904 22.8897 28.5401 23.7285 33.0485Z" fill="#2C3053"/>
<path d="M39.3869 8.02177L46.7629 7.99774L49.8531 11.6602C48.4743 11.0738 47.1293 10.4057 45.7167 9.92509C43.6148 9.21856 41.4936 8.6466 39.3869 8.02177Z" fill="#2D3457"/>
<path d="M78.3302 47.1935C86.7524 47.1935 95.1697 47.1359 103.587 47.1359C113.531 47.1359 123.476 47.1519 133.424 47.1839C133.009 49.7313 132.001 51.9278 129.774 53.4322C128.351 54.3882 126.67 54.8909 124.953 54.8741C112.226 54.9029 99.4988 54.9029 86.7716 54.8741C83.0595 54.8741 78.9762 52.1201 78.6532 48.3999C78.5814 47.9891 78.4733 47.5854 78.3302 47.1935Z" fill="#1E2147"/>
<path d="M33.8573 23.7722C37.1548 22.9407 40.0232 24.0414 42.5349 26.0168C46.1747 28.9006 47.7753 32.7457 46.8737 37.3309C45.9096 42.2959 42.8242 45.4248 37.9165 46.6456C30.8731 48.3999 23.7044 42.8246 23.608 35.591C23.608 34.7403 23.6755 33.8896 23.7189 33.0389C24.1105 34.0444 24.5829 35.0169 25.1314 35.9467C26.1617 37.3987 27.6681 38.4463 29.3907 38.9088C31.1132 39.3713 32.9437 39.2195 34.566 38.4796C36.2027 37.7757 37.5463 36.5312 38.3708 34.9556C39.1952 33.3799 39.4502 31.5693 39.0928 29.8282C38.5095 26.8002 36.4991 25.0219 33.8573 23.7722Z" fill="#02A8C9"/>
<path d="M33.8573 23.7722C36.4991 25.0219 38.5095 26.7858 39.1024 29.8378C39.4598 31.5789 39.2049 33.3896 38.3804 34.9652C37.556 36.5408 36.2123 37.7853 34.5756 38.4893C32.9507 39.2267 31.1184 39.3747 29.3956 38.9078C27.6728 38.4409 26.1678 37.3884 25.1411 35.9323C24.5926 35.0024 24.1202 34.03 23.7285 33.0244C22.8897 28.5401 25.7051 24.1904 30.5935 23.58C31.6589 23.4358 32.7822 23.7001 33.8573 23.7722Z" fill="#B8F0F2"/>
</g>
<defs>
<clipPath id="clip0_42_2">
<rect width="149" height="172" fill="white"/>
</clipPath>
</defs>
</svg>
