<svg width="164" height="164" viewBox="0 0 164 164" fill="none" xmlns="http://www.w3.org/2000/svg">
<g clip-path="url(#clip0_57_519)">
<path d="M138.719 96.8461C135.23 94.6351 132.53 91.7433 131.112 87.8047C129.823 84.2893 129.739 80.4457 130.872 76.8771C132.004 73.3085 134.291 70.2171 137.371 68.0881C137.841 67.7735 138.263 67.4543 138.709 67.1492L143.982 65.2292C147.312 64.9146 150.556 65.0602 153.707 66.3981C157.123 67.8705 159.964 70.4182 161.799 73.6537C163.633 76.8891 164.36 80.635 163.869 84.3214C163.089 91.1283 157.52 97.2686 150.552 98.5455C148.415 98.9399 146.175 98.7333 143.978 98.8037L138.719 96.8461Z" fill="#12C9E3"/>
<path d="M67.1289 138.678C69.0072 135.772 71.3315 133.275 74.5386 131.81C80.9904 128.867 87.1793 129.43 92.6732 133.913C98.1671 138.397 100.13 144.382 98.3643 151.25C96.5753 158.202 91.8655 162.427 84.8362 163.723C74.5715 165.601 65.0628 157.522 65.0722 147.091C65.0722 146.044 65.1614 144.997 65.2084 143.955C65.8532 142.196 66.4934 140.437 67.1289 138.678Z" fill="#12C9E3"/>
<path d="M96.8664 25.289C95.1102 28.007 92.9643 30.3214 90.0765 31.8612C86.3806 33.8574 82.0753 34.4119 77.994 33.4172C73.9128 32.4225 70.3458 29.9494 67.9835 26.4766C67.7017 26.0729 67.4153 25.6739 67.1336 25.2749C66.4918 23.5192 65.8517 21.7619 65.2131 20.003C64.6825 15.3086 65.3586 10.8724 68.2793 7.00415C72.5054 1.37083 78.267 -0.952925 85.1179 0.319266C92.2834 1.64779 96.857 6.18262 98.4958 13.2853C99.0029 15.4307 98.7118 17.7591 98.7869 20.003C98.1577 21.7713 97.5175 23.5332 96.8664 25.289Z" fill="#12C9E3"/>
<path d="M33.6678 84.9879C32.6535 90.1988 29.7187 94.0529 25.2907 96.8555L20.0222 98.7708C15.7445 99.2403 11.6781 98.7145 7.95442 96.3532C4.99739 94.4901 2.68691 91.7608 1.3379 88.5372C-0.0111092 85.3136 -0.333014 81.7525 0.416023 78.3394C1.16506 74.9262 2.94863 71.8269 5.52362 69.464C8.09862 67.1011 11.3398 65.5895 14.8053 65.1352C18.8663 64.6328 22.9723 65.6113 26.3698 67.8912C29.7673 70.1712 32.2284 73.5996 33.3015 77.5473C33.4283 78.0167 33.5457 78.4862 33.6678 78.9885V84.9879Z" fill="#12C9E3"/>
<path d="M65.2131 79.0824C66.2226 74.6321 68.3685 70.9235 72.1203 68.1913C82.0094 61.0042 96.3499 66.6797 98.6179 78.6928C99.4511 82.8394 98.6988 87.1477 96.5095 90.7668C96.2841 91.1471 96.0822 91.5367 95.8709 91.917L91.936 95.8556C89.0341 97.6301 85.9725 98.8601 82.4977 98.9164C78.5578 99.038 74.6987 97.7819 71.5856 95.3645C68.4725 92.9472 66.3002 89.5199 65.4432 85.6734C65.3821 85.4105 65.2929 85.1523 65.2178 84.8894L65.2131 79.0824Z" fill="#12C9E3"/>
<path d="M136.662 120.792C140.888 124.323 142.353 128.853 140.836 133.561C140.366 135.004 139.609 136.338 138.612 137.482C137.615 138.627 136.398 139.559 135.033 140.224C133.668 140.888 132.183 141.271 130.667 141.349C129.151 141.428 127.634 141.2 126.208 140.681C124.782 140.161 123.475 139.359 122.365 138.324C121.255 137.288 120.364 136.04 119.747 134.653C119.13 133.267 118.798 131.77 118.772 130.252C118.745 128.735 119.025 127.228 119.593 125.82C119.781 125.351 119.983 124.914 120.18 124.459C121.292 122.733 122.76 121.265 124.486 120.154C126.619 119.099 128.983 118.598 131.361 118.699L136.662 120.792Z" fill="#12C9E3"/>
<path d="M131.361 45.2731C129.835 45.0947 128.252 45.1182 126.796 44.7004C124.476 44.0218 122.44 42.6068 120.994 40.6692C119.549 38.7316 118.774 36.3765 118.786 33.9595C118.786 33.5229 118.743 33.0817 118.725 32.6404C119.426 30.8753 120.124 29.1086 120.819 27.3404C124.528 22.5708 129.933 21.6695 134.394 23.4534C141.973 26.486 143.785 36.6354 137.784 42.2311C137.423 42.5644 137.038 42.879 136.662 43.1982L131.361 45.2731Z" fill="#12C9E3"/>
<path d="M32.6441 118.699C33.7965 118.731 34.9459 118.833 36.086 119.004C41.6269 120.168 45.1486 124.525 45.219 130.177C45.219 130.562 45.2613 130.947 45.2801 131.331C44.582 133.097 43.8839 134.865 43.1858 136.636C39.6876 140.791 35.2032 142.293 30.5404 140.861C22.3747 138.345 19.9142 127.811 26.1078 121.882C26.5022 121.501 26.9295 121.154 27.3427 120.792L32.6441 118.699Z" fill="#12C9E3"/>
<path d="M45.2801 32.6451C45.2235 34.0178 45.0761 35.3853 44.8387 36.7386C43.5333 42.217 38.091 45.8693 32.4469 45.151C30.6047 44.9098 28.8503 44.219 27.3383 43.1396C25.8263 42.0602 24.6033 40.6254 23.7771 38.9617C22.9509 37.298 22.547 35.4567 22.6009 33.6C22.6549 31.7434 23.165 29.9286 24.0864 28.3157C25.0078 26.7027 26.312 25.3413 27.8841 24.3515C29.4562 23.3616 31.2478 22.7738 33.1009 22.6398C34.9539 22.5059 36.8115 22.8299 38.5097 23.5834C40.2078 24.3368 41.6944 25.4965 42.8383 26.9601C43.0449 27.2136 43.275 27.4295 43.4957 27.6924L45.2801 32.6451Z" fill="#12C9E3"/>
<path d="M124.486 120.154C122.76 121.265 121.292 122.733 120.18 124.459C119.711 123.924 119.241 123.365 118.772 122.863C110.232 114.309 101.686 105.761 93.1334 97.217C92.7107 96.7898 92.3445 96.311 91.9501 95.8556L95.885 91.917C96.3546 92.3113 96.8241 92.6775 97.2514 93.1C105.838 101.681 114.427 110.264 123.016 118.849C123.467 119.3 123.988 119.717 124.486 120.154Z" fill="#7C7F94"/>
<path d="M65.2131 79.0824V84.8894C59.378 84.9113 53.5428 84.9333 47.7077 84.9552C43.0121 84.9739 38.3321 84.9849 33.6678 84.988V78.9885L63.2503 79.0214C63.8936 79.0214 64.5557 79.0636 65.2131 79.0824Z" fill="#7C7F94"/>
<path d="M43.1858 136.636C43.887 134.868 44.5851 133.1 45.2801 131.331C46.3319 131.604 47.4072 131.801 48.4309 132.158C54.6714 134.312 60.8978 136.5 67.1289 138.678C66.5028 140.44 65.8626 142.199 65.2084 143.955C61.696 142.762 58.1649 141.608 54.6714 140.378C51.3187 139.223 47.9801 138.03 44.6274 136.871C44.1544 136.752 43.6721 136.673 43.1858 136.636Z" fill="#7C7F94"/>
<path d="M131.361 45.2732L136.662 43.1794C137.07 44.6441 137.404 46.1369 137.897 47.5734C139.893 53.3476 141.935 59.1077 143.959 64.8771C143.973 64.9846 143.973 65.0935 143.959 65.201L138.695 67.121C136.77 61.6098 134.826 56.1079 132.934 50.5826C132.347 48.8362 131.887 47.043 131.361 45.2732Z" fill="#7C7F94"/>
<path d="M32.6441 118.699L27.3427 120.792C26.9107 119.281 26.5445 117.741 26.0326 116.253C24.0605 110.526 22.0413 104.817 20.041 99.0947C20.0267 98.9872 20.0267 98.8783 20.041 98.7708L25.3095 96.8555C27.2347 102.367 29.1787 107.869 31.0757 113.389C31.6345 115.136 32.1041 116.952 32.6441 118.699Z" fill="#7C7F94"/>
<path d="M136.662 120.792L131.361 118.699C132.009 116.567 132.6 114.413 133.323 112.305C135.089 107.141 136.916 101.977 138.719 96.8462L143.982 98.7756C142.658 102.672 141.344 106.578 140.005 110.469C138.963 113.483 137.878 116.478 136.84 119.492C136.737 119.918 136.678 120.354 136.662 120.792Z" fill="#7C7F94"/>
<path d="M45.2801 32.6451L43.4957 27.6924C44.8105 27.1432 46.1065 26.5329 47.4542 26.0635C53.15 24.0636 58.8599 22.1014 64.5698 20.1344C64.7809 20.0798 64.996 20.0421 65.2131 20.0217C65.8392 21.7774 66.4793 23.5347 67.1336 25.2936C60.9072 27.4671 54.6855 29.6547 48.4543 31.8095C47.4213 32.1662 46.3413 32.3681 45.2801 32.6451Z" fill="#7C7F94"/>
<path d="M120.819 27.3403C120.121 29.1086 119.423 30.8753 118.725 32.6404C117.316 32.2413 115.879 31.9127 114.499 31.4339C108.615 29.4106 102.759 27.3403 96.8711 25.2889L98.7822 20.0217C101.13 20.7869 103.45 21.5146 105.765 22.3173C110.357 23.9134 114.931 25.5565 119.523 27.162C119.948 27.2653 120.382 27.325 120.819 27.3403Z" fill="#7C7F94"/>
</g>
<defs>
<clipPath id="clip0_57_519">
<rect width="164" height="164" fill="white"/>
</clipPath>
</defs>
</svg>
