<svg width="171" height="162" viewBox="0 0 171 162" fill="none" xmlns="http://www.w3.org/2000/svg">
<g clip-path="url(#clip0_57_490)">
<path d="M89.0535 126.793C88.3542 127.375 87.7073 128.016 87.1201 128.71C80.2827 138.392 73.4668 148.09 66.6723 157.805C64.5943 160.778 61.9004 162.475 58.1889 161.856C52.4852 160.911 49.6199 155.115 52.2978 149.996C59.6457 136.043 66.924 122.038 74.4219 108.192C76.7389 103.865 78.3651 99.2047 79.2419 94.3785C81.02 85.1179 83.0337 75.8999 84.9457 66.666C85.508 64.0933 86.1346 61.5259 86.622 58.9372C87.3771 54.95 89.5248 51.9236 92.7917 49.6072L94.7037 48.2621L95.6248 47.9258C100.713 46.3246 105.934 46.8583 111.097 47.1786C114.209 47.3814 116.956 48.9506 119.131 51.2458C121.809 54.0693 124.069 57.1705 125.118 60.9975C124.508 60.4904 123.86 60.0154 123.297 59.4603C121.305 57.4907 119.409 55.4304 117.363 53.5302C116.338 52.5449 115.081 51.8333 113.706 51.4613C112.332 51.0893 110.886 51.069 109.502 51.4021C108.118 51.7353 106.84 52.4112 105.788 53.3673C104.735 54.3234 103.942 55.5287 103.482 56.8716C102.26 60.3943 103.198 63.5115 105.833 66.1749C110.562 70.952 115.248 75.7825 119.95 80.5863C117.379 84.6855 114.814 88.7866 112.254 92.8894C112.119 93.1821 112.022 93.4905 111.965 93.8074C111.588 94.0717 111.243 94.378 110.937 94.7201C109.014 97.4156 107.129 100.143 105.222 102.849C100.873 109.025 96.4871 115.168 92.1919 121.381C90.9868 123.105 90.0817 124.984 89.0535 126.793Z" fill="#2C2F53"/>
<path d="M35.7488 56.578C36.4521 55.3012 37.2263 54.0645 38.0678 52.8737C40.8581 49.2815 44.5428 47.2212 49.1433 47.0451C52.0621 46.933 54.997 46.9704 57.9212 47.0451C59.9894 47.0589 62.0282 47.5356 63.8868 48.4401C65.7454 49.3445 67.3764 50.6536 68.6592 52.2706C68.1558 52.6922 67.6149 53.0819 67.1436 53.5462C59.8117 60.7146 52.4584 67.8562 45.1855 75.0779C44.388 75.862 43.7555 76.7969 43.3251 77.8277C42.8948 78.8585 42.6751 79.9645 42.6791 81.081C42.6831 82.1974 42.9106 83.3019 43.3484 84.3296C43.7861 85.3573 44.4252 86.2876 45.2283 87.0661C46.0217 87.8539 46.9634 88.4779 47.9993 88.9022C49.0352 89.3266 50.145 89.543 51.265 89.5391C52.385 89.5351 53.4932 89.3108 54.526 88.8791C55.5589 88.4474 56.4961 87.8168 57.2838 87.0234C61.7879 82.6839 66.2438 78.2911 70.7265 73.9303C71.6316 73.0496 72.5688 72.2063 73.4953 71.347C72.9598 72.6173 72.5795 73.9837 71.8886 75.1473C68.37 80.9332 64.7549 86.6551 61.2095 92.425C60.8557 93.1108 60.5601 93.825 60.3258 94.56C59.8486 94.8597 59.4114 95.2184 59.0244 95.6275C51.8836 105.755 44.7427 115.896 37.6019 126.052C32.107 133.86 26.5853 141.648 21.1119 149.467C20.6985 150.201 20.3629 150.976 20.1104 151.779L14.5834 158.808C13.3108 160.461 11.448 161.561 9.38221 161.88C7.31645 162.2 5.20677 161.713 3.49186 160.521C0.0481873 158.173 -0.996154 153.817 1.03899 149.91C4.88969 142.539 8.79393 135.195 12.6768 127.84C16.249 121.077 19.7837 114.288 23.4202 107.557C25.2946 104.088 26.821 100.559 27.4637 96.6096C28.3206 91.3788 29.5149 86.2014 30.5646 81.0026C30.6876 80.7682 30.7898 80.5235 30.8699 80.2714C32.5015 72.3825 34.1279 64.4847 35.7488 56.578Z" fill="#12C9E3"/>
<path d="M119.639 42.6684C113.973 42.6458 108.546 40.3865 104.547 36.385C100.548 32.3835 98.3026 26.9659 98.3026 21.3182C98.3351 15.6692 100.604 10.2613 104.615 6.27028C108.627 2.27926 114.057 0.0277851 119.725 0.00537109C131.395 0.00537109 141.148 9.81045 141.116 21.4143C141.072 27.0636 138.79 32.467 134.768 36.4477C130.746 40.4285 125.308 42.6644 119.639 42.6684Z" fill="#7C7F94"/>
<path d="M68.1344 42.6738C56.6251 42.5297 46.7761 33.0662 47.0171 21.1528C47.2634 8.87641 56.593 -0.0960161 68.5039 0.0747855C80.779 0.245587 89.5837 9.11126 89.7336 21.2542C89.8782 33.0769 80.8111 42.5403 68.1344 42.6738Z" fill="#B8F0F2"/>
<path d="M119.945 80.5864C115.243 75.7826 110.556 70.9788 105.827 66.175C103.192 63.5062 102.255 60.3944 103.476 56.8716C103.937 55.5287 104.73 54.3234 105.782 53.3674C106.835 52.4113 108.112 51.7354 109.497 51.4022C110.881 51.069 112.327 51.0894 113.701 51.4614C115.075 51.8334 116.333 52.545 117.358 53.5303C119.404 55.4305 121.3 57.4908 123.292 59.4603C123.828 59.9941 124.502 60.4905 125.113 60.9976C128.042 64.0827 130.935 67.2051 133.95 70.1995C134.309 70.5571 135.449 70.445 136.092 70.1995C143.654 67.029 151.173 63.7944 158.72 60.5919C163.582 58.5263 168.729 60.5652 170.502 65.2142C171.299 67.2233 171.286 69.4613 170.467 71.4613C169.647 73.4612 168.085 75.0686 166.105 75.948C156.036 80.3533 145.929 84.6678 135.781 88.8916C132.429 90.2847 129.221 89.6282 126.548 87.0288C124.313 84.8867 122.112 82.7392 119.945 80.5864Z" fill="#7C7F94"/>
<path d="M73.49 71.331C72.5635 72.1904 71.6262 73.0337 70.7211 73.9144C66.2385 78.2752 61.7826 82.668 57.2785 87.0074C56.4902 87.7985 55.5531 88.427 54.5209 88.8568C53.4886 89.2867 52.3815 89.5094 51.2627 89.5124C50.144 89.5154 49.0357 89.2985 48.0012 88.8742C46.9666 88.4498 46.0262 87.8263 45.2337 87.0394C44.4306 86.261 43.7915 85.3307 43.3537 84.303C42.916 83.2752 42.6885 82.1708 42.6845 81.0543C42.6805 79.9378 42.9001 78.8318 43.3305 77.801C43.7609 76.7702 44.3933 75.8354 45.1908 75.0513C52.4584 67.8296 59.8117 60.6879 67.1489 53.5196C67.6202 53.0552 68.1611 52.6656 68.6646 52.2439C71.7066 51.6194 74.7271 50.8882 77.7691 50.3971C82.6695 49.6072 87.6021 48.9667 92.5239 48.2888C93.2472 48.2318 93.9733 48.2175 94.6983 48.2461L92.7863 49.5912C89.5194 51.9077 87.3718 54.9287 86.6166 58.9212C86.1293 61.5099 85.5027 64.0773 84.9403 66.65C82.6642 66.9489 80.372 67.1837 78.1065 67.5734C75.8411 67.963 74.9146 69.9486 73.49 71.331Z" fill="#7C7F94"/>
<path d="M89.0535 126.793C90.0817 124.984 90.9868 123.089 92.1651 121.381C96.4496 115.168 100.847 109.025 105.195 102.849C107.102 100.143 108.987 97.4156 110.91 94.7201C111.217 94.3779 111.562 94.0717 111.938 93.8074C116.94 96.0011 121.953 98.1628 126.934 100.399C130.945 102.203 132.745 105.246 132.418 109.43C132.129 113.129 129.697 115.878 125.541 117.015C115.773 119.691 105.999 122.337 96.2193 124.952C93.836 125.592 91.4421 126.18 89.0535 126.793Z" fill="#1F2247"/>
<path d="M35.7489 56.578C34.1207 64.4811 32.4926 72.3861 30.8645 80.2927C30.7845 80.5449 30.6823 80.7896 30.5592 81.024C28.808 81.894 27.7582 83.3298 26.9067 85.0645C24.8234 89.2972 22.6222 93.4605 20.4157 97.6398C19.5252 99.3371 18.0982 100.695 16.3555 101.502C14.6128 102.31 12.6517 102.522 10.7755 102.107C7.18727 101.275 4.22024 97.8373 4.14526 94.0743C4.15834 92.7501 4.47527 91.4465 5.07179 90.2633C7.85672 84.6749 10.647 79.0544 13.6997 73.6315C14.7956 71.8208 16.2541 70.2546 17.9842 69.0305C23.4148 64.9846 28.9954 61.1363 34.5278 57.2239C34.92 56.9819 35.328 56.7662 35.7489 56.578Z" fill="#B8F0F2"/>
<path d="M20.105 151.8C20.3575 150.997 20.6932 150.222 21.1066 149.489C26.58 141.669 32.1017 133.882 37.5965 126.073C44.7374 115.935 51.8782 105.794 59.0191 95.6489C59.406 95.2399 59.8433 94.8812 60.3205 94.5814C61.9915 98.8515 63.9195 103.015 65.2637 107.392C66.8115 112.398 65.1406 116.7 61.081 119.972C56.7269 123.479 52.287 126.868 47.8794 130.306C39.1711 137.102 30.4611 143.893 21.7492 150.679C21.2083 151.053 20.646 151.394 20.105 151.8Z" fill="#01A8C9"/>
</g>
<defs>
<clipPath id="clip0_57_490">
<rect width="171" height="162" fill="white"/>
</clipPath>
</defs>
</svg>
