<svg width="1042" height="799" viewBox="0 0 1042 799" fill="none" xmlns="http://www.w3.org/2000/svg">
<path d="M1109.58 0.784546C1109.58 0.784546 68.9261 237.6 6.99974 509.899C-22.1547 638.096 56.2998 757.027 186.11 788.245C461.715 854.526 1108.39 572.544 1108.39 572.544L1109.58 0.784546Z" fill="url(#paint0_linear_46_161)"/>
<path d="M393.153 256.137L390.955 260.404L391.828 263.862V268.355C391.828 269.81 390.664 269.875 390.341 268.743L389.372 265.252H387.175L381.94 270.424C381.512 270.855 380.931 271.1 380.324 271.103H379.807L377.933 272.978C376.964 274.045 376.253 272.978 376.964 271.782L379.516 267.644V266.384C379.557 265.991 379.715 265.619 379.969 265.317L384.557 259.757L386.787 257.947L390.955 254.262L393.153 256.137Z" fill="#FFB294"/>
<path d="M478.75 330.871L479.171 331.162C483.177 333.167 485.924 335.688 484.825 339.858L477.361 343.155L472.126 351.236L464.048 354.824C461.915 352.723 460.17 350.557 462.852 348.101C464.583 346.862 466.047 345.288 467.157 343.472C468.268 341.656 469.001 339.636 469.315 337.53C471.348 337.395 473.304 336.702 474.968 335.527C476.633 334.352 477.941 332.742 478.75 330.871Z" fill="#FFB294"/>
<path d="M421.911 263.571L451.801 263.862C447.439 274.368 453.74 279.314 457.036 299.419C474.808 307.371 471.642 323.34 478.751 330.968C478.613 332.45 478.145 333.882 477.381 335.158C476.618 336.435 475.577 337.525 474.337 338.346C473.098 339.168 471.689 339.701 470.216 339.907C468.743 340.113 467.243 339.985 465.825 339.534C466.148 335.365 460.3 318.685 434.934 303.977C426.328 292.278 421.757 278.096 421.911 263.571Z" fill="#503227"/>
<path d="M480.366 331.809C482.365 332.077 484.196 333.065 485.517 334.589C486.838 336.113 487.558 338.067 487.54 340.084C486.7 344.706 481.626 345.03 478.492 347.713C471.222 353.822 471.609 357.184 467.409 358.541C462.335 360.19 454.742 358.347 454.128 356.085C453.514 353.822 454.968 352.076 459.944 349.62L466.407 344.415C465.344 345.796 464.142 347.064 462.82 348.197C461.204 350.783 462.82 351.979 465.825 352.917C468.701 352.917 471.222 350.428 474.13 346.452L480.592 338.694C481.362 337.7 481.761 336.468 481.72 335.211C481.679 333.954 481.2 332.75 480.366 331.809Z" fill="#7D4D3D"/>
<path d="M405.205 378.453C408.309 379.034 411.499 378.968 414.576 378.259C414.576 378.259 414.576 378.615 414.35 378.809C415.758 381.548 416.158 384.694 415.481 387.698C415.481 387.698 408.146 396.685 407.984 397.137C404.652 398.134 401.264 398.932 397.838 399.529L394.607 393.323C399.522 389.515 403.208 384.343 405.205 378.453Z" fill="#FFB294"/>
<path d="M414.35 378.712C417.872 380.975 417.581 385.597 416.967 389.024C415.32 391.804 412.961 393.484 410.246 397.557L407.694 400.208C402.556 403.634 393.411 404.055 390.212 402.277C388.112 399.335 390.6 396.458 396.901 391.383C394.51 395.262 397.224 397.169 403.364 396.652C406.336 396.2 408.308 393.064 411.507 388.797C414.706 384.53 416.515 381.944 414.35 378.712Z" fill="#7D4D3D"/>
<path d="M404.462 380.264L405.593 377.387C411.765 359.317 415.772 339.017 419.649 326.992C422.493 309.602 426.403 294.183 432.575 282.805C429.405 280.579 426.756 277.693 424.809 274.345C422.862 270.997 421.664 267.266 421.297 263.41L457.23 262.666C459.636 269.851 459.636 277.624 457.23 284.809C449.765 311.735 439.167 312.802 433.35 331.647C436.323 349.943 428.665 361.386 421.944 379.262C419.262 381.557 408.049 383.302 404.462 380.264Z" fill="#7D4D3D"/>
<path d="M424.755 201.443C420.263 202.575 415.061 216.022 407.855 226.947C401.716 233.412 394.477 245.793 386.658 258.141C388.952 258.141 389.889 260.404 391.698 260.953C399.712 250.803 409.697 243.078 412.185 237.776L425.337 220.321L424.755 201.443Z" fill="#B1D8F2"/>
<path d="M421.879 243.562L420.263 261.244C423.689 282.093 452.835 276.146 459.039 263.571C457.682 257.527 452.9 255.005 455.291 248.961C458.522 240.686 460.817 234.027 460.817 234.027C461.56 231.893 462.238 229.954 462.723 228.176C464.597 221.711 464.436 217.315 459.039 212.692C448.699 205.064 438.068 200.215 426.726 200.732C422.17 199.407 420.263 208.652 421.427 215.472C422.59 221.582 414.156 227.982 413.865 232.281C413.639 233.549 413.667 234.85 413.949 236.108C414.231 237.365 414.76 238.553 415.506 239.604C416.252 240.654 417.2 241.545 418.294 242.225C419.389 242.904 420.607 243.359 421.879 243.562Z" fill="#D4EEFF"/>
<path d="M484.47 274.206L486.861 277.859L494.778 283.548L498.203 287.944L501.111 293.278C501.725 294.248 501.305 295.217 500.691 294.765L501.951 296.995C502.889 298.611 501.952 299.161 500.756 297.9L495.23 291.177L500.077 298.644C500.982 300.066 499.883 300.745 498.817 299.387L492.354 291.92L496.038 298.385C496.975 300.131 496.038 300.906 494.746 299.355L486.57 289.431L487.314 294.151V296.64C487.314 298.288 485.795 298.191 485.472 296.413L484.858 294.183L482.854 290.53L482.24 281.738L481.174 275.79L484.47 274.206Z" fill="#FFB294"/>
<path d="M447.924 192.974L447.536 206.551L443.238 213.533C440.007 218.866 425.983 237.033 425.983 237.033C425.983 237.033 425.66 220.87 430.313 210.397L430.895 206.648L432.639 199.471L447.924 192.974Z" fill="#FFB294"/>
<path d="M420.263 261.244C423.689 282.093 452.835 276.146 459.039 263.571C457.682 257.527 452.9 255.005 455.291 248.961C458.522 240.686 460.817 234.027 460.817 234.027C461.56 231.893 462.238 229.954 462.723 228.176C462.206 224.943 461.528 222.357 460.817 223.069C448.279 235.998 447.213 251.999 434.546 250.448C427.534 249.575 426.209 241.397 426.209 241.397C424.4 242.981 423.656 243.756 421.944 243.562L420.263 261.244Z" fill="#227FBC"/>
<path d="M460.784 215.472C464.468 216.474 469.67 229.824 475.067 244.564C479.817 250.835 482.434 266.384 487.314 278.15C485.021 278.676 482.905 279.79 481.174 281.382C476.876 268.711 469.283 260.048 468.249 249.672C463.983 243.498 459.039 237.421 455.808 232.734C451.252 226.786 454.839 215.472 460.784 215.472Z" fill="#D4EEFF"/>
<path d="M446.114 204.159L448.441 206.939C449.473 208.155 450.216 209.59 450.614 211.135C451.011 212.681 451.053 214.296 450.735 215.86L446.049 215.408L449.475 221.226C439.793 224.078 431.335 230.071 425.434 238.261C431.767 222.584 442.786 219.19 446.114 204.159Z" fill="white"/>
<path d="M434.772 203.738C430.377 208.846 426.403 223.844 425.983 237.033C424.146 228.54 423.311 219.861 423.495 211.173L427.663 210.009L424.432 208.716C425.949 206.006 428.186 203.769 430.895 202.251L434.772 203.738Z" fill="white"/>
<path d="M444.757 197.694C444.757 197.694 442.753 212.11 435.063 211.69C430.216 211.432 431.121 200.732 431.121 200.732L444.757 197.694Z" fill="#FFB294"/>
<path d="M431.121 206.066C434.675 207.65 439.813 203.9 442.14 201.928C442.934 201.256 443.555 200.402 443.949 199.439L445.856 194.946L448.828 195.172C448.828 195.172 454.031 192.36 453.223 182.242C452.803 177.038 446.308 171.834 440.879 171.834C437.973 171.794 435.117 172.593 432.652 174.135C430.188 175.677 428.22 177.897 426.985 180.529C424.723 184.02 426.015 191.196 426.015 191.196C426.015 191.196 426.403 203.932 431.121 206.066Z" fill="#FFB294"/>
<path d="M443.271 200.668C439.676 198.989 436.524 196.492 434.067 193.377C431.609 190.262 429.914 186.615 429.117 182.727C429.117 182.727 426.597 189.968 423.398 191.778C423.982 190.075 424.224 188.274 424.109 186.477C423.673 184.876 423.563 183.204 423.784 181.56C424.006 179.916 424.555 178.333 425.398 176.905C426.242 175.476 427.363 174.232 428.695 173.244C430.028 172.256 431.545 171.546 433.156 171.155C444.401 167.923 455.517 173.224 455.033 185.443C455.047 189.858 454.157 194.23 452.418 198.289C450.678 202.347 448.126 206.006 444.918 209.04C444.918 209.04 445.92 202.736 443.271 200.668Z" fill="#722811"/>
<path d="M381.52 498.313C383.7 500.513 385.077 503.382 385.43 506.459C384.378 509.41 382.318 511.895 379.613 513.474L373.151 522.395C371.164 524.713 368.583 526.445 365.686 527.406C362.662 528.109 359.524 528.164 356.477 527.567C355.014 527.266 353.64 526.631 352.463 525.712C351.286 524.792 350.338 523.613 349.691 522.266C350.434 519.745 353.924 516.835 358.448 514.12L364.717 506.556L365.008 498.572L376.576 493.077L381.52 498.313Z" fill="black"/>
<path d="M309.396 435.151L322.322 474.232C322.453 474.585 322.604 474.93 322.774 475.266C325.304 479.744 328.887 483.538 333.211 486.321C342.518 493.077 355.055 499.025 362.681 507.203C369.435 509.692 381.455 504.681 381.455 497.505C377.928 492.297 373.925 487.428 369.499 482.959C363.281 477.098 356.506 471.859 349.271 467.314L340.837 436.153L309.396 435.151Z" fill="#355059"/>
<path d="M309.396 435.151L322.322 474.232C322.453 474.585 322.604 474.93 322.774 475.266L333.211 486.321L342.711 477.755L369.532 482.959C363.313 477.098 356.539 471.859 349.303 467.314L340.87 436.153L309.396 435.151Z" fill="#162B35"/>
<path d="M304.873 559.181C305.135 563.141 304.494 567.109 302.998 570.785C301.834 572.191 300.284 573.225 298.539 573.759C297.35 576.051 295.411 577.865 293.046 578.899C286.906 581.226 275.661 577.606 273.981 572.434C275.929 568.875 278.996 566.058 282.706 564.417L290.364 556.983L292.723 548.514L305.648 551.746L304.873 559.181Z" fill="black"/>
<path d="M288.716 555.173C291.107 560.571 296.73 562.543 305.971 560.7C307.361 557.468 308.718 554.235 310.043 551.003C316.226 535.92 321.513 520.485 325.876 504.778L347.946 455.839L350.951 449.374L335.958 445.721L322.419 442.489C321.094 445.721 319.769 448.954 318.509 452.186C317.507 454.74 316.505 457.293 315.536 459.847V460.3C310.648 473.045 306.769 486.156 303.935 499.509L288.716 555.173Z" fill="#355059"/>
<path d="M309.978 551.035C316.191 535.945 321.499 520.499 325.876 504.778L347.946 455.839L341.742 450.279L335.958 445.559L324.519 436.25L318.509 451.798L315.536 459.524V459.976L327.266 471.678L321.255 504.778L309.978 551.035Z" fill="#162B35"/>
<path d="M295.631 435.765L292.723 440.485C292.797 442.057 292.495 443.625 291.843 445.059C291.192 446.492 290.208 447.749 288.974 448.727L285.743 452.736L285 455.709C283.869 457.358 282.9 457.067 282.027 455.968L282.318 457.908L283.352 462.368L285.388 465.116C286.099 466.506 285.582 466.764 284.58 466.603C284.58 467.799 283.966 468.09 282.932 467.928L281.252 465.278C280.735 466.474 279.701 466.991 279.054 465.633L276.954 459.524C276.445 456.477 276.522 453.361 277.18 450.344C279.285 446.039 282.178 442.169 285.711 438.933L288.651 432.694L295.631 435.765Z" fill="#FFB294"/>
<path d="M321.772 388.927L295.922 440.291C291.38 439.638 287.102 437.761 283.546 434.86L309.913 364.812C312.268 359.534 316.577 355.374 321.934 353.208L321.772 388.927Z" fill="#355059"/>
<path d="M304.226 442.812C305.846 444.783 308.036 446.206 310.495 446.885C314.504 446.05 318.054 443.743 320.448 440.42C322.257 448.663 327.201 460.203 329.431 461.916C332.145 464.308 338.123 464.76 344.359 463.37C346.473 462.877 348.539 462.196 350.531 461.334C355.051 459.533 358.924 456.413 361.647 452.38C363.747 447.725 359.967 436.864 360.355 423.708L362.229 406.479L367.463 380.619C365.893 377.398 363.952 374.371 361.679 371.601C355.651 364.967 348.799 359.134 341.29 354.242H320.448C315.665 358.703 313.048 365.911 311.658 374.607C311.658 374.607 311.885 409.453 310.398 417.922C308.74 425.063 306.414 432.033 303.451 438.739C303.246 439.431 303.21 440.161 303.345 440.87C303.48 441.578 303.782 442.244 304.226 442.812Z" fill="#355059"/>
<path d="M331.757 369.887H347.203L322.742 413.558C315.762 397.04 314.243 381.233 322.516 364.069L331.757 369.887Z" fill="white"/>
<path d="M339.189 351.753L347.591 358.412C351.759 371.342 341.29 376.514 334.439 383.658L330.4 372.473L320.448 374.413L324.261 356.085L339.189 351.753Z" fill="#BBCAD5"/>
<path d="M344.359 355.858C350.531 360.578 347.203 369.855 339.997 378.486C333.534 386.147 323.065 403.182 321.934 415.756C328.397 403.44 339.9 388.183 346.169 383.787L344.359 379.294L348.528 380.231C352.362 375.523 354.298 369.55 353.956 363.487L344.359 355.858Z" fill="#263940"/>
<path d="M329.495 354.21C320.448 362.905 315.213 398.753 322.548 414.463C314.47 404.766 311.917 389.961 315.181 366.784L317.604 365.297L316.893 362.776L324.551 353.531L329.495 354.21Z" fill="#263940"/>
<path d="M328.332 370.469C328.525 370.925 328.807 371.337 329.162 371.682C329.518 372.026 329.939 372.295 330.4 372.473C338.931 374.962 345.91 365.265 344.909 359.543C343.907 353.822 343.649 350.428 343.649 350.428L327.169 354.501C327.169 354.501 326.975 356.052 326.878 358.218C326.482 362.359 326.977 366.536 328.332 370.469Z" fill="#FFB294"/>
<path d="M328.332 370.469C329.114 371.035 330.049 371.35 331.014 371.374C338.802 371.374 341.29 356.699 341.29 356.699L326.91 358.218C326.504 362.357 326.988 366.534 328.332 370.469Z" fill="#FFB294"/>
<path d="M342.388 353.305C341.486 357.029 339.789 360.514 337.412 363.519C334.549 366.067 330.996 367.71 327.201 368.239C326.348 368.394 325.469 368.333 324.645 368.062C323.821 367.791 323.078 367.319 322.483 366.687C321.223 365.2 320.448 351.624 320.448 351.624C320.308 348.373 320.557 345.118 321.191 341.927C322.128 337.627 325.23 328.092 337.735 329.805C340.426 330.126 342.931 331.343 344.847 333.26C346.764 335.177 347.98 337.683 348.302 340.375C348.223 344.436 347.287 348.435 345.555 352.109L342.388 353.305Z" fill="#FFB294"/>
<path d="M345.684 352.852L339.739 356.085L339.286 352.529C339.299 352.114 339.221 351.701 339.059 351.319C338.897 350.936 338.654 350.594 338.347 350.314C338.04 350.035 337.676 349.825 337.281 349.7C336.885 349.574 336.467 349.536 336.055 349.587C332.143 349.921 328.212 349.23 324.648 347.583C323.635 347.182 322.71 346.584 321.928 345.824C321.146 345.064 320.522 344.157 320.092 343.155C318.089 335.429 328.235 329.449 335.926 329.708C345.232 330.031 348.851 336.173 348.851 341.797C348.517 345.652 347.442 349.406 345.684 352.852Z" fill="black"/>
<path d="M344.359 348.165C344.761 347.933 345.23 347.845 345.688 347.915C346.146 347.986 346.567 348.211 346.88 348.553C347.029 348.761 347.134 348.998 347.189 349.247C347.245 349.497 347.25 349.756 347.203 350.008C347.099 350.514 346.925 351.004 346.686 351.462C346.266 352.27 345.846 353.046 345.361 353.822C345.037 354.483 344.47 354.993 343.778 355.244C343.067 355.406 342.194 355.923 341.807 355.244C341.425 354.21 341.347 353.089 341.581 352.012C341.759 351.216 342.097 350.464 342.575 349.803C343.052 349.141 343.66 348.584 344.359 348.165Z" fill="#FFB294"/>
<path d="M346.686 370.728L349.013 362.647C348.566 359.439 347.786 356.286 346.686 353.24L343.228 350.299C342.828 349.972 342.35 349.753 341.841 349.663C341.333 349.572 340.809 349.613 340.32 349.781L339.512 350.072C339.137 349.83 338.699 349.701 338.252 349.701C337.805 349.701 337.368 349.83 336.992 350.072L336.443 350.396C336.269 350.506 336.121 350.653 336.009 350.826C335.898 350.999 335.825 351.194 335.796 351.398V351.818L334.892 352.432C334.671 352.575 334.489 352.771 334.365 353.003C334.241 353.235 334.177 353.494 334.181 353.757V355.018L332.921 356.828C332.645 357.792 332.439 358.776 332.307 359.77L330.497 361.321L332.921 366.913L335.667 362.873L335.053 367.851C334.952 368.708 335.038 369.577 335.306 370.398C335.573 371.218 336.017 371.971 336.604 372.603L336.863 372.926L346.686 370.728Z" fill="#FFB294"/>
<path d="M335.409 392.676L349.109 411.36C348.916 403.602 348.528 397.105 348.528 397.105L362.229 406.317L360.355 423.546C359.967 436.703 363.586 447.564 361.647 452.218C358.924 456.251 355.051 459.371 350.531 461.172C348.539 462.034 346.473 462.716 344.359 463.209C344.359 463.209 346.912 448.307 348.269 435.571C348.433 434.098 348.086 432.613 347.286 431.366C346.486 430.118 345.282 429.184 343.875 428.718C341.448 427.902 339.302 426.415 337.684 424.431C336.065 422.446 335.042 420.044 334.73 417.502C333.641 409.243 333.87 400.863 335.409 392.676Z" fill="#162B35"/>
<path d="M347.817 349.038L331.37 361.321L334.665 373.378H336.055L351.598 361.386L349.109 349.038H347.817Z" fill="#1A1A1A"/>
<path d="M349.174 380.716L348.431 371.471L350.758 363.39C350.307 360.172 349.528 357.009 348.431 353.951L344.973 351.042C344.584 350.707 344.112 350.482 343.606 350.391C343.1 350.3 342.579 350.346 342.098 350.525L341.257 350.783C340.885 350.548 340.454 350.423 340.013 350.423C339.573 350.423 339.141 350.548 338.769 350.783L338.22 351.107C338.042 351.215 337.889 351.361 337.772 351.534C337.654 351.707 337.576 351.903 337.541 352.109V352.529L336.637 353.111C336.413 353.261 336.229 353.463 336.099 353.699C335.97 353.935 335.899 354.199 335.893 354.468V355.729L334.181 357.216C333.962 357.409 333.796 357.653 333.696 357.927L333.438 359.802L335.796 359.64L337.38 363.552L336.798 368.562C336.69 369.417 336.77 370.285 337.032 371.106C337.295 371.927 337.733 372.68 338.317 373.314L338.608 373.637L339.06 384.143L349.174 380.716Z" fill="#FFB294"/>
<path d="M332.985 361.548L335.926 373.055H334.762L331.66 361.548H332.985Z" fill="#333333"/>
<path d="M338.64 414.269C342.098 425.033 352.922 425.033 358.222 414.269L365.912 400.919C372.375 386.923 369.144 378.001 361.679 371.277C358.591 374.209 356.167 377.77 354.57 381.718C353.589 384.153 352.885 386.69 352.47 389.282L350.111 374.93C347.332 373.378 337.38 377.613 335.506 380.425C335.312 391.642 335.053 403.214 338.64 414.269Z" fill="#355059"/>
<path d="M352.987 410.584C358.545 399.174 353.989 390.22 354.57 381.783C353.589 384.217 352.885 386.755 352.47 389.347C353.501 396.379 353.675 403.51 352.987 410.584Z" fill="#162B35"/>
<path d="M436.485 181.337L443.723 185.507L446.631 187.188V197.338L443.723 195.657V188.416L436.485 184.247V181.337Z" fill="#ED1C24"/>
<path d="M411.474 177.038V166.888L414.382 168.569L421.621 172.739V175.648L414.382 171.478V178.719L411.474 177.038Z" fill="#ED1C24"/>
<path d="M421.621 205.969L414.382 201.799L411.474 200.118V189.968L414.382 191.649V198.89L421.621 203.06V205.969Z" fill="#ED1C24"/>
<path d="M446.631 210.268V220.418L443.723 218.737L436.485 214.567V211.658L443.723 215.828V208.587L446.631 210.268Z" fill="#ED1C24"/>
<path d="M336.927 344.383L344.166 348.553L347.074 350.234V360.384L344.166 358.703V351.462L336.927 347.292V344.383Z" fill="#ED1C24"/>
<path d="M311.917 340.084V329.934L322.031 335.785V338.694L314.825 334.524V341.765L311.917 340.084Z" fill="#ED1C24"/>
<path d="M322.031 369.015L311.917 363.164V353.014L314.825 354.695V361.935L322.031 366.105V369.015Z" fill="#ED1C24"/>
<path d="M347.074 373.314V383.464L344.166 381.783L336.927 377.613V374.704L344.166 378.874V371.633L347.074 373.314Z" fill="#ED1C24"/>
<path d="M575.69 305.787L582.929 309.957L585.837 311.638V321.788L582.929 320.107V312.867L575.69 308.697V305.787Z" fill="#ED1C24"/>
<path d="M550.68 301.488V291.338L560.794 297.189V300.098L553.588 295.928V303.169L550.68 301.488Z" fill="#ED1C24"/>
<path d="M560.794 330.419L550.68 324.568V314.418L553.588 316.099V323.34L560.794 327.51V330.419Z" fill="#ED1C24"/>
<path d="M585.837 334.718V344.868L582.929 343.187L575.69 339.017V336.108L582.929 340.278V333.037L585.837 334.718Z" fill="#ED1C24"/>
<path d="M585.352 380.102L590.878 382.591L593.624 388.765L592.461 395.844L589.101 399.82H581.959L579.083 382.817L585.352 380.102Z" fill="#FFB294"/>
<path d="M603.965 494.758C603.6 496.92 603.921 499.143 604.883 501.114C605.845 503.085 607.4 504.706 609.329 505.748C611.073 505.572 612.759 505.025 614.275 504.144C615.79 503.263 617.101 502.069 618.118 500.641C624.29 498.443 629.912 496.115 632.626 492.818C634.205 491.355 635.434 489.555 636.223 487.551C637.011 485.548 637.34 483.393 637.183 481.246C637.06 480.614 636.789 480.021 636.393 479.514C635.996 479.008 635.486 478.602 634.903 478.331C634.319 478.059 633.68 477.93 633.037 477.954C632.395 477.977 631.767 478.153 631.205 478.466L616.631 484.737L607.325 479.597L602.058 491.234L603.965 494.758Z" fill="black"/>
<path d="M499.786 526.501C496.713 531.778 494.807 537.653 494.196 543.73C497.321 546.325 501.079 548.043 505.086 548.708L510.967 547.382H518.754C525.799 546.025 529.45 538.008 521.986 535.26L516.169 533.741L514.295 521.393L505.215 519.842L499.786 526.501Z" fill="black"/>
<path d="M498.171 526.177C502.081 532.19 512.712 535.196 516.105 533.677L531.68 500.414L544.185 473.714L559.695 434.407L560.697 431.918L553.911 428.266L535.622 418.374C534.071 423.288 532.197 428.783 530.258 434.763C526.922 444.851 524.139 455.113 521.921 465.504C510.579 488.099 503.212 503.162 498.171 526.177Z" fill="#503227"/>
<path d="M550.454 424.613L553.879 428.266L559.663 434.407L581.475 457.487C584.706 471.128 592.817 484.252 603.868 497.02C613.562 498.831 620.315 490.555 620.315 481.699C611.979 467.108 605.095 451.734 599.764 435.797L582.638 408.386L550.454 424.613Z" fill="#503227"/>
<path d="M526.09 509.11L531.68 500.414L544.185 473.714L559.695 434.407L581.507 457.487C584.738 471.128 592.849 484.252 603.9 497.02C596.112 478.272 589.101 460.235 589.101 447.693L588.357 428.492L560.309 419.667L537.69 407.255L534.459 421.639L530.129 434.763L539.176 444.267C539.693 462.336 534.103 484.834 526.09 509.11Z" fill="#503227"/>
<path d="M534.943 392.87C534.487 402.583 533.036 412.223 530.613 421.639C530.613 421.639 531.292 426.682 539.306 432.565C542.162 434.627 545.214 436.403 548.418 437.866C561.925 444.331 580.214 442.65 589.101 429.914C591.324 426.659 592.863 422.986 593.624 419.118C593.624 419.118 584.253 401.986 584.932 388.539C585.772 372.053 586.451 363.616 581.701 355.632C581.701 355.632 566.934 340.601 559.275 336.237C545.187 328.059 536.979 331.938 536.979 331.938C536.979 331.938 527.834 337.013 527.834 352.206C527.834 360.933 534.814 381.492 534.943 392.87Z" fill="#7D4D3D"/>
<path d="M539.306 432.565C542.162 434.627 545.214 436.403 548.418 437.866C561.925 444.331 580.214 442.65 589.101 429.914L588.357 428.492C575.432 414.463 578.372 400.79 583.995 379.229L560.697 379.035C550.038 395.257 542.763 413.464 539.306 432.565Z" fill="#503227"/>
<path d="M556.302 442.068L552.296 456L549.064 461.14L543.28 464.922H537.528L534.62 463.726L530.743 462.013C528.739 460.752 529.935 459.491 531.421 459.944C530.937 458.554 531.195 457.94 532.649 458.586L535.493 460.59L540.404 459.427C540.792 456.499 541.474 453.619 542.44 450.828C543.621 448.648 545.076 446.627 546.77 444.816L548.612 435.797L557.627 438.092L556.302 442.068Z" fill="#FFB294"/>
<path d="M583.995 379.229L557.886 444.299C555.656 448.533 545.381 445.43 542.828 439.192L561.828 375.221C566.449 356.893 573.299 351.753 578.599 353.822C584.674 359.317 588.551 367.172 583.995 379.229Z" fill="#7D4D3D"/>
<path d="M564.833 334.362L571.296 330.451C574.333 328.867 575.497 323.146 575.981 318.944L576.983 310.119L575.626 304.365L555.075 303.234L549.807 317.295L552.231 330.968L564.833 334.362Z" fill="#FFB294"/>
<path d="M567.289 340.86V329.449L554.364 324.536L548.289 331.292C551.843 337.272 558.823 339.922 567.289 340.86Z" fill="#FFB294"/>
<path d="M571.974 345.999L568.291 339.922C559.437 338.532 550.971 333.684 549.484 330.031L544.605 331.777L553.685 341.151L571.974 345.999Z" fill="#DAECFA"/>
<path d="M579.083 353.402C579.083 353.402 559.405 349.006 547.739 340.86C541.826 336.755 541.277 333.037 541.277 333.037C541.948 332.103 542.846 331.354 543.886 330.862C544.926 330.37 546.074 330.151 547.222 330.225C548.483 337.239 565.156 343.155 571.684 344.674L579.083 353.402Z" fill="#503227"/>
<path d="M576.983 311.541L571.684 315.776C570.818 316.46 570.232 317.437 570.036 318.523L569.325 322.92L566.417 325.118V329.546C564.732 331.178 562.574 332.235 560.253 332.566C557.931 332.897 555.565 332.485 553.491 331.389C547.901 328.77 548.903 327.801 547.933 317.586C547.319 311.121 547.739 304.915 554.137 300.454C559.986 296.413 571.651 297.609 575.82 302.232C577.008 303.441 577.766 305.007 577.976 306.69C578.186 308.372 577.837 310.077 576.983 311.541Z" fill="black"/>
<path d="M565.738 321.821C565.208 322.734 564.929 323.771 564.93 324.827C564.801 325.778 564.995 326.746 565.479 327.574C565.728 327.976 566.117 328.271 566.57 328.403C567.024 328.534 567.511 328.492 567.935 328.285C569.274 326.579 570.002 324.474 570.003 322.305C569.842 320.01 566.837 320.204 565.738 321.821Z" fill="#FFB294"/>
<path d="M668.979 415.368V422.609C669.191 424.808 669.982 426.911 671.27 428.705C672.558 430.5 674.299 431.92 676.314 432.824C681.794 435.596 687.849 437.041 693.99 437.041C700.13 437.041 706.185 435.596 711.665 432.824C713.68 431.92 715.421 430.5 716.709 428.705C717.997 426.911 718.788 424.808 719 422.609V415.368H668.979Z" fill="#BBCAD5"/>
<path d="M693.99 429.817C707.802 429.817 719 423.348 719 415.368C719 407.388 707.802 400.919 693.99 400.919C680.177 400.919 668.979 407.388 668.979 415.368C668.979 423.348 680.177 429.817 693.99 429.817Z" fill="#DAECFA"/>
<path d="M684.812 54.3013V415.53C684.894 416.335 685.189 417.103 685.666 417.756C686.143 418.41 686.785 418.924 687.527 419.247C689.529 420.266 691.743 420.797 693.99 420.797C696.236 420.797 698.45 420.266 700.452 419.247C701.194 418.924 701.836 418.41 702.313 417.756C702.79 417.103 703.085 416.335 703.166 415.53V54.3013H684.812Z" fill="#BBCAD5"/>
<path d="M700.452 50.5516C701.232 50.8168 701.908 51.3195 702.388 51.9891C702.867 52.6586 703.125 53.4615 703.125 54.2851C703.125 55.1086 702.867 55.9115 702.388 56.5811C701.908 57.2507 701.232 57.7534 700.452 58.0186C698.45 59.0377 696.236 59.5689 693.99 59.5689C691.743 59.5689 689.529 59.0377 687.527 58.0186C686.747 57.7534 686.071 57.2507 685.591 56.5811C685.112 55.9115 684.854 55.1086 684.854 54.2851C684.854 53.4615 685.112 52.6586 685.591 51.9891C686.071 51.3195 686.747 50.8168 687.527 50.5516C689.529 49.5325 691.743 49.0013 693.99 49.0013C696.236 49.0013 698.45 49.5325 700.452 50.5516Z" fill="#DAECFA"/>
<path d="M683.455 115.072V125.545L688.625 128.551L690.694 127.452V117.044L685.362 113.94L683.455 115.072Z" fill="#BBCAD5"/>
<path d="M683.455 115.072V125.545L688.625 128.551V117.949L683.455 115.072Z" fill="#DAECFA"/>
<path d="M671.823 127.969L685.33 120.276C686.461 119.662 688.044 122.7 686.945 123.315L672.986 131.525L671.823 127.969Z" fill="#BBCAD5"/>
<path d="M674.375 130.814C674.375 131.511 674.169 132.192 673.782 132.771C673.395 133.351 672.845 133.802 672.201 134.069C671.557 134.336 670.849 134.405 670.166 134.27C669.483 134.134 668.855 133.798 668.363 133.305C667.87 132.812 667.535 132.185 667.399 131.501C667.263 130.818 667.333 130.109 667.599 129.465C667.866 128.822 668.317 128.271 668.896 127.884C669.476 127.497 670.157 127.29 670.853 127.29C671.316 127.29 671.774 127.382 672.201 127.559C672.628 127.736 673.017 127.995 673.344 128.322C673.671 128.65 673.93 129.038 674.107 129.465C674.284 129.893 674.375 130.351 674.375 130.814Z" fill="#848E96"/>
<path d="M669.011 128.26C669.18 128.587 669.452 128.85 669.785 129.008C670.118 129.165 670.493 129.209 670.853 129.133C672.34 129.133 672.533 128.293 672.566 127.711C672.598 127.129 672.566 121.537 672.566 121.537L669.011 128.26Z" fill="#BBCAD5"/>
<path d="M683.649 113.585L656.571 141.998L655.214 142.645L648.492 138.83L647.911 138.055L639.542 133.303L638.992 132.689L670.207 99.9437L671.823 99.2972L679.125 103.564L682.712 107.184L683.294 111.354L682.809 111.839L683.649 113.585Z" fill="#DAECFA"/>
<path d="M683.649 113.585L656.571 141.998L655.214 142.645L648.492 138.83L647.911 138.055L682.712 107.184L683.294 111.354L682.809 111.839L683.649 113.585Z" fill="#575E63"/>
<path d="M638.992 132.689L639.542 133.303L671.823 99.2972L670.207 99.9437L638.992 132.689Z" fill="#BBCAD5"/>
<path d="M679.125 103.564L682.712 107.184L651.594 139.994L646.909 137.473L679.125 103.564Z" fill="#BBCAD5"/>
<path d="M688.625 117.949V128.551L690.694 127.452V117.044L688.625 117.949Z" fill="#575E63"/>
<path d="M203.021 559.31V566.551C202.809 568.75 202.018 570.853 200.73 572.647C199.442 574.441 197.701 575.862 195.686 576.765C190.206 579.538 184.151 580.982 178.011 580.982C171.87 580.982 165.815 579.538 160.335 576.765C158.32 575.862 156.579 574.441 155.291 572.647C154.003 570.853 153.212 568.75 153 566.551V559.31H203.021Z" fill="#BBCAD5"/>
<path d="M160.335 549.096C150.641 554.752 150.641 563.9 160.335 569.525C165.81 572.315 171.866 573.769 178.011 573.769C184.155 573.769 190.211 572.315 195.686 569.525C205.38 563.9 205.38 554.752 195.686 549.096C190.206 546.323 184.151 544.878 178.011 544.878C171.87 544.878 165.815 546.323 160.335 549.096Z" fill="#DAECFA"/>
<path d="M187.155 198.243V559.472C187.09 560.277 186.805 561.049 186.332 561.705C185.86 562.36 185.217 562.873 184.473 563.189C182.47 564.203 180.256 564.732 178.011 564.732C175.765 564.732 173.551 564.203 171.548 563.189C170.808 562.867 170.169 562.352 169.697 561.698C169.225 561.044 168.938 560.275 168.866 559.472V198.243H187.155Z" fill="#BBCAD5"/>
<path d="M171.516 194.461C170.74 194.735 170.068 195.242 169.593 195.914C169.118 196.586 168.863 197.388 168.863 198.211C168.863 199.034 169.118 199.836 169.593 200.508C170.068 201.179 170.74 201.687 171.516 201.961C173.519 202.975 175.733 203.503 177.978 203.503C180.224 203.503 182.437 202.975 184.441 201.961C185.232 201.703 185.921 201.201 186.41 200.528C186.899 199.854 187.162 199.043 187.162 198.211C187.162 197.379 186.899 196.568 186.41 195.894C185.921 195.221 185.232 194.719 184.441 194.461C182.437 193.447 180.224 192.919 177.978 192.919C175.733 192.919 173.519 193.447 171.516 194.461Z" fill="#DAECFA"/>
<path d="M188.512 259.014V269.487L183.375 272.493L181.306 271.426V260.985L186.638 257.915L188.512 259.014Z" fill="#BBCAD5"/>
<path d="M188.512 259.014V269.487L183.375 272.493V261.891L188.512 259.014Z" fill="#DAECFA"/>
<path d="M200.177 272.04L186.67 264.315C185.54 263.701 183.956 266.739 185.055 267.547L199.014 275.725L200.177 272.04Z" fill="#BBCAD5"/>
<path d="M201.147 278.279C203.092 278.279 204.669 276.702 204.669 274.756C204.669 272.81 203.092 271.232 201.147 271.232C199.202 271.232 197.625 272.81 197.625 274.756C197.625 276.702 199.202 278.279 201.147 278.279Z" fill="#848E96"/>
<path d="M183.375 261.891V272.493L181.306 271.426V260.985L183.375 261.891Z" fill="#575E63"/>
<path d="M196.978 274.271C196.916 275.367 197.289 276.443 198.015 277.266C198.74 278.089 199.761 278.592 200.856 278.667C201.416 278.736 201.984 278.69 202.526 278.532C203.068 278.375 203.572 278.109 204.008 277.751C204.444 277.392 204.803 276.949 205.063 276.448C205.323 275.947 205.478 275.398 205.52 274.836C205.562 274.273 205.489 273.707 205.305 273.173C205.122 272.639 204.832 272.148 204.453 271.73C204.075 271.311 203.615 270.974 203.102 270.739C202.589 270.503 202.034 270.374 201.47 270.36C200.917 270.316 200.361 270.382 199.834 270.556C199.308 270.73 198.821 271.007 198.403 271.371C197.984 271.735 197.643 272.18 197.398 272.677C197.154 273.175 197.011 273.717 196.978 274.271Z" fill="#848E96"/>
<path d="M199.208 271.459C199.208 273.204 203.247 273.527 203.28 271.685L203.538 267.386L199.467 267.159L199.208 271.459Z" fill="#BBCAD5"/>
<path d="M197.56 264.606C197.504 265.431 197.694 266.254 198.106 266.97C198.518 267.687 199.134 268.265 199.876 268.63C200.617 268.996 201.45 269.133 202.269 269.023C203.089 268.914 203.857 268.564 204.477 268.017C205.096 267.47 205.54 266.751 205.75 265.951C205.96 265.152 205.928 264.308 205.658 263.526C205.388 262.745 204.891 262.062 204.232 261.563C203.572 261.065 202.78 260.774 201.955 260.727C201.41 260.687 200.864 260.757 200.347 260.931C199.829 261.106 199.352 261.382 198.943 261.743C198.534 262.104 198.201 262.544 197.963 263.035C197.726 263.527 197.589 264.061 197.56 264.606Z" fill="#848E96"/>
<path d="M209.71 266.707L208.999 268.097L200.371 265.22L194.523 261.406L195.137 260.307L209.71 266.707Z" fill="#575E63"/>
<path d="M230.487 250.965L238.856 256.654L238.566 261.729L234.591 266.19L232.588 266.254L231.295 265.769L228.904 270.263L224.962 271.782L197.657 262.699L190.128 257.688L189.223 253.357L191.905 248.346L190.839 247.603L192.939 242.043L197.851 240.201L230.487 250.965Z" fill="#DAECFA"/>
<path d="M224.962 271.782L228.904 270.263L201.47 261.276L197.657 262.699L224.962 271.782Z" fill="#575E63"/>
<path d="M201.47 261.276L197.657 262.699L190.128 257.688L189.223 253.357L191.905 248.346L194.49 243.659L198.174 242.14L205.089 246.795L205.8 251.159L204.087 256.363L201.47 261.276Z" fill="#BBCAD5"/>
<path d="M231.295 265.769L228.904 270.263L201.47 261.276L204.087 256.363L205.154 257.171L231.295 265.769Z" fill="#575E63"/>
<path d="M238.566 261.729L207.125 251.385L205.154 257.171L231.295 265.769L232.588 266.254L234.591 266.19L238.566 261.729Z" fill="#848E96"/>
<path d="M198.174 242.14L197.528 241.752L193.682 243.142L191.905 248.346L194.49 243.659L198.174 242.14Z" fill="#575E63"/>
<path d="M238.566 261.729L238.856 256.654L206.123 245.793L207.125 251.385L238.566 261.729Z" fill="#BBCAD5"/>
<path d="M302.869 297.415L258.761 322.887V272.719L302.869 247.247V297.415Z" fill="white"/>
<path d="M350.176 227.465L307.296 252.225V245.437L350.176 220.676V227.465Z" fill="#575E63"/>
<path d="M332.5 248.928L307.296 263.474V256.719L332.5 242.14V248.928Z" fill="#575E63"/>
<path d="M322.742 259.143L307.296 268.097V271.135L322.742 262.181V259.143Z" fill="#575E63"/>
<path d="M333.664 261.632V258.593L307.296 273.818V276.889L333.664 261.632Z" fill="#575E63"/>
<path d="M350.176 257.85L307.296 282.611V279.572L350.176 254.811V257.85Z" fill="#ED1C24"/>
<path d="M342.97 264.703L307.296 285.326V288.364L342.97 267.741V264.703Z" fill="#575E63"/>
<path d="M337.154 273.818L320.092 283.645V286.716L337.154 276.857V273.818Z" fill="#575E63"/>
<path d="M315.213 286.49L307.296 291.08V294.118L315.213 289.528V286.49Z" fill="#575E63"/>
<path d="M302.223 297.027L259.408 321.756V273.107L302.223 248.379V297.027Z" fill="black"/>
<path d="M297.182 308.858L290.202 311.444L281.478 322.855L288.36 309.925C288.36 309.925 292.141 303.88 292.367 303.913C292.594 303.945 297.182 308.858 297.182 308.858Z" fill="#BBCAD5"/>
<path d="M280.799 323.76L268.682 314.709C268.682 314.709 255.013 329.061 252.525 332.617C250.474 336.413 249.055 340.518 248.324 344.771L313.436 307.145C313.436 307.145 311.852 300.389 309.235 299.872C303.836 299.819 298.44 300.111 293.078 300.745L280.799 323.76Z" fill="#DAECFA"/>
<path d="M280.799 323.825L270.33 316.358L271.105 307.856L271.978 298.417L289.653 288.203L290.525 296.64L291.301 304.236L280.799 323.825Z" fill="#FFB294"/>
<path d="M280.799 309.408C276.081 312.123 272.689 308.988 271.428 304.494L271.978 298.417L289.653 288.203L290.202 293.633C288.942 299.613 285.485 306.66 280.799 309.408Z" fill="#CC8E76"/>
<path d="M280.799 266.578L274.143 272.04L268.682 276.954L267.583 289.399C267.583 289.399 265.418 287.815 264.707 290.886C264.133 293.404 264.489 296.044 265.709 298.32C266.064 298.708 266.387 300.001 267.454 299.226C267.885 298.835 268.217 298.347 268.423 297.803C268.675 299.882 269.405 301.873 270.556 303.622C272.236 305.173 274.789 309.246 280.799 305.723C286.809 302.199 289.395 295.282 291.075 291.791C292.101 289.112 292.817 286.325 293.207 283.483C293.306 283.634 293.451 283.747 293.621 283.806C293.79 283.864 293.975 283.865 294.145 283.807C295.243 283.354 295.566 281.673 295.889 280.897C296.97 278.157 297.326 275.185 296.924 272.267C296.213 270.004 294.048 274.109 294.048 274.109L292.949 262.925L287.488 264.444L280.799 266.578Z" fill="#FFB294"/>
<path d="M280.799 273.366C277.794 275.208 270.814 278.053 269.586 282.514C268.909 285.699 268.68 288.963 268.908 292.211L268.035 292.696C268.035 292.696 267.712 288.72 266.161 289.043C265.625 284.563 266.295 280.022 268.1 275.887C270.753 270.227 275.224 265.619 280.799 262.796C288.264 258.658 290.946 258.981 293.531 261.179C296.116 263.377 295.469 272.137 295.469 272.137C294.339 273.876 293.692 275.884 293.595 277.956L292.723 278.473C292.936 275.477 292.674 272.466 291.947 269.551C290.816 266.481 283.837 271.717 280.799 273.366Z" fill="black"/>
<path d="M264.449 327.768L271.428 322.305L280.153 323.631L273.27 318.814C273.27 318.814 269.49 317.295 269.328 317.295C269.166 317.295 264.449 327.768 264.449 327.768Z" fill="#BBCAD5"/>
<path d="M271.202 306.887C271.202 306.887 270.33 307.404 269.49 310.539C268.741 312.798 267.744 314.966 266.517 317.004C265.967 321.109 265.224 323.469 264.449 327.704C266.816 325.548 269.07 323.271 271.202 320.883L280.896 323.76C278.965 321.259 276.654 319.078 274.046 317.295C273.305 316.666 272.695 315.896 272.252 315.031C271.808 314.166 271.539 313.222 271.461 312.252C271.051 310.494 270.963 308.676 271.202 306.887Z" fill="#BBCAD5"/>
<path d="M290.429 295.799C290.429 295.799 291.301 295.282 292.141 297.448C292.742 298.828 293.789 299.966 295.114 300.68C295.663 304.171 296.406 305.755 297.182 309.02C294.969 309.576 292.707 309.912 290.429 310.022L280.735 323.986C282.767 319.06 285.064 314.247 287.617 309.569C288.956 307.075 289.832 304.359 290.202 301.553C290.651 299.668 290.728 297.714 290.429 295.799Z" fill="#BBCAD5"/>
<path d="M555.592 272.913L513.455 297.254V249.316L555.592 224.976V272.913Z" fill="white"/>
<path d="M586.935 207.617L559.792 223.295V229.76L586.935 214.082V207.617Z" fill="#575E63"/>
<path d="M598.019 218.705L559.792 240.492V234.027L598.019 212.207V218.705Z" fill="#575E63"/>
<path d="M574.56 236.386L559.792 244.888V247.797L574.56 239.263V236.386Z" fill="#575E63"/>
<path d="M584.997 238.714V235.837L559.792 250.383V253.292L584.997 238.714Z" fill="#575E63"/>
<path d="M573.816 249.704V247.765L559.792 255.878V258.787L575.529 249.704H573.816Z" fill="#575E63"/>
<path d="M595.499 238.164V235.255L576.595 246.181H577.855V248.346L595.499 238.164Z" fill="#575E63"/>
<path d="M593.883 241.688L559.792 261.341V264.25L593.883 244.597V241.688Z" fill="#575E63"/>
<path d="M588.325 250.383L572.039 259.757V262.666L588.325 253.26V250.383Z" fill="#575E63"/>
<path d="M572.039 259.757L559.792 266.836V269.745L572.039 262.666V259.757Z" fill="#575E63"/>
<path d="M554.945 272.558L514.101 296.155V249.672L554.945 226.075V272.558Z" fill="black"/>
<path d="M550.163 283.807L543.506 286.296L535.17 297.189L541.632 285.003C541.632 285.003 545.219 279.249 545.445 279.249C545.671 279.249 550.163 283.807 550.163 283.807Z" fill="#BBCAD5"/>
<path d="M534.523 298.126L522.955 289.463C522.955 289.463 510.03 303.169 507.412 306.563C505.438 310.195 504.073 314.126 503.373 318.2L565.673 282.19C565.673 282.19 564.155 275.725 561.667 275.241C556.473 275.191 551.282 275.472 546.124 276.081L534.523 298.126Z" fill="#DAECFA"/>
<path d="M534.523 298.126L524.506 290.983L525.249 282.869L526.09 273.851L542.989 264.121L543.797 272.17L544.54 279.41L534.523 298.126Z" fill="#FFB294"/>
<path d="M534.523 284.356C530.032 286.942 526.768 283.936 525.573 279.669L526.09 273.851L542.957 264.153L543.506 269.358C542.279 274.982 539.047 281.738 534.523 284.356Z" fill="#CC8E76"/>
<path d="M534.523 243.465L528.061 248.799L522.858 253.357L521.792 265.252C521.792 265.252 519.724 263.733 519.045 266.642C518.504 269.063 518.848 271.597 520.015 273.786C520.338 274.142 520.661 275.37 521.695 274.626C522.098 274.25 522.407 273.785 522.6 273.269C522.833 275.261 523.543 277.168 524.668 278.829C526.251 280.316 528.675 284.195 534.362 280.833C540.049 277.471 542.537 270.844 544.056 267.515C545.057 264.967 545.751 262.308 546.124 259.595C546.212 259.747 546.353 259.861 546.52 259.914C546.687 259.968 546.868 259.958 547.029 259.886C548.03 259.466 548.353 257.882 548.677 257.139C549.696 254.518 550.029 251.681 549.646 248.896C548.967 246.73 546.899 250.642 546.899 250.642L545.865 239.974L540.663 241.429L534.523 243.465Z" fill="#FFB294"/>
<path d="M537.044 244.564C536.282 248.406 534.496 251.969 531.874 254.876C528.971 257.802 525.715 260.354 522.18 262.472L522.373 268.388C522.373 268.388 522.05 264.573 520.564 264.897C519.602 262.891 519.057 260.711 518.962 258.488C518.868 256.266 519.226 254.047 520.015 251.967C523.121 246.132 527.89 241.35 533.715 238.229C540.792 234.253 544.25 235.998 546.641 238.229C549.032 240.459 548.515 248.67 548.515 248.67C547.424 250.329 546.789 252.247 546.673 254.23L545.865 254.714C546.307 252.397 546.219 250.01 545.607 247.732C542.343 246.989 539.92 242.948 537.044 244.564Z" fill="black"/>
<path d="M518.916 301.876L525.573 296.672L533.909 297.933L527.447 293.342C526.232 292.746 524.952 292.29 523.634 291.985C523.278 292.243 518.916 301.876 518.916 301.876Z" fill="#BBCAD5"/>
<path d="M525.379 281.964C525.379 281.964 524.506 282.449 523.698 285.423C523.006 287.604 522.063 289.698 520.887 291.662C520.37 295.573 519.659 297.9 518.916 301.876C521.18 299.834 523.337 297.676 525.379 295.411L534.523 298.159C532.71 295.771 530.528 293.687 528.061 291.985C526.632 290.758 525.749 289.014 525.605 287.136C525.203 285.442 525.126 283.687 525.379 281.964Z" fill="#FF364A"/>
<path d="M543.7 271.362C543.7 271.362 544.54 270.877 545.348 272.913C545.947 274.188 546.945 275.232 548.192 275.887C548.715 278.558 549.373 281.202 550.163 283.807C548.047 284.346 545.882 284.671 543.7 284.776L534.523 298.126C536.43 293.424 538.588 288.828 540.986 284.356C542.272 281.977 543.105 279.379 543.442 276.695C543.881 274.952 543.969 273.139 543.7 271.362Z" fill="#FF364A"/>
<path d="M394.897 157.74L351.339 182.889V133.367L394.897 108.219V157.74Z" fill="white"/>
<path d="M419.132 101.657L399.227 113.132V106.441L419.132 94.9657V101.657Z" fill="#575E63"/>
<path d="M431.347 105.73L399.227 124.252V117.561L431.347 99.0386V105.73Z" fill="#575E63"/>
<path d="M405.916 124.931L399.227 128.777V131.784L405.916 127.937V124.931Z" fill="#575E63"/>
<path d="M410.343 122.377V125.383L439.91 108.316V105.31L410.343 122.377Z" fill="#575E63"/>
<path d="M416.127 124.737L399.227 134.467V137.473L416.127 127.711V124.737Z" fill="#575E63"/>
<path d="M421.201 121.795V124.769L439.91 113.973V110.966L421.201 121.795Z" fill="#575E63"/>
<path d="M439.91 119.662L399.227 143.13V140.123L439.91 116.656V119.662Z" fill="#ED1C24"/>
<path d="M432.801 126.418L399.227 145.812V148.819L432.801 129.424V126.418Z" fill="#575E63"/>
<path d="M426.177 135.921L399.227 151.469V154.476L426.177 138.927V135.921Z" fill="#575E63"/>
<path d="M394.251 157.385L352.018 181.758V133.723L394.251 109.35V157.385Z" fill="black"/>
<path d="M365.105 129.004C361.601 131.981 358.924 135.813 357.334 140.128C355.743 144.442 355.292 149.095 356.025 153.635C361.162 180.755 387.304 158.936 390.018 133.982C391.149 121.407 385.3 119.662 380.13 120.438C374.324 121.582 369.049 124.59 365.105 129.004Z" fill="black"/>
<path d="M388.887 162.136L382.134 164.658L373.765 175.713L380.453 163.332C380.453 163.332 384.105 157.482 384.331 157.482C384.557 157.482 388.887 162.136 388.887 162.136Z" fill="#BBCAD5"/>
<path d="M365.137 167.276C365.137 167.276 353.86 179.883 351.501 183.438C349.85 186.537 348.829 189.932 348.496 193.427L373.118 179.236L397.741 164.981C397.741 164.981 397.127 159.292 394.736 158.516C390.21 157.995 385.65 157.843 381.1 158.064L365.137 167.276Z" fill="#355059"/>
<path d="M373.118 174C369.047 176.456 365.008 175.131 365.137 167.276L365.137 160.1L366.85 153.409L373.312 149.304L379.613 146.071L381.326 150.823V157.999C381.48 161.152 380.803 164.289 379.362 167.098C377.922 169.906 375.768 172.286 373.118 174Z" fill="#FFB294"/>
<path d="M373.118 166.274C368.982 168.666 365.977 165.434 364.846 161.005L365.363 156.059L373.118 151.114L380.873 147.073L381.391 151.469C380.26 157.191 377.254 163.882 373.118 166.274Z" fill="#CC8E76"/>
<path d="M373.118 133.044C369.628 135.404 365.815 138.41 362.067 141.319L361.356 150.112C361.356 150.112 360.225 148.14 359.256 151.146C358.975 152.029 358.887 152.963 358.999 153.883C359.11 154.803 359.418 155.689 359.902 156.48C360.193 156.868 360.484 158.161 361.421 157.417C361.816 157.073 362.107 156.625 362.261 156.124C362.457 157.875 363.103 159.545 364.135 160.973C365.255 162.191 366.763 162.983 368.401 163.213C370.039 163.443 371.707 163.097 373.118 162.233C376.079 159.998 378.565 157.194 380.429 153.986C382.293 150.778 383.499 147.23 383.976 143.55C384.202 143.873 384.46 144.067 384.816 143.938C385.753 143.55 386.044 141.934 386.334 141.222C386.625 140.511 387.853 136.729 386.981 135.113C386.108 133.497 384.88 136.503 384.88 136.503L384.493 132.236C384.493 130.038 382.618 129.004 380.356 130.006C378.095 131.008 375.413 131.978 373.118 133.044Z" fill="#FFB294"/>
<path d="M381.132 129.812C372.214 138.992 368.659 153.7 356.832 154.669C355.895 141.158 370.016 127.29 381.132 129.812Z" fill="black"/>
<path d="M362.067 156.803C362.034 157.081 361.939 157.347 361.787 157.582C361.636 157.818 361.434 158.015 361.195 158.161C360.742 158.419 360.355 158.161 360.355 157.773C360.384 157.502 360.475 157.242 360.621 157.012C360.766 156.782 360.963 156.589 361.195 156.447C361.679 156.156 362.067 156.318 362.067 156.803Z" fill="white"/>
<path d="M385.914 143.033C385.881 143.31 385.786 143.577 385.635 143.812C385.483 144.047 385.281 144.245 385.042 144.39C384.59 144.649 384.202 144.39 384.202 144.002C384.235 143.729 384.328 143.466 384.473 143.231C384.618 142.997 384.812 142.797 385.042 142.645C385.656 142.386 385.914 142.548 385.914 143.033Z" fill="white"/>
<defs>
<linearGradient id="paint0_linear_46_161" x1="563.221" y1="54.8687" x2="563.221" y2="754.122" gradientUnits="userSpaceOnUse">
<stop stop-color="#D3FFD5"/>
<stop offset="1" stop-color="#3AE5FF" stop-opacity="0"/>
</linearGradient>
</defs>
</svg>
