<svg width="131" height="122" viewBox="0 0 131 122" fill="none" xmlns="http://www.w3.org/2000/svg">
<g clip-path="url(#clip0_349_22)">
<path d="M107.444 33.6715C106.225 33.6087 104.992 33.5877 103.773 33.469C101.947 33.2587 100.265 32.3757 99.0569 30.9929C97.8493 29.6102 97.203 27.8274 97.2448 25.9942C97.2448 22.8575 97.2448 19.7069 97.2448 16.5982C97.2448 16.1721 97.2448 15.753 97.2098 15.3338C97.2098 12.7491 97.2098 10.1643 97.2588 7.57958C97.2176 6.10293 97.6214 4.6479 98.4181 3.40255C99.2148 2.15721 100.368 1.17879 101.728 0.593781C102.449 0.241474 103.237 0.0462 104.039 0.0209401C109.013 -0.0279605 113.986 0.0209401 118.952 0.0209401C119.795 0.337939 120.618 0.704169 121.418 1.11772C122.43 1.64877 123.279 2.44258 123.875 3.41524C124.472 4.3879 124.794 5.50327 124.808 6.64349C124.885 13.3499 124.85 20.0562 124.808 26.7556C124.801 27.5872 124.62 28.4081 124.276 29.1657C123.859 30.1117 123.247 30.9592 122.48 31.6527C121.712 32.3461 120.806 32.8699 119.821 33.1895C119.674 33.2384 119.582 33.455 119.463 33.6017H114.56C114.056 33.6017 113.552 33.6017 113.054 33.6436L107.444 33.6715ZM112.27 15.6761L112.767 15.9695L112.277 16.2769C110.268 16.6391 108.416 17.6 106.965 19.0329C105.515 20.4658 104.534 22.3034 104.151 24.3036C104.102 24.4991 104.094 24.7026 104.128 24.9013C104.162 25.0999 104.237 25.2894 104.349 25.4576C104.46 25.6257 104.605 25.769 104.775 25.8782C104.945 25.9874 105.136 26.0602 105.335 26.092C105.662 26.1822 105.998 26.2314 106.337 26.2386H118.945C120.136 26.2386 121.327 26.3365 122.51 26.2945C123.694 26.2526 124.311 25.4074 124.086 24.1569C123.491 20.9225 121.551 18.687 118.749 17.1711C117.697 16.6917 116.611 16.2924 115.499 15.9765C116.636 15.6478 117.626 14.9414 118.305 13.9745C118.984 13.0075 119.311 11.8382 119.232 10.6603C119.179 9.86732 118.936 9.09853 118.525 8.41799C118.113 7.73745 117.544 7.16485 116.866 6.74793C116.187 6.331 115.419 6.08182 114.624 6.02112C113.83 5.96042 113.032 6.08997 112.298 6.39898C111.876 6.58479 111.468 6.80196 111.079 7.04865C110.434 7.50408 109.913 8.11209 109.562 8.81808C109.211 9.52407 109.042 10.3059 109.069 11.0934C109.063 12.0933 109.368 13.0703 109.941 13.8907C110.514 14.7111 111.327 15.3347 112.27 15.6761Z" fill="#4C4F6E"/>
<path d="M107.444 33.6716H113.047C113.047 54.3495 113.047 75.0298 113.047 95.7125C113.047 101.406 113.047 107.092 113.047 112.786C113.122 114.891 112.48 116.959 111.226 118.654C110.682 119.349 110.029 119.953 109.293 120.442C107.86 121.497 106.113 122.038 104.333 121.979C103.15 121.909 101.952 121.979 100.761 121.979C100.845 121.895 100.915 121.756 101.013 121.735C102.661 121.345 104.143 120.448 105.251 119.171C105.935 118.488 106.478 117.678 106.848 116.786C107.218 115.894 107.409 114.939 107.408 113.973C107.408 87.4646 107.408 60.9535 107.408 34.44L107.444 33.6716Z" fill="#AAE2E4"/>
<path d="M32.7115 15.5923C32.7115 15.9276 32.7115 16.2909 32.7115 16.6053V71.4648H27.1078C27.1078 68.2164 27.1078 64.9749 27.1078 61.7265C27.1078 61.3982 27.353 60.9441 26.8346 60.7346C27.1165 60.1207 27.1974 59.4338 27.0658 58.7715V48.9425C27.196 48.2766 27.1102 47.5865 26.8206 46.9725C26.9187 46.8119 27.1008 46.6512 27.1008 46.4905C27.1008 43.8313 27.1008 41.172 27.1008 38.5127C27.1008 38.3521 26.9187 38.1914 26.8206 38.0307C27.1102 37.4167 27.196 36.7267 27.0658 36.0607V26.2317C27.2009 25.5672 27.1199 24.8771 26.8346 24.2617C27.3039 24.101 27.1078 23.6959 27.1078 23.3955C27.1078 20.7269 27.1078 18.0583 27.1078 15.3828H32.4593L32.7115 15.5923Z" fill="#027B95"/>
<path d="M32.7115 15.5923L32.4803 15.3757C32.5164 15.3529 32.5569 15.338 32.5991 15.332C32.6414 15.326 32.6845 15.329 32.7255 15.3408L32.7115 15.5923Z" fill="#30DCE4"/>
<path d="M32.7115 82.6909C32.7115 85.3246 32.7115 87.9512 32.7115 90.5849C32.7115 97.0491 32.7115 103.506 32.7115 109.957C32.7115 110.257 32.7115 110.55 32.7115 110.851C32.7115 111.151 32.4873 111.507 32.0811 111.5C30.435 111.5 28.7819 111.451 27.1288 111.417C27.1288 111.417 27.0728 111.354 27.0448 111.326C27.0448 106.953 27.0564 102.582 27.0798 98.2134C27.0798 96.8581 27.0798 95.4959 27.0798 94.1407C27.0289 93.8797 26.9392 93.6277 26.8136 93.3932C27.09 92.7777 27.1683 92.0919 27.0377 91.4302C27.0377 88.9502 27.0377 86.4772 27.0938 83.9973C27.0938 83.4943 27.0938 82.9913 27.0938 82.4883H32.4453L32.7115 82.6909Z" fill="#027B95"/>
<path d="M12.4892 71.6673C11.6306 71.8838 10.8349 72.2981 10.1659 72.8768C9.49681 73.4555 8.97308 74.1825 8.63667 74.9995C8.36073 75.6903 8.22891 76.43 8.24928 77.1733C8.26966 77.9167 8.44179 78.648 8.75515 79.3228C9.06852 79.9975 9.51655 80.6015 10.0719 81.0977C10.6272 81.5939 11.2781 81.972 11.9849 82.2089C11.778 82.3132 11.5557 82.384 11.3264 82.4184C10.0026 82.4184 8.6857 82.4184 7.36184 82.4184C6.83691 82.4361 6.31442 82.3396 5.83061 82.1357C5.34679 81.9319 4.91323 81.6255 4.56 81.2378C3.85954 80.4694 3.02599 79.8407 2.7318 78.7299C1.91926 75.6213 3.43226 72.3309 6.77345 71.6813C8.64781 71.4092 10.5485 71.367 12.4332 71.5555C12.4332 71.5555 12.4892 71.6254 12.4892 71.6673Z" fill="#027B95"/>
<path d="M27.0588 91.4301C27.1893 92.0918 27.111 92.7776 26.8346 93.3931C26.5191 93.6723 26.1509 93.8858 25.7516 94.0214C25.3523 94.1569 24.9299 94.2117 24.5091 94.1825C21.6162 94.1406 18.7233 94.1825 15.8234 94.1825C15.3799 94.2304 14.9337 94.1198 14.5643 93.8703C14.1949 93.6209 13.9262 93.2488 13.8061 92.8203C13.6944 92.5471 13.652 92.2507 13.6825 91.9573C13.7131 91.6639 13.8156 91.3826 13.9811 91.1381C14.1466 90.8936 14.37 90.6935 14.6314 90.5556C14.8929 90.4177 15.1844 90.3462 15.4802 90.3473C16.1806 90.3124 16.8391 90.3473 17.5185 90.3473C19.816 90.3473 22.1205 90.3962 24.418 90.3473C24.9154 90.269 25.4249 90.3285 25.8906 90.5195C26.3564 90.7105 26.7605 91.0255 27.0588 91.4301Z" fill="#EBF4F9"/>
<path d="M26.8206 46.9726C27.1102 47.5866 27.196 48.2766 27.0658 48.9425C26.7676 49.3573 26.3612 49.6827 25.8908 49.8834C25.4203 50.0842 24.9037 50.1526 24.397 50.0812C21.4621 50.0114 18.5272 50.0393 15.5992 50.0812C15.2171 50.1164 14.8339 50.0254 14.5086 49.8222C14.1834 49.619 13.9341 49.3148 13.7991 48.9565C13.6804 48.6534 13.6378 48.3259 13.6749 48.0026C13.7121 47.6792 13.8278 47.3699 14.0122 47.1013C14.1965 46.8328 14.4438 46.6132 14.7326 46.4617C15.0214 46.3102 15.343 46.2314 15.6693 46.2321C16.818 46.1832 17.9668 46.2321 19.1155 46.2321C20.9017 46.2321 22.6879 46.267 24.4741 46.2321C24.8953 46.186 25.3216 46.228 25.7256 46.3555C26.1297 46.483 26.5026 46.6932 26.8206 46.9726Z" fill="#E9F4F9"/>
<path d="M27.0588 58.7715C27.1904 59.4338 27.1095 60.1207 26.8276 60.7345C26.5136 61.0135 26.1465 61.2266 25.7482 61.361C25.3498 61.4955 24.9284 61.5485 24.5091 61.5169C21.6582 61.482 18.7933 61.482 15.9915 61.482C15.5264 61.522 15.0611 61.4064 14.6692 61.1534C14.2773 60.9004 13.981 60.5244 13.8271 60.0848C13.7309 59.8306 13.6934 59.558 13.7173 59.2873C13.7412 59.0166 13.826 58.7548 13.9653 58.5212C14.1046 58.2877 14.2948 58.0884 14.5219 57.9383C14.749 57.7881 15.0071 57.6909 15.277 57.6538C15.5732 57.6329 15.8705 57.6329 16.1666 57.6538C18.9334 57.6538 21.6932 57.6957 24.453 57.6538C24.9482 57.5867 25.4523 57.6553 25.9114 57.8522C26.3704 58.0491 26.7671 58.3669 27.0588 58.7715Z" fill="#EAF4F9"/>
<path d="M26.8276 24.2617C27.1129 24.8771 27.1939 25.5672 27.0588 26.2317C26.7636 26.6475 26.3585 26.9735 25.8885 27.1733C25.4186 27.3731 24.9022 27.4389 24.397 27.3634C21.5111 27.3005 18.6182 27.3634 15.7253 27.3634C15.3237 27.4084 14.9184 27.3224 14.5698 27.1184C14.2213 26.9144 13.9485 26.6033 13.7921 26.2317C13.6774 25.9276 13.6386 25.6002 13.6789 25.2778C13.7193 24.9554 13.8376 24.6476 14.0237 24.3809C14.2097 24.1142 14.458 23.8966 14.7471 23.7469C15.0363 23.5971 15.3575 23.5197 15.6833 23.5212C17.0422 23.4793 18.4081 23.5212 19.767 23.5212C21.336 23.5212 22.912 23.5561 24.4811 23.5212C24.9023 23.476 25.3283 23.5184 25.7323 23.6459C26.1362 23.7733 26.5092 23.983 26.8276 24.2617Z" fill="#EAF4F9"/>
<path d="M6.3952 60.2385C6.3952 58.4851 6.72442 57.8633 7.79612 57.6817C8.24759 57.5783 8.72142 57.6444 9.12714 57.8673C9.53285 58.0902 9.84201 58.4544 9.99557 58.8903C10.1678 59.3374 10.1589 59.8339 9.97063 60.2745C9.78238 60.7152 9.42958 61.0656 8.9869 61.2515C8.28644 61.6706 7.35483 61.6706 6.3952 60.2385Z" fill="#AAE2E4"/>
<path d="M6.43022 37.5976C6.36017 35.8651 6.68939 35.2014 7.71206 34.9779C8.16249 34.8682 8.63736 34.9218 9.05183 35.1291C9.46629 35.3364 9.79334 35.6839 9.97454 36.1096C10.1582 36.5512 10.1655 37.0463 9.99486 37.4931C9.82424 37.94 9.48866 38.3047 9.05694 38.5127C8.13934 39.0716 7.50892 38.855 6.43022 37.5976Z" fill="#AAE2E4"/>
<path d="M6.43022 92.967C6.36018 91.2345 6.68239 90.5639 7.70506 90.3473C8.15484 90.2334 8.63064 90.2834 9.04673 90.4883C9.46283 90.6932 9.79186 91.0396 9.97455 91.4651C10.1586 91.9077 10.166 92.4038 9.99548 92.8518C9.82492 93.2998 9.48918 93.6658 9.05695 93.8751C8.13935 94.441 7.51594 94.2244 6.43022 92.967Z" fill="#AAE2E4"/>
<path d="M6.43022 24.7018C7.50893 23.4444 8.13934 23.2208 9.05694 23.7797C9.488 23.9903 9.82265 24.3564 9.99304 24.804C10.1634 25.2515 10.1568 25.7469 9.97455 26.1898C9.79326 26.615 9.46587 26.9619 9.05118 27.1681C8.63649 27.3742 8.16169 27.4261 7.71206 27.3145C6.68239 27.0979 6.36017 26.4343 6.43022 24.7018Z" fill="#AAE2E4"/>
<path d="M6.41621 47.3847C7.59299 46.1063 8.21639 45.9246 9.134 46.5394C9.5599 46.7635 9.88361 47.1418 10.0386 47.5965C10.1936 48.0512 10.1682 48.5478 9.96755 48.9844C9.76149 49.377 9.43207 49.6914 9.02975 49.8794C8.62743 50.0674 8.17441 50.1186 7.74008 50.0253C6.7034 49.8227 6.37419 49.18 6.41621 47.3847Z" fill="#AAE2E4"/>
<path d="M95.1435 67.6086C92.7549 67.6086 90.3733 67.6505 87.9848 67.6086C87.5717 67.6194 87.1607 67.5455 86.7774 67.3915C86.394 67.2376 86.0465 67.0067 85.7562 66.7133C85.466 66.4199 85.2393 66.0702 85.09 65.6859C84.9408 65.3016 84.8723 64.8908 84.8887 64.4789C84.8887 56.9552 84.8887 49.4245 84.8887 41.9008C84.8933 41.4819 84.9807 41.068 85.1459 40.6828C85.3111 40.2976 85.5509 39.9487 85.8515 39.656C86.1521 39.3633 86.5076 39.1327 86.8977 38.9773C87.2878 38.8218 87.7048 38.7447 88.1249 38.7502C90.5485 38.848 92.9791 38.7502 95.4097 38.7502C95.7529 38.9668 96.1101 39.1833 96.4393 39.4488C97.5531 40.2172 97.6721 41.4677 97.6861 42.5994C97.7492 49.6551 97.7282 56.7177 97.6861 63.7734C97.68 64.5602 97.4982 65.3358 97.1538 66.0437C96.7405 66.9449 95.914 67.1894 95.1435 67.6086Z" fill="#AE66D9"/>
<path d="M66.5227 49.9624H56.5551C53.5782 49.9624 50.5942 49.9974 47.6102 49.9624C46.8555 49.9665 46.11 49.7968 45.4318 49.4664C44.9009 49.1885 44.4614 48.7641 44.1658 48.2438C43.8702 47.7236 43.731 47.1295 43.7647 46.5324C43.7647 45.0864 43.7647 43.6403 43.7647 42.2012C43.7772 41.7785 43.8503 41.3598 43.9819 40.9577C44.1475 40.3159 44.5282 39.7499 45.0608 39.3535C45.5933 38.957 46.2457 38.7541 46.9098 38.7782C50.23 38.7782 53.5571 38.7782 56.8773 38.7782H66.7748C66.8449 38.869 66.8939 39.0087 66.992 39.0506C68.3579 39.5885 68.8272 40.6504 68.8132 42.0266C68.8132 43.6403 68.8132 45.247 68.8132 46.8538C68.829 47.3989 68.6917 47.9375 68.417 48.4091C68.1422 48.8806 67.7409 49.2662 67.2581 49.5223L66.5227 49.9624Z" fill="#02F1A6"/>
<path d="M66.7748 67.6155C60.1765 67.6155 53.5782 67.6155 46.9798 67.6155C46.565 67.6211 46.1531 67.5451 45.7677 67.3918C45.3823 67.2386 45.0309 67.0112 44.7337 66.7225C44.4364 66.4338 44.1991 66.0896 44.0352 65.7094C43.8714 65.3292 43.7842 64.9206 43.7787 64.5069C43.6561 62.8558 43.6561 61.198 43.7787 59.547C43.9959 57.4931 45.0746 56.6898 46.8327 56.4103C46.919 56.4033 47.0057 56.4033 47.0919 56.4103H67.013C67.124 56.6049 67.258 56.7855 67.4123 56.9482C67.8855 57.2629 68.2652 57.6987 68.5117 58.21C68.7581 58.7212 68.8623 59.2892 68.8132 59.8543C68.7221 61.2873 68.7221 62.7246 68.8132 64.1576C68.8696 64.6584 68.7955 65.1652 68.5979 65.6291C68.4004 66.0929 68.0861 66.498 67.6854 66.8052C67.3842 67.0707 67.083 67.3501 66.7748 67.6155Z" fill="#FD5CA7"/>
<path d="M95.1435 67.6086C95.886 67.1894 96.7125 66.9449 97.1398 66.0507C97.4842 65.3428 97.666 64.5672 97.6721 63.7804C97.6721 56.7247 97.7212 49.6621 97.6721 42.6064C97.6721 41.4747 97.539 40.2242 96.4253 39.4558C96.0891 39.2253 95.7248 39.0087 95.3956 38.7572C97.0557 38.7572 98.7298 38.848 100.376 38.7083C101.917 38.5756 103.64 40.3151 103.605 41.9427C103.542 45.2121 103.605 48.4815 103.605 51.7229C103.605 55.8445 103.605 59.9638 103.605 64.0807C103.605 66.2394 102.302 67.5736 100.159 67.5736C98.4917 67.6435 96.8316 67.6156 95.1435 67.6086Z" fill="#9857BC"/>
<path d="M60.2395 111.284H46.8117C46.4685 111.284 46.1113 111.284 45.789 111.284C45.5554 111.304 45.32 111.276 45.0981 111.2C44.8762 111.124 44.6728 111.002 44.5011 110.843C44.3294 110.683 44.1932 110.49 44.1013 110.275C44.0095 110.059 43.964 109.827 43.9679 109.593C43.9162 109.086 44.0653 108.579 44.3832 108.179C44.7011 107.78 45.1629 107.52 45.67 107.456C45.9661 107.435 46.2634 107.435 46.5596 107.456H74.8301C75.0951 107.451 75.3582 107.502 75.6028 107.603C75.8475 107.705 76.0684 107.856 76.2519 108.047C76.4353 108.238 76.5773 108.464 76.6689 108.712C76.7605 108.96 76.7998 109.225 76.7844 109.488C76.7844 110.669 76.119 111.291 74.8231 111.298C71.5029 111.298 68.1827 111.298 64.8626 111.298L60.2395 111.284Z" fill="#31DCE4"/>
<path d="M102.036 86.8475C101.819 89.4741 101.336 91.6746 99.4443 93.3722C98.1433 94.5292 96.5071 95.2436 94.7722 95.412C93.0911 95.6216 91.389 95.6146 89.7009 95.6985C89.0005 95.6835 88.3053 95.8214 87.6641 96.1026C87.0228 96.3838 86.4509 96.8014 85.9884 97.3261C85.6483 97.7586 85.357 98.2272 85.1199 98.7233C84.9609 99.0997 84.6752 99.409 84.312 99.5978C83.9488 99.7865 83.531 99.8429 83.1306 99.7572C82.7562 99.7107 82.4047 99.5524 82.1221 99.3031C81.8396 99.0537 81.6393 98.725 81.5475 98.3601C81.4567 98.0522 81.4567 97.7248 81.5475 97.417C81.9383 96.1397 82.6561 94.9861 83.6302 94.0698C84.6042 93.1535 85.8009 92.5061 87.1022 92.1916C87.8427 92.022 88.5982 91.926 89.3577 91.9052C90.9197 91.8004 92.4887 91.7724 94.0507 91.6397C94.5924 91.6229 95.1251 91.4981 95.6177 91.2728C96.1102 91.0475 96.5526 90.7262 96.9188 90.3278C97.2849 89.9294 97.5675 89.462 97.7498 88.9531C97.9321 88.4442 98.0105 87.904 97.9803 87.3644C97.9803 87.1059 97.9803 86.8475 97.9803 86.596C98.0132 86.1284 98.2115 85.6877 98.5399 85.3525C98.8684 85.0172 99.3056 84.8092 99.7735 84.7657C100.238 84.675 100.719 84.771 101.113 85.0327C101.506 85.2944 101.78 85.7006 101.875 86.1628C101.94 86.3882 101.994 86.6167 102.036 86.8475Z" fill="#FD5EA8"/>
<path d="M46.5105 91.2905C46.5105 88.0211 46.5105 84.7517 46.5105 81.4754C46.4915 80.9768 46.6 80.4816 46.8257 80.0363C46.9999 79.7141 47.2747 79.4572 47.6083 79.3047C47.942 79.1522 48.3165 79.1123 48.675 79.1911C49.1124 79.2864 49.5093 79.5152 49.8105 79.8457C50.1118 80.1762 50.3024 80.5919 50.3561 81.0353C50.3701 81.2912 50.3701 81.5478 50.3561 81.8037C50.3561 88.2167 50.3561 94.6297 50.3561 101.043C50.373 101.502 50.3066 101.962 50.1599 102.398C50.0102 102.799 49.7263 103.136 49.3562 103.352C48.9861 103.569 48.5525 103.651 48.1286 103.585C47.6858 103.514 47.2818 103.291 46.9864 102.954C46.691 102.617 46.5227 102.188 46.5105 101.741C46.5105 98.2483 46.5105 94.7554 46.5105 91.2625V91.2905Z" fill="#05C7DC"/>
<path d="M65.479 93.6935C65.479 96.2014 65.479 98.7023 65.479 101.21C65.4852 101.673 65.397 102.131 65.2198 102.559C65.0393 102.923 64.7449 103.219 64.381 103.401C64.0171 103.584 63.6034 103.644 63.2025 103.571C62.7802 103.499 62.3954 103.285 62.1114 102.965C61.8274 102.645 61.6613 102.238 61.6405 101.811C61.6124 96.3761 61.6124 90.9411 61.6405 85.5062C61.6241 85.2716 61.6564 85.0362 61.7353 84.8147C61.8142 84.5931 61.938 84.3901 62.099 84.2184C62.26 84.0467 62.4548 83.9099 62.6711 83.8166C62.8875 83.7232 63.1208 83.6753 63.3566 83.6759C63.8458 83.6285 64.3348 83.768 64.7248 84.0662C65.1149 84.3644 65.3769 84.7992 65.458 85.2826C65.486 85.622 65.486 85.9632 65.458 86.3026L65.479 93.6935Z" fill="#037397"/>
<path d="M66.5227 49.9625L67.2582 49.5224C67.7409 49.2662 68.1423 48.8806 68.417 48.4091C68.6918 47.9376 68.829 47.3989 68.8132 46.8538C68.8132 45.2471 68.8132 43.6403 68.8132 42.0266C68.8132 40.6294 68.3579 39.5886 66.992 39.0507C66.8939 39.0087 66.8449 38.869 66.7748 38.7782C68.4279 38.7782 70.088 38.7293 71.7411 38.7782C72.5738 38.7798 73.373 39.1056 73.9684 39.6863C74.5637 40.267 74.9081 41.0566 74.9282 41.8869C74.9772 43.5006 74.9912 45.1073 74.9282 46.7211C74.9376 47.5766 74.6082 48.4014 74.0114 49.0161C73.4147 49.6309 72.5988 49.986 71.7411 50.0044C70.004 50.0742 68.2598 49.9764 66.5227 49.9625Z" fill="#07E39C"/>
<path d="M19.6829 111.354C18.6252 111.354 17.5815 111.291 16.5098 111.291C13.708 111.291 10.9062 111.347 8.10432 111.256C4.64405 111.137 2.2905 109.293 0.763501 106.282C0.490322 105.737 0.252166 105.178 -0.00700378 104.626V21.9633C0.155443 21.6883 0.295966 21.401 0.413271 21.1041C0.961321 19.4297 2.02887 17.9725 3.46171 16.9428C4.89454 15.9131 6.61848 15.3643 8.3845 15.3757C14.6326 15.3757 20.8807 15.3757 27.1288 15.3757C27.1288 18.0513 27.1288 20.7199 27.1288 23.3884C27.1288 23.6888 27.3249 24.087 26.8556 24.2547C26.5434 23.9734 26.1763 23.7594 25.7774 23.626C25.3785 23.4926 24.9563 23.4426 24.5371 23.4793C22.9681 23.5282 21.392 23.4793 19.823 23.4793C18.4641 23.4793 17.0982 23.4443 15.7393 23.4793C15.4136 23.4777 15.0923 23.5552 14.8032 23.7049C14.5141 23.8547 14.2658 24.0723 14.0797 24.339C13.8936 24.6057 13.7753 24.9134 13.735 25.2359C13.6946 25.5583 13.7334 25.8856 13.8481 26.1897C14.0045 26.5614 14.2774 26.8725 14.6259 27.0765C14.9744 27.2805 15.3798 27.3664 15.7814 27.3214C18.6743 27.3214 21.5672 27.2725 24.4531 27.3214C24.9539 27.3916 25.4644 27.3231 25.9289 27.1235C26.3934 26.924 26.7939 26.6009 27.0868 26.1897V36.0188C26.7862 35.604 26.3742 35.2823 25.8984 35.0907C25.4225 34.8992 24.9021 34.8455 24.397 34.936C22.4918 35.0058 20.5725 34.936 18.6603 34.936C17.5535 34.936 16.4468 34.936 15.3471 34.936C15.0757 34.9437 14.8099 35.0147 14.571 35.1434C14.3321 35.272 14.1268 35.4547 13.9715 35.6769C13.8162 35.899 13.7153 36.1543 13.6768 36.4223C13.6384 36.6904 13.6634 36.9637 13.75 37.2203C13.8643 37.6956 14.1471 38.1136 14.5462 38.3974C14.9452 38.6811 15.4337 38.8114 15.9215 38.7642C18.7723 38.7642 21.6232 38.7642 24.4671 38.7642C24.8871 38.7976 25.3095 38.7462 25.7091 38.613C26.1087 38.4797 26.4772 38.2674 26.7926 37.9888C26.8907 38.1494 27.0728 38.3101 27.0728 38.4708C27.0728 41.1254 27.0728 43.7846 27.0728 46.4486C27.0728 46.6092 26.8907 46.7699 26.7926 46.9306C26.4808 46.6486 26.1138 46.4342 25.7148 46.3007C25.3157 46.1673 24.8933 46.1177 24.4741 46.1552C22.6879 46.2041 20.9017 46.1552 19.1155 46.1552C17.9668 46.1552 16.818 46.1132 15.6693 46.1552C15.343 46.1545 15.0214 46.2333 14.7326 46.3848C14.4438 46.5363 14.1965 46.7559 14.0122 47.0244C13.8279 47.293 13.7121 47.6024 13.6749 47.9257C13.6378 48.249 13.6804 48.5765 13.7991 48.8796C13.9341 49.2379 14.1834 49.5421 14.5086 49.7453C14.8339 49.9485 15.2171 50.0395 15.5992 50.0043C18.5272 50.0043 21.4621 49.9485 24.397 50.0043C24.8993 50.0704 25.4101 49.9993 25.8751 49.7988C26.3401 49.5983 26.7419 49.2758 27.0377 48.8656V58.6947C26.7356 58.2957 26.33 57.9866 25.8646 57.8007C25.3992 57.6148 24.8918 57.5592 24.397 57.6398C21.6372 57.7027 18.8774 57.6398 16.1106 57.6398C15.8144 57.6189 15.5172 57.6189 15.221 57.6398C14.9518 57.6801 14.6952 57.7802 14.4701 57.9328C14.2449 58.0854 14.0572 58.2866 13.9206 58.5214C13.784 58.7562 13.7022 59.0187 13.6812 59.2893C13.6601 59.5599 13.7004 59.8318 13.7991 60.0848C13.9541 60.5295 14.2547 60.9091 14.6524 61.1625C15.0501 61.416 15.5218 61.5285 15.9915 61.482C18.8424 61.482 21.6862 61.482 24.5371 61.482C24.9564 61.5136 25.3779 61.4605 25.7762 61.3261C26.1746 61.1917 26.5417 60.9786 26.8556 60.6996C27.374 60.9092 27.1218 61.3632 27.1288 61.6916C27.1288 64.94 27.1288 68.1814 27.1288 71.4298C23.1782 71.4298 19.2276 71.4298 15.284 71.4298C14.3594 71.4298 13.4418 71.5485 12.5242 71.6184C12.5242 71.5765 12.4822 71.5136 12.4542 71.5136C10.5695 71.3251 8.66882 71.3673 6.79446 71.6394C3.45327 72.289 1.94027 75.5794 2.75281 78.688C3.047 79.8197 3.88755 80.4275 4.58101 81.1959C4.93425 81.5836 5.36781 81.89 5.85162 82.0938C6.33543 82.2977 6.85792 82.3942 7.38285 82.3765C8.70672 82.3765 10.0236 82.3765 11.3474 82.3765C11.5767 82.3421 11.799 82.2713 12.0059 82.1669C12.8394 82.2508 13.673 82.3905 14.5065 82.3975C18.7093 82.4324 22.912 82.4324 27.1148 82.4464C27.1148 82.9494 27.1148 83.4524 27.1148 83.9553C27.1148 86.4353 27.0728 88.9083 27.0588 91.3882C26.7596 90.9788 26.3524 90.6602 25.8825 90.4678C25.4126 90.2754 24.8983 90.2167 24.397 90.2984C22.0995 90.3683 19.795 90.2984 17.4975 90.2984C16.797 90.2984 16.1386 90.2984 15.4592 90.2984C15.1634 90.2973 14.8719 90.3688 14.6104 90.5067C14.349 90.6447 14.1256 90.8447 13.9601 91.0892C13.7946 91.3336 13.692 91.615 13.6615 91.9084C13.631 92.2018 13.6734 92.4982 13.785 92.7714C13.9052 93.1999 14.1739 93.572 14.5433 93.8214C14.9127 94.0709 15.3588 94.1815 15.8024 94.1336C18.7023 94.1336 21.5952 94.1336 24.4881 94.1336C24.9089 94.1628 25.3312 94.108 25.7305 93.9725C26.1298 93.8369 26.498 93.6234 26.8136 93.3442C26.9392 93.5788 27.0289 93.8307 27.0798 94.0917C27.0798 95.447 27.0798 96.8092 27.0798 98.1644C27.0798 102.538 27.0681 106.908 27.0448 111.277L19.6829 111.354ZM6.37419 60.2385C7.33382 61.6357 8.27243 61.6357 8.97289 61.2515C9.41176 61.0617 9.75984 60.7097 9.944 60.2694C10.1282 59.8292 10.1341 59.3348 9.96054 58.8903C9.80698 58.4544 9.49782 58.0903 9.09211 57.8673C8.6864 57.6444 8.21256 57.5783 7.7611 57.6817C6.72442 57.8634 6.38819 58.4851 6.3952 60.2385H6.37419ZM6.40921 37.5976C7.48792 38.855 8.11833 39.0716 9.03593 38.5127C9.46765 38.3047 9.80324 37.94 9.97386 37.4931C10.1445 37.0463 10.1372 36.5512 9.95354 36.1096C9.77233 35.6839 9.44528 35.3364 9.03082 35.1291C8.61635 34.9218 8.14148 34.8682 7.69105 34.9779C6.68939 35.2014 6.36018 35.8651 6.43022 37.5976H6.40921ZM6.40921 92.967C7.49492 94.2245 8.11833 94.441 9.03593 93.8752C9.46817 93.6658 9.8039 93.2998 9.97447 92.8518C10.145 92.4038 10.1375 91.9077 9.95354 91.4651C9.77085 91.0396 9.44181 90.6932 9.02572 90.4883C8.60962 90.2834 8.13382 90.2334 7.68404 90.3473C6.68239 90.5639 6.36018 91.2345 6.43022 92.967H6.40921ZM6.40921 24.7018C6.33916 26.4342 6.66138 27.0979 7.69105 27.3145C8.14068 27.4261 8.61548 27.3742 9.03017 27.168C9.44486 26.9619 9.77225 26.615 9.95354 26.1897C10.1436 25.747 10.1565 25.2485 9.98984 24.7964C9.82313 24.3444 9.48936 23.9731 9.05695 23.7587C8.13934 23.2208 7.50893 23.4443 6.43022 24.7018H6.40921ZM6.40921 47.3847C6.36718 49.18 6.6964 49.8227 7.73308 50.0253C8.1674 50.1186 8.62043 50.0673 9.02275 49.8793C9.42507 49.6913 9.75449 49.377 9.96054 48.9844C10.1612 48.5478 10.1866 48.0512 10.0316 47.5965C9.8766 47.1418 9.5529 46.7635 9.12699 46.5394C8.2164 45.9246 7.58598 46.1132 6.41621 47.3847H6.40921Z" fill="#12BBD5"/>
<path d="M12.4892 71.6673C13.4068 71.5975 14.3244 71.4857 15.249 71.4787C19.1926 71.4787 23.1432 71.4787 27.0938 71.4787H32.6975V16.6192C32.6975 16.2839 32.6975 15.9206 32.6975 15.6063V15.3548H97.2448C97.2448 15.7739 97.2799 16.1931 97.2799 16.6192C97.2799 19.7489 97.2799 22.9065 97.2799 26.0151C97.2379 27.8473 97.8832 29.6292 99.0894 31.0117C100.296 32.3943 101.976 33.2781 103.801 33.4899C105.02 33.6087 106.253 33.6296 107.472 33.6925V34.454C107.472 60.9674 107.472 87.4785 107.472 113.987C107.472 114.952 107.281 115.908 106.911 116.8C106.541 117.692 105.998 118.502 105.314 119.185C104.206 120.462 102.724 121.358 101.076 121.749C100.978 121.749 100.908 121.909 100.824 121.993C76.6303 121.993 52.4388 121.993 28.2496 121.993C26.1279 121.985 24.0945 121.145 22.5898 119.653C21.3632 118.548 20.495 117.103 20.0962 115.503C19.8639 114.141 19.7374 112.763 19.718 111.382H27.1078C27.1078 111.382 27.1638 111.472 27.1919 111.472C28.8449 111.472 30.498 111.542 32.1441 111.556C32.5504 111.556 32.7535 111.298 32.7745 110.907C32.7955 110.515 32.7745 110.313 32.7745 110.012C32.7745 103.557 32.7745 97.1003 32.7745 90.6407C32.7745 88.0071 32.7745 85.3804 32.7745 82.7468L32.5434 82.5302H27.1919C22.9891 82.5302 18.7863 82.5302 14.5836 82.4813C13.75 82.4813 12.9165 82.3346 12.0829 82.2508C11.3762 82.014 10.7252 81.6359 10.1699 81.1396C9.61462 80.6434 9.16659 80.0395 8.85322 79.3647C8.53985 78.69 8.36773 77.9586 8.34735 77.2153C8.32698 76.4719 8.4588 75.7323 8.73474 75.0415C9.05608 74.2277 9.56242 73.4994 10.2139 72.9139C10.8654 72.3284 11.6443 71.9016 12.4892 71.6673ZM66.7538 67.6156C68.3649 67.6156 69.9759 67.6505 71.594 67.6156C72.0178 67.6314 72.4405 67.5628 72.8373 67.4136C73.2341 67.2645 73.5971 67.0379 73.905 66.7471C74.2129 66.4563 74.4595 66.1071 74.6304 65.72C74.8013 65.333 74.893 64.9158 74.9002 64.4929C74.9702 62.8443 74.9702 61.1816 74.9002 59.533C74.8911 59.1101 74.7982 58.6931 74.6269 58.3062C74.4555 57.9192 74.2091 57.5699 73.9018 57.2783C73.5944 56.9868 73.2323 56.7587 72.8362 56.6074C72.4402 56.456 72.018 56.3843 71.594 56.3964C70.067 56.3964 68.533 56.3964 67.006 56.3964H47.0849C46.9987 56.3894 46.912 56.3894 46.8257 56.3964C45.0676 56.6758 44.0239 57.4792 43.7717 59.533C43.6491 61.184 43.6491 62.8419 43.7717 64.4929C43.7772 64.9067 43.8644 65.3153 44.0282 65.6954C44.1921 66.0756 44.4294 66.4198 44.7266 66.7085C45.0239 66.9972 45.3753 67.2246 45.7607 67.3779C46.1461 67.5311 46.558 67.6071 46.9728 67.6016C53.5782 67.6365 60.1765 67.6225 66.7748 67.6156H66.7538ZM66.7538 38.7782H56.8914C53.5712 38.7782 50.244 38.7782 46.9238 38.7782C46.2611 38.7577 45.6113 38.9631 45.0815 39.3607C44.5517 39.7582 44.1737 40.324 44.0099 40.9647C43.8784 41.3668 43.8052 41.7855 43.7928 42.2082C43.7928 43.6473 43.7928 45.0933 43.7928 46.5394C43.759 47.1364 43.8983 47.7306 44.1939 48.2508C44.4895 48.7711 44.929 49.1955 45.4598 49.4734C46.138 49.8038 46.8835 49.9735 47.6383 49.9694C50.6222 50.0253 53.6062 49.9694 56.5831 49.9694H66.5507C68.2878 49.9694 70.053 50.0812 71.7691 49.9694C72.6269 49.9511 73.4427 49.596 74.0394 48.9812C74.6362 48.3664 74.9656 47.5417 74.9562 46.6861C75.0192 45.0724 75.0052 43.4656 74.9562 41.8519C74.9361 41.0217 74.5917 40.2321 73.9964 39.6514C73.401 39.0707 72.6019 38.7448 71.7691 38.7433C70.088 38.7293 68.4279 38.7712 66.7748 38.7782H66.7538ZM95.3886 38.7782C92.958 38.7782 90.5274 38.848 88.1038 38.7782C87.6838 38.7726 87.2668 38.8498 86.8767 39.0052C86.4866 39.1607 86.131 39.3913 85.8304 39.6839C85.5298 39.9766 85.2901 40.3255 85.1249 40.7107C84.9597 41.0959 84.8723 41.5099 84.8677 41.9288C84.9167 49.4525 84.8677 56.9832 84.8677 64.5069C84.8513 64.9187 84.9198 65.3295 85.069 65.7139C85.2182 66.0982 85.445 66.4479 85.7352 66.7413C86.0255 67.0347 86.373 67.2655 86.7563 67.4195C87.1397 67.5735 87.5506 67.6474 87.9637 67.6365C90.3523 67.6365 92.7339 67.6365 95.1224 67.6365C96.7825 67.6365 98.4426 67.6714 100.103 67.6365C102.246 67.6365 103.549 66.3022 103.549 64.1436C103.549 60.022 103.549 55.9027 103.549 51.7857C103.549 48.5164 103.507 45.247 103.549 42.0056C103.584 40.3779 101.861 38.6385 100.32 38.7712C98.7438 38.883 97.0697 38.7852 95.4096 38.7921L95.3886 38.7782ZM60.2395 111.284H64.8346C68.1547 111.284 71.4749 111.284 74.7951 111.284C76.091 111.284 76.7284 110.655 76.7564 109.474C76.7718 109.211 76.7325 108.946 76.6409 108.698C76.5493 108.45 76.4073 108.224 76.2238 108.033C76.0404 107.842 75.8195 107.691 75.5748 107.589C75.3302 107.488 75.0671 107.437 74.8021 107.442H46.5736C46.2774 107.421 45.9802 107.421 45.684 107.442C45.1806 107.513 44.7248 107.776 44.4124 108.177C44.1001 108.577 43.9558 109.082 44.0099 109.586C44.006 109.82 44.0515 110.052 44.1434 110.268C44.2353 110.483 44.3715 110.676 44.5432 110.836C44.7149 110.995 44.9183 111.117 45.1401 111.193C45.362 111.269 45.5974 111.297 45.8311 111.277C46.1743 111.277 46.5315 111.277 46.8538 111.277L60.2395 111.284ZM102.036 86.8335C101.992 86.5979 101.936 86.3647 101.868 86.1349C101.773 85.6727 101.499 85.2665 101.106 85.0048C100.712 84.7431 100.231 84.6471 99.7665 84.7378C99.2986 84.7813 98.8614 84.9893 98.5329 85.3245C98.2045 85.6598 98.0062 86.1005 97.9733 86.568C97.9733 86.8195 97.9733 87.078 97.9733 87.3365C98.0035 87.8761 97.9251 88.4162 97.7428 88.9251C97.5605 89.4341 97.2779 89.9015 96.9118 90.2999C96.5456 90.6982 96.1032 91.0195 95.6107 91.2448C95.1181 91.4701 94.5854 91.5949 94.0437 91.6118C92.4817 91.7445 90.9127 91.7725 89.3507 91.8772C88.5912 91.8981 87.8357 91.994 87.0952 92.1637C85.7939 92.4782 84.5972 93.1255 83.6232 94.0418C82.6491 94.9581 81.9313 96.1118 81.5405 97.389C81.4497 97.6969 81.4497 98.0243 81.5405 98.3321C81.6323 98.6971 81.8326 99.0258 82.1151 99.2751C82.3977 99.5245 82.7492 99.6828 83.1236 99.7293C83.524 99.815 83.9419 99.7586 84.305 99.5699C84.6682 99.3811 84.9539 99.0718 85.1129 98.6954C85.35 98.1992 85.6413 97.7307 85.9814 97.2982C86.4439 96.7734 87.0158 96.3558 87.6571 96.0747C88.2983 95.7935 88.9935 95.6556 89.6939 95.6705C91.382 95.5867 93.0841 95.5937 94.7652 95.3841C96.5001 95.2156 98.1363 94.5012 99.4373 93.3442C101.315 91.6746 101.819 89.4741 102.036 86.8475V86.8335ZM46.5105 91.2765C46.5105 94.7694 46.5105 98.2623 46.5105 101.755C46.5227 102.202 46.691 102.631 46.9864 102.968C47.2818 103.305 47.6858 103.528 48.1286 103.599C48.5525 103.665 48.9861 103.583 49.3562 103.366C49.7263 103.15 50.0102 102.813 50.1599 102.412C50.3066 101.976 50.373 101.516 50.3561 101.057C50.3561 94.6436 50.3561 88.2306 50.3561 81.8177C50.3701 81.5617 50.3701 81.3052 50.3561 81.0493C50.3024 80.6059 50.1118 80.1901 49.8105 79.8596C49.5093 79.5292 49.1124 79.3004 48.675 79.205C48.3165 79.1262 47.942 79.1661 47.6084 79.3186C47.2747 79.4712 46.9999 79.728 46.8257 80.0503C46.6 80.4955 46.4915 80.9908 46.5105 81.4894C46.4965 84.7517 46.5105 88.0281 46.5105 91.2904V91.2765ZM92.986 111.27C96.0961 111.27 99.2061 111.27 102.316 111.27C102.724 111.302 103.13 111.187 103.461 110.946C103.791 110.705 104.024 110.354 104.116 109.956C104.251 109.527 104.226 109.064 104.048 108.652C103.869 108.239 103.548 107.904 103.143 107.707C102.676 107.517 102.175 107.427 101.672 107.442C96.0681 107.442 90.5064 107.442 84.9308 107.442C84.4655 107.385 83.9951 107.385 83.5298 107.442C83.0143 107.561 82.5344 107.801 82.1289 108.14C81.8533 108.382 81.6669 108.708 81.5996 109.068C81.5323 109.428 81.588 109.8 81.7577 110.124C81.9047 110.479 82.1562 110.781 82.4787 110.991C82.8013 111.2 83.18 111.307 83.5649 111.298C86.6819 111.263 89.834 111.284 92.986 111.284V111.27ZM65.479 93.6796V86.2886C65.5071 85.9492 65.5071 85.6081 65.479 85.2687C65.3979 84.7852 65.1359 84.3505 64.7458 84.0522C64.3558 83.754 63.8668 83.6145 63.3776 83.6619C63.1419 83.6614 62.9085 83.7093 62.6922 83.8026C62.4758 83.8959 62.281 84.0327 62.12 84.2045C61.959 84.3762 61.8352 84.5792 61.7563 84.8007C61.6774 85.0223 61.6451 85.2577 61.6615 85.4922C61.6615 90.9272 61.6615 96.3621 61.6615 101.797C61.6823 102.224 61.8484 102.631 62.1324 102.951C62.4164 103.271 62.8012 103.485 63.2235 103.558C63.6244 103.63 64.0381 103.57 64.402 103.387C64.7659 103.205 65.0603 102.909 65.2408 102.545C65.418 102.117 65.5062 101.659 65.5 101.196C65.493 98.7024 65.479 96.2014 65.479 93.6935V93.6796ZM69.0864 96.6206V98.5277C69.0864 99.5896 69.0443 100.658 69.0864 101.713C69.1051 102.186 69.2962 102.636 69.6238 102.978C69.9514 103.32 70.3929 103.531 70.8655 103.571C71.3352 103.612 71.8035 103.48 72.1818 103.199C72.56 102.918 72.8219 102.509 72.9179 102.049C73.0101 101.681 73.0571 101.303 73.058 100.924C73.058 98.1295 73.058 95.3352 73.058 92.5409C73.0605 92.1165 73.0063 91.6936 72.8969 91.2834C72.7849 90.8494 72.5237 90.4683 72.1589 90.2066C71.7941 89.945 71.3488 89.8192 70.9005 89.8513C70.4514 89.8893 70.0283 90.0777 69.7002 90.3859C69.3721 90.6941 69.1582 91.104 69.0934 91.5489C69.0724 91.8443 69.0724 92.1407 69.0934 92.4361L69.0864 96.6206ZM50.6222 27.3284C52.1492 27.3284 53.6832 27.3284 55.2102 27.3284C55.4518 27.3294 55.6912 27.2827 55.9147 27.1912C56.1382 27.0996 56.3413 26.9649 56.5125 26.7949C56.6836 26.6248 56.8194 26.4227 56.9121 26.2002C57.0048 25.9777 57.0525 25.7391 57.0525 25.4982C57.0683 25.2352 57.0288 24.9719 56.9364 24.7252C56.844 24.4784 56.7008 24.2537 56.516 24.0655C56.3313 23.8773 56.109 23.7297 55.8636 23.6324C55.6182 23.535 55.3551 23.49 55.0912 23.5002C54.0265 23.4653 52.9898 23.5002 51.9041 23.5002C50.0338 23.5002 48.1636 23.5002 46.3004 23.5002C46.0456 23.4733 45.788 23.498 45.543 23.5727C45.298 23.6473 45.0706 23.7705 44.8744 23.9349C44.6782 24.0992 44.5173 24.3013 44.4013 24.5291C44.2852 24.7569 44.2164 25.0057 44.199 25.2607C44.129 26.6159 44.7594 27.3145 46.1393 27.3564C47.6523 27.3634 49.1373 27.3424 50.6222 27.3424V27.3284ZM57.837 98.5068V95.2095C57.8494 94.7207 57.6792 94.2449 57.3595 93.8743C57.0397 93.5038 56.5933 93.2651 56.1068 93.2045C55.5741 93.2149 55.0642 93.4222 54.6759 93.7861C54.2877 94.1501 54.0487 94.6449 54.0055 95.1745C53.9541 97.3727 53.9541 99.5733 54.0055 101.776C54.0271 102.267 54.2381 102.731 54.5944 103.071C54.9507 103.411 55.4248 103.6 55.9177 103.599C56.4256 103.596 56.9116 103.393 57.2708 103.035C57.6299 102.677 57.8333 102.192 57.837 101.685C57.851 100.602 57.837 99.5686 57.837 98.5068ZM57.837 86.575C57.8607 86.3208 57.8271 86.0645 57.7387 85.825C57.6503 85.5854 57.5092 85.3686 57.3259 85.1904C57.1425 85.0122 56.9215 84.8772 56.6791 84.7953C56.4367 84.7133 56.1789 84.6865 55.9247 84.7168C55.4125 84.7241 54.9236 84.9317 54.5634 85.295C54.2031 85.6582 54.0002 86.148 53.9985 86.6589C54.0185 87.1697 54.2375 87.6526 54.6091 88.0048C54.9806 88.357 55.4752 88.5509 55.9878 88.545C56.2398 88.5407 56.4884 88.4857 56.7187 88.3835C56.9489 88.2813 57.1562 88.1339 57.3282 87.95C57.5001 87.7662 57.6331 87.5497 57.7193 87.3134C57.8055 87.0772 57.8432 86.8261 57.83 86.575H57.837Z" fill="#EBF4F9"/>
<path d="M119.463 33.6156C119.583 33.4689 119.674 33.2524 119.821 33.2035C120.806 32.8838 121.712 32.3601 122.48 31.6666C123.247 30.9732 123.859 30.1256 124.276 29.1797C124.62 28.4221 124.801 27.6012 124.808 26.7696C124.85 20.0702 124.885 13.3638 124.808 6.65744C124.794 5.51722 124.472 4.40185 123.875 3.42919C123.279 2.45653 122.43 1.66272 121.418 1.13167C120.621 0.708862 119.8 0.333315 118.959 0.00696637C120.619 0.00696637 122.279 0.00697489 123.939 -0.0279541C125.455 0.0212415 126.918 0.541044 128.123 1.45898C129.329 2.37692 130.217 3.6472 130.664 5.09263C130.884 5.81924 130.985 6.57633 130.965 7.33506C130.965 13.6223 130.923 19.9095 131.007 26.1967C131.049 29.494 128.359 33.0708 124.801 33.427C123.029 33.6226 121.243 33.5388 119.463 33.6156Z" fill="#2C2F53"/>
<path d="M27.0658 36.0607C27.196 36.7266 27.1102 37.4167 26.8206 38.0307C26.5052 38.3093 26.1367 38.5216 25.7371 38.6549C25.3375 38.7881 24.9151 38.8396 24.4951 38.8061C21.6512 38.7712 18.8003 38.8061 15.9495 38.8061C15.4617 38.8533 14.9732 38.723 14.5742 38.4393C14.1751 38.1556 13.8924 37.7375 13.778 37.2622C13.6832 37.0032 13.6518 36.7254 13.6863 36.4518C13.7208 36.1783 13.8203 35.9169 13.9765 35.6893C14.1327 35.4618 14.3411 35.2748 14.5843 35.1437C14.8276 35.0127 15.0987 34.9415 15.3751 34.936C16.4748 34.8941 17.5815 34.936 18.6883 34.936C20.6005 34.936 22.5198 34.9849 24.425 34.936C24.9266 34.8597 25.4395 34.9246 25.906 35.1233C26.3726 35.322 26.7742 35.6466 27.0658 36.0607Z" fill="#E9F4F9"/>
<path d="M92.9861 111.284C89.834 111.284 86.6819 111.284 83.5298 111.284C83.145 111.293 82.7663 111.186 82.4437 110.976C82.1211 110.767 81.8697 110.465 81.7227 110.11C81.553 109.786 81.4973 109.414 81.5646 109.054C81.6319 108.694 81.8183 108.368 82.0939 108.126C82.4994 107.787 82.9793 107.547 83.4948 107.428C83.9601 107.371 84.4305 107.371 84.8957 107.428C90.4994 107.428 96.0541 107.428 101.637 107.428C102.14 107.413 102.641 107.503 103.108 107.693C103.513 107.89 103.834 108.225 104.013 108.638C104.191 109.05 104.216 109.513 104.081 109.942C103.989 110.34 103.756 110.691 103.426 110.932C103.095 111.173 102.689 111.288 102.281 111.256C99.2061 111.291 96.0961 111.284 92.9861 111.284Z" fill="#31DCE4"/>
<path d="M66.7748 67.6156C67.083 67.3501 67.3842 67.0777 67.7065 66.8262C68.1071 66.519 68.4214 66.1139 68.6189 65.6501C68.8165 65.1862 68.8907 64.6794 68.8342 64.1785C68.7431 62.7456 68.7431 61.3083 68.8342 59.8753C68.8833 59.3102 68.7792 58.7422 68.5327 58.231C68.2862 57.7197 67.9065 57.2839 67.4333 56.9692C67.2791 56.8065 67.145 56.6259 67.034 56.4313C68.561 56.4313 70.095 56.4313 71.622 56.4313C72.046 56.4192 72.4682 56.4909 72.8643 56.6423C73.2603 56.7937 73.6225 57.0217 73.9298 57.3133C74.2371 57.6048 74.4835 57.9541 74.6549 58.3411C74.8262 58.7281 74.9191 59.145 74.9282 59.5679C74.9982 61.2166 74.9982 62.8792 74.9282 64.5278C74.921 64.9507 74.8293 65.3679 74.6585 65.755C74.4876 66.1421 74.241 66.4912 73.933 66.782C73.6251 67.0729 73.2621 67.2995 72.8653 67.4486C72.4685 67.5977 72.0458 67.6664 71.622 67.6505C69.997 67.6505 68.3859 67.6226 66.7748 67.6156Z" fill="#FD3F97"/>
<path d="M69.0864 96.6346V92.4431C69.0654 92.1477 69.0654 91.8512 69.0864 91.5559C69.1512 91.111 69.3651 90.7011 69.6932 90.3929C70.0213 90.0847 70.4444 89.8962 70.8935 89.8583C71.3418 89.8262 71.7871 89.9519 72.1519 90.2136C72.5167 90.4753 72.7778 90.8564 72.8899 91.2904C72.9993 91.7006 73.0535 92.1234 73.051 92.5479C73.051 95.3422 73.051 98.1365 73.051 100.931C73.0501 101.31 73.0031 101.688 72.9109 102.056C72.8149 102.516 72.553 102.925 72.1748 103.206C71.7965 103.486 71.3282 103.619 70.8585 103.578C70.3859 103.538 69.9444 103.327 69.6168 102.985C69.2892 102.643 69.0981 102.193 69.0793 101.72C69.0233 100.665 69.0793 99.6245 69.0793 98.5347L69.0864 96.6346Z" fill="#066181"/>
<path d="M50.6222 27.3424C49.1372 27.3424 47.6523 27.3424 46.1673 27.3424C44.7664 27.3424 44.157 26.6439 44.227 25.2467C44.2444 24.9918 44.3132 24.743 44.4293 24.5152C44.5453 24.2874 44.7062 24.0853 44.9024 23.9209C45.0986 23.7566 45.326 23.6334 45.571 23.5587C45.816 23.484 46.0736 23.4594 46.3284 23.4863C48.1916 23.4863 50.0618 23.4863 51.9321 23.4863C52.9898 23.4863 54.0335 23.4863 55.1192 23.4863C55.3831 23.476 55.6462 23.521 55.8916 23.6184C56.137 23.7157 56.3593 23.8633 56.544 24.0515C56.7288 24.2397 56.872 24.4644 56.9644 24.7112C57.0568 24.958 57.0963 25.2213 57.0805 25.4842C57.0805 25.7252 57.0328 25.9637 56.9401 26.1862C56.8474 26.4088 56.7116 26.6108 56.5405 26.7809C56.3693 26.9509 56.1662 27.0856 55.9427 27.1772C55.7192 27.2687 55.4798 27.3154 55.2382 27.3145C53.7112 27.3145 52.1772 27.3145 50.6502 27.3145L50.6222 27.3424Z" fill="#31DCE4"/>
<path d="M57.837 98.5067C57.837 99.5686 57.837 100.602 57.837 101.685C57.8333 102.192 57.6299 102.677 57.2708 103.035C56.9116 103.393 56.4256 103.596 55.9177 103.599C55.4248 103.6 54.9507 103.41 54.5944 103.071C54.2381 102.731 54.0271 102.267 54.0054 101.776C53.9541 99.5732 53.9541 97.3727 54.0054 95.1745C54.0487 94.6449 54.2877 94.1501 54.6759 93.7861C55.0642 93.4221 55.5741 93.2149 56.1068 93.2045C56.5932 93.265 57.0397 93.5038 57.3595 93.8743C57.6792 94.2448 57.8494 94.7207 57.837 95.2095V98.5067Z" fill="#32DCE4"/>
<path d="M57.83 86.575C57.8432 86.8266 57.8054 87.0783 57.7187 87.315C57.6321 87.5517 57.4984 87.7685 57.3257 87.9525C57.1531 88.1364 56.9449 88.2837 56.7138 88.3855C56.4827 88.4873 56.2334 88.5416 55.9808 88.545C55.4682 88.5508 54.9736 88.357 54.6021 88.0048C54.2305 87.6526 54.0115 87.1697 53.9915 86.6588C53.9932 86.1479 54.1961 85.6582 54.5564 85.2949C54.9166 84.9317 55.4055 84.7241 55.9177 84.7168C56.1719 84.6865 56.4297 84.7133 56.6721 84.7953C56.9145 84.8772 57.1355 85.0122 57.3189 85.1904C57.5022 85.3686 57.6433 85.5854 57.7317 85.825C57.8202 86.0645 57.8537 86.3208 57.83 86.575Z" fill="#37DDE5"/>
<path d="M118.959 26.2177H106.351C106.012 26.2105 105.676 26.1612 105.349 26.071C105.15 26.0393 104.959 25.9665 104.789 25.8573C104.619 25.7481 104.474 25.6048 104.363 25.4366C104.251 25.2684 104.176 25.079 104.142 24.8803C104.108 24.6817 104.116 24.4781 104.165 24.2827C104.548 22.2825 105.529 20.4449 106.979 19.0119C108.43 17.579 110.282 16.6182 112.291 16.256C112.361 16.3538 112.417 16.5354 112.494 16.5424C113.35 16.7282 114.157 17.0925 114.861 17.6112C116.806 18.7255 118.27 20.5166 118.973 22.641C119.148 23.151 119.33 23.6539 119.47 24.1779C119.66 24.9533 119.106 25.5401 118.959 26.2177Z" fill="#CEE6F1"/>
<path d="M118.959 26.2177C119.127 25.5191 119.66 24.9533 119.477 24.1988C119.337 23.6749 119.155 23.1719 118.98 22.662C118.277 20.5375 116.813 18.7465 114.868 17.6322C114.164 17.1135 113.357 16.7492 112.501 16.5634C112.424 16.5634 112.368 16.3748 112.298 16.2769L112.788 15.9696L112.291 15.6762C112.291 15.5993 112.333 15.4736 112.389 15.4526C113.895 14.8239 114.49 13.5176 114.959 12.0994C115.17 11.3785 115.17 10.6128 114.959 9.89192C114.602 8.30614 113.439 7.36306 112.298 6.39902C113.032 6.09001 113.83 5.96046 114.624 6.02116C115.419 6.08186 116.187 6.33104 116.866 6.74797C117.544 7.16489 118.113 7.73749 118.525 8.41803C118.936 9.09857 119.179 9.86736 119.232 10.6604C119.311 11.8382 118.984 13.0076 118.305 13.9745C117.626 14.9414 116.636 15.6478 115.499 15.9765C116.611 16.2924 117.697 16.6918 118.749 17.1711C121.551 18.687 123.491 20.9225 124.086 24.1569C124.311 25.4074 123.743 26.2527 122.51 26.2946C121.278 26.3365 120.129 26.2387 118.959 26.2177Z" fill="#B2D5E8"/>
<path d="M112.291 6.37805C113.432 7.36305 114.595 8.30613 114.952 9.87095C115.163 10.5919 115.163 11.3576 114.952 12.0785C114.476 13.4756 113.888 14.8029 112.382 15.4316C112.326 15.4316 112.312 15.5783 112.284 15.6552C111.337 15.3137 110.519 14.6874 109.945 13.8627C109.37 13.0381 109.066 12.0558 109.076 11.0516C109.049 10.2641 109.218 9.48219 109.569 8.7762C109.92 8.07021 110.441 7.46219 111.086 7.00677C111.471 6.76788 111.874 6.55774 112.291 6.37805Z" fill="#CDE5F0"/>
</g>
<defs>
<clipPath id="clip0_349_22">
<rect width="131" height="122" fill="white"/>
</clipPath>
</defs>
</svg>
