<svg width="201" height="187" viewBox="0 0 201 187" fill="none" xmlns="http://www.w3.org/2000/svg">
<g clip-path="url(#clip0_57_501)">
<path d="M106.096 167.823C147.02 167.823 180.196 134.549 180.196 93.5046C180.196 52.4599 147.02 19.1866 106.096 19.1866C65.1719 19.1866 31.9962 52.4599 31.9962 93.5046C31.9962 134.549 65.1719 167.823 106.096 167.823Z" fill="#01A8C9"/>
<path d="M146.732 31.3402C144.946 31.4527 144.74 32.5499 145.264 36.301C142.833 35.7195 140.458 37.9608 137.98 36.5073C137.792 36.4699 137.598 36.4699 137.41 36.5073C135.016 36.9386 134.941 36.8636 135.455 34.2004C135.601 33.7306 135.714 33.2512 135.792 32.7656C135.834 32.161 135.805 31.5537 135.708 30.9557H135.418C134.997 32.7562 133.548 34.3035 134.165 36.4885C134.165 36.7042 133.707 37.3419 133.492 37.3325C132.65 37.3173 131.825 37.5706 131.136 38.056C130.447 38.5415 129.93 39.2338 129.658 40.0333C129.509 40.1739 129.284 40.4553 129.135 40.4553C128.508 40.4935 127.912 40.7416 127.442 41.1599C126.973 41.5781 126.657 42.1424 126.545 42.7622C126.461 43.0435 125.881 43.1654 125.61 43.3811C125.105 43.578 124.731 43.925 124.291 44.1313C123.852 44.3376 123.356 44.5345 122.908 44.7409L121.514 45.4911C121.782 45.918 122.096 46.3142 122.449 46.6727C123.239 47.1232 123.996 47.631 124.712 48.1918C125.479 49.0077 125.544 51.5397 124.712 52.168C124.198 52.5149 123.272 52.1211 122.627 51.9617C121.494 51.6677 120.345 51.4392 119.186 51.2771C118.888 51.2588 118.59 51.3206 118.323 51.4561C118.056 51.5916 117.83 51.7959 117.669 52.048C117.507 52.3002 117.415 52.591 117.402 52.8907C117.389 53.1903 117.457 53.4879 117.597 53.7528C117.786 54.1784 117.87 54.6434 117.842 55.1086C117.815 55.5737 117.676 56.0253 117.438 56.4254C116.755 57.7008 117.036 60.1765 117.896 60.4109C118.999 60.8578 120.151 61.1726 121.327 61.3487C121.562 61.4228 121.809 61.4499 122.054 61.4283C122.299 61.4066 122.537 61.3368 122.755 61.2227C122.973 61.1085 123.166 60.9524 123.324 60.7633C123.482 60.5741 123.601 60.3556 123.674 60.1202C124.716 57.6674 126.524 55.6204 128.826 54.2873C129.04 54.1374 129.261 53.9996 129.49 53.8747C129.004 53.2089 128.733 52.6181 128.387 52.1773C129.022 52.0402 129.686 52.1367 130.257 52.4493C131.332 52.9182 132.333 53.162 133.062 51.671C133.305 50.8832 133.95 50.902 134.436 51.5678C134.725 51.9356 134.932 52.3608 135.044 52.815C135.493 54.6906 136.839 55.4033 138.111 56.3035C138.75 56.6576 139.261 57.2059 139.57 57.8696C139.746 58.516 139.7 59.2034 139.439 59.8201C139.214 60.1765 138.504 60.1484 137.915 60.3547H137.045C137.045 60.4203 136.97 60.5704 136.97 60.636C137.382 61.0111 137.905 61.6769 138.382 61.5738C139.682 61.4706 140.607 59.4825 140.607 57.1663C141.094 57.2931 141.572 57.4529 142.038 57.6445C142.103 57.5789 142.188 57.3632 142.262 57.2882C141.327 56.4629 140.392 55.7784 139.523 54.8875C138.335 53.8372 136.98 53.1526 136.97 51.1927C136.849 50.6113 136.372 49.7298 137.316 49.5422C138.111 49.4203 139.111 49.5422 139.074 50.7519C139.074 52.8525 140.364 53.4715 141.711 54.1654C142.278 54.3464 142.789 54.6692 143.197 55.1032C143.374 55.2874 143.512 55.505 143.603 55.7433C143.695 55.9816 143.738 56.2358 143.73 56.4911C143.51 56.9762 143.432 57.514 143.505 58.042C143.578 58.5699 143.799 59.0662 144.142 59.4732C144.398 59.8332 144.603 60.2278 144.75 60.6454C144.99 61.1601 145.169 61.7015 145.282 62.2583C145.722 61.8363 146.161 61.555 146.61 61.1424C146.755 61.0215 146.881 60.8792 146.984 60.7204C147.657 60.0921 147.742 59.5857 146.984 58.9855C146.554 58.5462 146.16 58.0727 145.806 57.5695C146.242 57.1803 146.779 56.9228 147.355 56.8265C147.93 56.7303 148.522 56.7993 149.06 57.0256C149.841 57.2313 150.672 57.1272 151.379 56.7349C151.603 56.5942 151.285 55.2814 151.304 54.4936C151.15 53.777 151.172 53.0333 151.369 52.3274C151.711 51.4007 152.2 50.536 152.819 49.7673C153.342 49.1296 154.09 48.3606 154.38 48.445C155.154 48.8797 155.784 49.5315 156.194 50.3206C156.615 50.63 156.811 51.4271 157.241 51.4365C157.671 51.4459 158.401 51.1177 158.99 50.9207C158.99 50.705 158.924 50.63 158.924 50.48C158.214 50.1705 157.578 49.9361 156.867 49.6172V49.1859C158.616 48.7357 160.355 48.2481 162.103 47.6948C161.799 48.4118 161.39 49.0788 160.888 49.6735C159.953 50.8739 159.953 51.3802 161.019 52.3555C161.725 52.8331 162.356 53.4148 162.889 54.081C163.243 54.7205 163.346 55.4696 163.179 56.1816C163.095 56.613 162.244 57.0162 161.72 57.0068C160.832 56.8991 159.978 56.6017 159.214 56.1347C158.529 55.635 157.709 55.3535 156.862 55.3267C156.015 55.2999 155.18 55.5292 154.464 55.9847C153.155 56.5192 151.977 57.0631 150.724 57.6727C150.434 57.879 149.92 58.1603 149.911 58.4416C150.204 59.7559 150.601 61.0447 151.098 62.2958C151.239 62.6616 152.454 62.9898 152.669 62.7741C153.492 61.8363 153.913 62.3052 154.539 62.9054C155.306 63.8432 156.026 63.9651 156.839 63.1211C156.987 62.952 157.164 62.812 157.363 62.7085C157.654 63.5112 158.041 64.2762 158.513 64.9872C159.205 65.8687 159.195 66.3751 158.307 67.1441C157.67 67.5831 157.233 68.2577 157.092 69.0196C157.092 70.3231 156.69 70.3794 155.895 70.2856C154.823 69.9781 153.708 69.8452 152.594 69.8918C149.88 70.1935 147.151 69.4641 144.946 67.8474C144.45 67.4723 143.599 67.2285 143.3 67.5755C142.851 67.8568 142.823 68.7946 142.88 69.451C143.048 70.9045 142.674 71.3265 141.468 70.7076C139.915 69.7698 138.354 68.7383 136.877 67.7443C135.399 66.7502 134.567 65.503 135.138 63.4962C135.39 62.2114 134.689 61.5363 133.464 61.6207C132.748 61.7622 132.011 61.7622 131.295 61.6207C130.157 61.2398 128.949 61.1204 127.759 61.2714C126.57 61.4224 125.429 61.8398 124.422 62.4928C123.169 63.318 121.786 63.8525 120.224 62.9335C120.084 62.8585 119.42 63.2711 119.121 63.6275C118.341 64.4628 117.613 65.346 116.942 66.272C116.387 67.0257 116.036 67.911 115.923 68.8414C116.017 70.5763 115.624 71.7954 114.296 72.5925C112.314 73.8304 111.164 75.8935 110.238 78.0316C109.93 78.5286 109.771 79.1006 109.462 79.5226C109.036 80.033 108.767 80.6571 108.689 81.3184C108.611 81.9796 108.727 82.6494 109.023 83.2455C109.541 84.9206 109.512 86.7181 108.938 88.3751C108.621 89.3785 108.359 90.7477 108.845 91.5542C109.929 93.3713 110.718 95.3496 111.183 97.4152C111.245 97.7163 111.387 97.9949 111.594 98.2217C112.772 99.4877 113.885 100.819 115.147 102.02C116.082 102.957 117.26 103.604 118.513 102.704C119.766 101.804 121.318 101.71 122.88 101.466C123.507 101.516 124.131 101.329 124.628 100.941C125.956 100.003 127.162 100.369 128.284 101.344C128.985 102.02 129.518 103.408 130.846 102.657C130.921 102.582 131.201 102.732 131.341 102.957C131.905 103.514 132.284 104.231 132.426 105.012C132.569 105.792 132.467 106.598 132.136 107.318C131.295 109.1 131.201 110.403 132.23 111.519C133.4 112.672 134.122 114.204 134.268 115.842C134.358 116.459 134.561 117.053 134.866 117.596C136.147 120.606 136.269 123.57 134.595 126.336C133.989 127.313 133.645 128.432 133.598 129.582C133.55 130.733 133.8 131.876 134.324 132.9C135.29 135.166 135.872 137.578 136.045 140.037C136.12 141.948 136.551 143.827 137.316 145.579C138.351 147.357 138.79 149.421 138.569 151.468C138.382 153.053 138.793 153.503 140.168 153.344C142.016 153.227 143.856 152.996 145.675 152.65C146.016 152.519 146.332 152.332 146.61 152.096C149.415 149.808 151.669 147.126 151.865 143.009C151.856 142.571 152.001 142.143 152.274 141.8C152.548 141.457 152.932 141.222 153.361 141.134C153.84 140.847 154.229 140.431 154.483 139.934C154.671 139.389 154.742 138.812 154.692 138.238C154.642 137.664 154.472 137.108 154.193 136.604C153.978 135.946 153.978 135.237 154.193 134.579C155.01 133.435 155.99 132.418 157.101 131.559C159.457 129.824 160.841 125.679 160.037 122.763C159.543 120.97 159.165 119.147 158.906 117.305C158.214 114.314 159.71 112.485 161.711 110.806C163.275 109.699 164.632 108.325 165.722 106.746C167.501 104.024 169.13 101.206 170.603 98.3061C170.895 97.5153 171.114 96.6991 171.257 95.8679C170.506 95.7978 169.749 95.8453 169.013 96.0085C167.564 96.1867 166.208 96.7213 164.806 96.89C164.441 96.9557 163.955 96.5056 163.674 96.0648C162.926 94.6675 162.178 93.1952 161.365 91.723C161.192 91.2793 160.963 90.86 160.682 90.4757C160.215 89.3035 159.672 88.0563 159.28 86.8184C158.56 84.4084 157.915 82.0733 157.195 79.6633C156.867 78.6411 156.68 77.6283 156.353 76.5968C156.026 75.5652 155.549 74.7212 155.072 73.7835C155.586 73.6522 155.867 73.7835 156.007 74.0273C157.307 76.0904 158.541 78.2285 159.841 80.3666C160.056 80.5823 159.962 81.0137 160.028 81.4544C160.289 82.1108 160.346 82.7673 160.542 83.4237C161.963 86.434 163.674 89.2285 163.777 92.8014C163.777 93.7392 164.31 94.1893 165.339 93.7392C166.143 93.3265 167.087 93.139 167.891 92.7357C169.214 92.1645 170.479 91.4674 171.669 90.6539C172.847 89.8943 174.025 88.8534 175.278 88.0938C176.993 86.9976 178.212 85.2704 178.672 83.2831C178.831 82.711 178.354 81.7545 178.092 81.0981C177.83 80.4416 177.157 80.2728 176.764 79.8227C175.923 78.8849 175.137 78.688 174.1 79.6727C173.211 80.4322 172.117 80.6948 171.22 79.3632C171.154 79.1475 170.799 79.1287 170.659 78.9787C170.453 78.613 170.042 78.0972 170.116 77.8065C170.324 77.2761 170.37 76.6954 170.246 76.139C170.123 75.5826 169.837 75.0759 169.425 74.6837C169.034 74.2974 168.717 73.843 168.49 73.3427C168.348 72.8495 168.348 72.3262 168.49 71.8329C168.723 71.4766 169.368 71.4953 169.864 71.6548C171.014 71.908 171.407 73.0802 171.809 74.1023C172.744 76.5874 173.305 76.9156 175.633 76.3905C175.828 76.3214 176.038 76.3084 176.24 76.3532C176.441 76.398 176.626 76.4986 176.774 76.6437C177.238 77.4251 177.879 78.0866 178.644 78.5755C176.684 68.9838 172.857 59.8742 167.381 51.7687C161.904 43.6632 154.888 36.7211 146.732 31.3402Z" fill="#4FEEFB"/>
<path d="M36.559 100.228C38.3356 100.228 39.0462 100.725 39.6913 102.263C39.9403 102.59 40.26 102.857 40.6264 103.042C40.8508 103.211 41.2715 103.192 41.4585 103.417C42.272 104.355 43.4594 103.998 44.3945 104.298C44.6566 103.873 44.8788 103.424 45.0583 102.957C46.7133 104.101 47.7137 105.996 47.4145 107.374C47.1153 108.753 46.8161 110.103 46.6478 111.425C46.7452 111.968 46.9316 112.491 47.1995 112.973C47.265 113.16 47.5174 113.526 47.3958 113.704C47.2914 113.949 47.2401 114.213 47.2454 114.479C47.2507 114.746 47.3125 115.008 47.4266 115.248C47.5407 115.488 47.7045 115.702 47.9072 115.874C48.1099 116.046 48.3467 116.172 48.602 116.245C50.8367 117.183 52.1177 118.787 53.3706 120.522C54.3898 121.835 55.465 122.932 57.3537 123.026C59.3827 123.138 60.3177 123.776 61.0471 125.398C61.552 126.561 61.9353 127.705 62.4402 128.924C63.0437 130.647 63.7847 132.319 64.6562 133.922C65.3052 135.09 65.8136 136.33 66.1709 137.617C66.7669 139.579 67.5497 141.479 68.5085 143.291C68.6674 143.619 69.2658 143.91 69.6398 144.172C69.802 144.363 69.9431 144.57 70.0606 144.791C70.3796 145.518 70.7353 146.229 71.1265 146.92C71.5192 147.773 72.2859 148.72 70.7058 149.114C71.1762 149.085 71.6433 149.211 72.0352 149.473C72.4272 149.736 72.7222 150.121 72.875 150.568C72.875 150.633 72.9498 150.765 73.0713 150.83C74.4458 151.562 74.5019 152.265 73.6043 152.818C74.6889 153.597 75.8296 154.244 76.9329 155.013C77.3651 155.356 77.8622 155.608 78.3942 155.753C78.9261 155.898 79.4819 155.933 80.0279 155.857C81.047 155.8 82.0194 155.857 81.8979 154.741C81.8979 154.572 82.3373 154.403 82.515 154.272C82.6926 154.141 83.0012 153.916 83.2536 153.709C82.6365 153.709 82.3186 153.916 81.8137 153.934C81.4102 154.006 80.9951 153.974 80.6076 153.841C79.585 153.092 78.6019 152.291 77.6623 151.44C77.6159 151.343 77.5918 151.238 77.5918 151.13C77.5918 151.023 77.6159 150.917 77.6623 150.821C77.8021 150.045 78.0182 149.285 78.3074 148.552C78.5692 147.792 78.0176 147.501 77.2134 147.351C76.4093 147.201 75.6894 146.967 74.745 146.704C75.0068 146.498 75.0816 146.31 75.2499 146.254C76.5215 145.147 76.5776 144.378 75.5304 142.747C75.4365 142.581 75.4029 142.387 75.4353 142.199C75.4677 142.011 75.5641 141.84 75.7081 141.715C76.6431 140.974 76.1382 140.346 75.465 139.615C75.2593 139.418 75.119 139.193 74.8666 138.911C76.3439 138.686 77.7745 138.63 77.7184 137.036C77.7184 135.826 77.5407 134.86 75.7081 134.222C76.8768 133.96 77.8399 133.8 78.8684 133.519C78.0924 132.797 77.9802 132.159 78.7095 131.728C78.9285 131.489 79.0773 131.193 79.1396 130.875C79.7847 129.402 79.3079 127.996 78.4944 126.523C78.396 126.374 78.3282 126.207 78.2951 126.032C78.2621 125.856 78.2643 125.675 78.3018 125.501C78.3392 125.326 78.4111 125.161 78.5133 125.014C78.6154 124.868 78.7457 124.743 78.8965 124.648C79.6944 124.043 80.4562 123.392 81.1779 122.697C81.563 122.226 81.7597 121.628 81.7296 121.019C81.8979 120.344 81.7296 119.565 81.9166 118.928C82.1036 118.29 82.4963 117.371 81.8324 116.639C81.1884 116.023 80.8042 115.183 80.759 114.292C80.7138 113.401 81.0109 112.526 81.5893 111.847C81.7997 111.499 81.9632 111.123 82.0755 110.731C82.1907 110.524 82.263 110.295 82.2881 110.058C82.3132 109.822 82.2906 109.583 82.2217 109.355C82.1528 109.128 82.0389 108.916 81.8869 108.734C81.7349 108.552 81.5478 108.402 81.3369 108.293C79.4713 107.141 77.2815 106.63 75.1003 106.84C73.9066 107.051 72.678 106.931 71.5473 106.493C70.6123 106.127 69.5183 105.639 68.4337 106.493C68.4955 105.736 68.3548 104.976 68.026 104.292C67.6973 103.608 67.1925 103.024 66.5636 102.601C66.1896 102.385 65.5258 102.038 65.1331 102.16C62.7114 102.882 60.5982 101.785 58.4384 101.063C58.2514 101.063 58.1205 100.819 58.0737 100.641C57.4473 99.4782 57.0359 99.3094 55.8484 100.107C54.6609 100.904 53.5482 100.416 52.4262 100.303C51.8996 100.206 51.3784 100.08 50.8647 99.9284C50.9956 100.454 51.0798 100.988 51.2294 101.513C51.211 101.593 51.211 101.677 51.2294 101.757C50.977 101.757 50.631 101.813 50.6029 101.757C50.3879 100.979 50.1822 100.2 49.9765 99.422C48.6207 100.744 47.0873 101.654 47.0218 103.595C45.3762 102.517 45.3669 102.451 43.6838 103.454C43.1228 103.858 42.6927 103.633 42.2065 103.192C40.8788 102.132 40.7292 100.613 40.3832 99.1875C40.0373 97.7621 39.8035 97.4808 38.2888 98.0153C38.1153 98.0464 37.9436 98.0871 37.7745 98.1372C37.3555 98.1367 36.9369 98.1649 36.5216 98.2216C36.5216 97.809 36.4562 97.4058 36.4375 97.04C36.5123 95.7459 36.6058 94.4424 36.7086 93.092C34.8854 93.2796 34.474 93.6922 34.3992 95.0989C34.3992 95.4646 34.3992 96.0929 34.1374 96.1773C33.4838 96.5496 32.7727 96.8095 32.0336 96.9463C32.0336 97.5464 32.0897 98.1466 32.1271 98.7374C32.9401 98.8806 33.7179 99.18 34.4178 99.6189C35.0822 99.9676 35.8111 100.175 36.559 100.228Z" fill="#4FEEFB"/>
<g opacity="0.3">
<path d="M147.293 31.734C159.659 45.3558 166.511 63.1164 166.507 81.5388C166.509 91.2991 164.593 100.964 160.869 109.982C157.146 119 151.688 127.194 144.807 134.096C137.926 140.998 129.757 146.473 120.766 150.208C111.776 153.944 102.139 155.866 92.4075 155.866C77.7368 155.885 63.3936 151.517 51.2108 143.319C58.1371 151.032 66.6022 157.199 76.0573 161.42C85.5124 165.641 95.7465 167.823 106.096 167.823C115.83 167.823 125.469 165.899 134.462 162.162C143.454 158.425 151.625 152.947 158.506 146.042C165.387 139.137 170.844 130.94 174.566 121.919C178.288 112.898 180.201 103.23 180.196 93.4672C180.197 81.2569 177.194 69.235 171.455 58.4667C165.716 47.6984 157.416 38.5163 147.293 31.734Z" fill="#3B95BD"/>
</g>
<path d="M32.5011 86.0775C33.9223 84.202 34.0438 84.202 36.4936 85.196C36.901 85.3273 37.3391 85.3273 37.7465 85.196C38.373 84.9804 38.6815 85.196 38.6815 85.7493C38.8405 86.0306 38.775 86.3964 38.9433 86.734C39.0518 87.3068 39.3555 87.8241 39.8024 88.197C40.2494 88.57 40.8117 88.7755 41.3931 88.7783C40.9162 87.728 40.458 86.7715 40.084 85.7118C39.9052 85.3268 39.8096 84.9081 39.8035 84.4833C39.8497 83.7376 40.0556 83.0105 40.4074 82.3519C40.7592 81.6932 41.2484 81.1184 41.8419 80.6666C42.3592 80.3018 42.723 79.7574 42.8629 79.1389C43.0029 78.5204 42.9089 77.8718 42.5992 77.3188C42.4571 76.9613 42.2915 76.6135 42.1037 76.2779C42.4309 75.9965 42.7769 75.8184 43.0387 75.5464C44.2211 74.5596 45.3363 73.4944 46.3767 72.358C47.1689 71.3028 48.2368 70.4881 49.4622 70.0042C49.5626 70.3824 49.7136 70.7452 49.911 71.0827C50.2685 71.1111 50.6279 71.0665 50.9676 70.9514C52.1177 70.3418 53.1462 69.7416 54.2495 69.0758C54.3834 69.0103 54.4982 68.9114 54.5831 68.7886C54.6679 68.6658 54.7198 68.5232 54.7339 68.3744C54.748 68.2257 54.7237 68.0758 54.6635 67.9392C54.6032 67.8026 54.509 67.6838 54.3898 67.5942C54.2053 67.683 54.0299 67.7898 53.8662 67.913C52.4262 68.9633 51.7717 68.8508 51.0611 67.3785C50.9957 67.0971 50.818 66.7689 50.8741 66.5251C51.1546 65.2122 50.285 64.734 49.0041 64.6496C48.9386 64.6496 48.9386 64.5558 48.8264 64.312C49.9391 64.2557 50.9396 64.1619 51.9868 64.1619C53.034 64.1619 54.0345 64.1619 55.1565 64.1619C55.1341 63.8411 55.1886 63.5196 55.3154 63.2242C56.4876 63.1651 57.6093 62.7276 58.5132 61.9769C58.6721 61.8269 60.0466 59.0136 59.1864 59.1636L64.2448 58.4978C64.8219 58.493 65.3747 58.2645 65.7876 57.8601C66.0107 57.5169 66.1308 57.1165 66.1335 56.7067C66.2427 54.4038 66.524 52.1123 66.9751 49.8516C67.4239 49.1389 67.8446 48.4356 68.2373 47.6854C68.63 46.9352 69.1723 46.4663 70.1728 46.6445C70.6283 46.7043 71.0912 46.6667 71.5312 46.5341C71.9712 46.4016 72.3781 46.1771 72.7254 45.8755C73.7147 45.169 74.7972 44.6041 75.9418 44.1969C77.4846 43.5873 79.1115 43.2591 80.7104 42.734C81.1312 42.6027 81.6922 42.3964 81.7202 42.2276C81.8885 41.2898 82.6552 41.2898 83.5155 41.2898C83.5809 40.2676 83.6557 39.283 83.7305 38.3734C83.9923 38.2139 84.3009 37.8763 84.6655 37.6231C85.4322 37.0417 86.4046 36.5541 86.3205 35.6632C86.2363 34.7723 86.3205 34.0784 87.9568 33.8815C87.0218 33.3 86.3579 32.8405 85.6192 32.3341C88.1718 30.9838 90.5 29.7084 92.7721 28.4893C91.7529 27.8047 87.8072 27.7578 86.227 28.4893C85.2265 28.9394 85.105 28.9394 84.6001 28.4893C85.6566 27.861 86.6384 27.3171 87.695 26.6982C85.9558 25.9292 84.3009 25.2353 82.6646 24.5226H82.4402C81.3556 24.4663 80.299 24.3725 79.2424 24.2975C77.5968 24.9352 75.5024 25.8729 73.3612 26.9045C62.1589 32.4349 52.5312 40.7141 45.3717 50.9735C38.2121 61.233 33.7528 73.1401 32.4076 85.5899C32.4076 85.7587 32.4076 85.9181 32.3608 86.0775H32.5011Z" fill="#4FEEFB"/>
<path d="M175.259 67.0504C175.829 68.5602 176.325 70.1075 176.802 71.6642C200.654 81.8577 196.914 96.8057 165.638 105.799C129.976 116.039 71.753 116.039 35.8578 105.799C-0.037405 95.5584 -0.224419 77.8628 35.437 67.6224C35.8952 67.4911 36.372 67.3786 36.8676 67.2473C37.3351 65.9907 37.8681 64.7528 38.4104 63.4962C35.222 64.2183 32.1177 64.9685 29.1911 65.8125C-9.91116 77.0657 -9.70545 95.2865 29.6586 106.521C69.0227 117.755 132.781 117.774 171.884 106.521C209.602 95.7179 210.603 78.3411 175.259 67.0504Z" fill="#7C7F94"/>
<path d="M165.011 138.349C164.749 138.724 164.506 139.118 164.235 139.483C168.807 156.87 155.39 161.427 129.827 148.486C96.7085 131.728 53.9596 92.0886 34.53 60.1295C15.1004 28.1705 27.2743 15.7075 60.4019 32.5123C61.0471 32.8405 61.7109 33.2156 62.3748 33.5814C63.3098 32.8687 64.329 32.1935 65.3201 31.537C62.515 29.8866 59.71 28.3205 57.0171 26.9514C20.7105 8.57114 8.50861 22.1125 29.8082 57.1568C51.1079 92.2011 97.924 135.582 134.268 153.962C166.348 170.205 179.551 161.465 167.47 134.982C166.666 136.135 165.853 137.242 165.011 138.349Z" fill="#7C7F94"/>
<path d="M108.723 16.3265C107.873 17.2643 107.04 18.202 106.199 19.1867C108.275 19.1867 110.313 19.318 112.342 19.4962C135.717 -2.25065 155.053 9.64961 154.277 46.5132C153.473 85.3461 132.314 138.555 107.125 165.15C84.6095 188.913 64.9368 182.18 61.898 153.034C60.2243 151.777 58.5974 150.465 57.0266 149.077C57.1294 189.401 78.5319 199.182 105.507 170.645C133.109 141.509 156.306 83.1986 157.195 40.624C158.083 -1.95056 136.325 -12.8005 108.723 16.3265Z" fill="#7C7F94"/>
<path d="M166.376 50.4893C167.311 51.7459 168.125 53.04 168.948 54.3529C191.388 55.1313 193.146 69.1227 169.883 88.3657C142.365 111.107 91.0797 133.5 55.5398 138.283C23.0855 142.653 14.3244 130.199 34.0345 110.806C33.7166 109.475 33.4548 108.124 33.2023 106.765C4.21689 131.212 11.6222 146.798 50.1354 141.612C89.0788 136.37 145.282 111.838 175.427 86.9028C203.73 63.5336 199.177 48.0042 166.376 50.4893Z" fill="#7C7F94"/>
<path d="M72.1924 141.612C74.6453 141.612 76.6337 139.618 76.6337 137.158C76.6337 134.698 74.6453 132.703 72.1924 132.703C69.7395 132.703 67.7511 134.698 67.7511 137.158C67.7511 139.618 69.7395 141.612 72.1924 141.612Z" fill="#2C2F53"/>
<path d="M18.3076 108.34C21.8914 108.34 24.7966 105.426 24.7966 101.832C24.7966 98.2377 21.8914 95.324 18.3076 95.324C14.7238 95.324 11.8186 98.2377 11.8186 101.832C11.8186 105.426 14.7238 108.34 18.3076 108.34Z" fill="#2C2F53"/>
<path d="M51.2107 30.9276C53.6636 30.9276 55.652 28.9333 55.652 26.4732C55.652 24.0131 53.6636 22.0188 51.2107 22.0188C48.7579 22.0188 46.7694 24.0131 46.7694 26.4732C46.7694 28.9333 48.7579 30.9276 51.2107 30.9276Z" fill="#2C2F53"/>
<path d="M155.605 51.9991C159.189 51.9991 162.094 49.0853 162.094 45.491C162.094 41.8967 159.189 38.9829 155.605 38.9829C152.021 38.9829 149.116 41.8967 149.116 45.491C149.116 49.0853 152.021 51.9991 155.605 51.9991Z" fill="#2C2F53"/>
<path d="M140.346 116.03C142.897 116.03 144.965 113.956 144.965 111.397C144.965 108.839 142.897 106.765 140.346 106.765C137.795 106.765 135.727 108.839 135.727 111.397C135.727 113.956 137.795 116.03 140.346 116.03Z" fill="#2C2F53"/>
<path d="M192.931 100.013C196.515 100.013 199.42 97.099 199.42 93.5047C199.42 89.9104 196.515 86.9966 192.931 86.9966C189.347 86.9966 186.442 89.9104 186.442 93.5047C186.442 97.099 189.347 100.013 192.931 100.013Z" fill="#2C2F53"/>
<path d="M95.5959 183.802C99.1796 183.802 102.085 180.888 102.085 177.294C102.085 173.7 99.1796 170.786 95.5959 170.786C92.0121 170.786 89.1069 173.7 89.1069 177.294C89.1069 180.888 92.0121 183.802 95.5959 183.802Z" fill="#2C2F53"/>
</g>
<defs>
<clipPath id="clip0_57_501">
<rect width="201" height="187" fill="white"/>
</clipPath>
</defs>
</svg>
