<svg width="20" height="20" viewBox="0 0 20 20" fill="none" xmlns="http://www.w3.org/2000/svg">
<rect width="20" height="20" rx="10" fill="white"/>
<g clip-path="url(#clip0_571_313)">
<path d="M5 7.90169C5.0086 7.44373 5.11737 6.99373 5.31811 6.58568C5.51885 6.17762 5.8063 5.82214 6.15885 5.54598L6.5351 5.21843C6.65915 5.09077 6.82685 5.01904 7.00165 5.01904C7.17645 5.01904 7.34416 5.09077 7.4682 5.21843C7.75719 5.54327 8.00504 5.90492 8.20569 6.29478C8.38639 6.56082 8.50958 6.86414 8.56688 7.18403C8.59032 7.33941 8.57498 7.49846 8.52228 7.64594C8.46959 7.79341 8.38128 7.92446 8.26586 8.02652L7.72408 8.49452C7.54388 8.60541 7.41195 8.78417 7.35586 8.99347C7.29977 9.20277 7.32384 9.42638 7.42306 9.61772C7.63882 10.1222 7.93382 10.5861 8.29599 10.9906C8.61844 11.4236 8.99847 11.8071 9.42475 12.1295C9.5984 12.2427 9.7856 12.3319 9.9816 12.3947C10.1058 12.4349 10.2386 12.4371 10.3641 12.4012C10.4895 12.3652 10.6023 12.2926 10.689 12.1919L11.2458 11.6614C11.3864 11.5183 11.5676 11.4259 11.7627 11.3978C11.9579 11.3697 12.1566 11.4075 12.3294 11.5054C12.6717 11.6837 12.9822 11.9211 13.2475 12.2075C13.4632 12.4105 13.6644 12.6295 13.8495 12.8627C13.9059 12.9194 13.9508 12.9873 13.9815 13.0624C14.0121 13.1374 14.0279 13.2181 14.0279 13.2995C14.0279 13.381 14.0121 13.4616 13.9815 13.5366C13.9508 13.6117 13.9059 13.6796 13.8495 13.7363C13.4746 14.1564 13.0314 14.505 12.5401 14.766C12.0625 14.9622 11.5464 15.037 11.0351 14.9843C10.0814 14.8522 9.18901 14.4224 8.47659 13.7519C7.3651 12.8299 6.43949 11.6902 5.75251 10.3978C5.29413 9.64887 5.03455 8.78787 5 7.90169Z" fill="#575E63"/>
</g>
<defs>
<clipPath id="clip0_571_313">
<rect width="9" height="10" fill="white" transform="translate(5 5)"/>
</clipPath>
</defs>
</svg>
