<svg width="20" height="20" viewBox="0 0 20 20" fill="none" xmlns="http://www.w3.org/2000/svg">
<path d="M0 10C0 4.47715 4.47715 0 10 0C15.5228 0 20 4.47715 20 10C20 15.5228 15.5228 20 10 20C4.47715 20 0 15.5228 0 10Z" fill="white"/>
<path d="M5.19149 7.19173C5.25604 7.12527 5.33249 7.07393 5.41612 7.04093C5.49974 7.00794 5.58874 6.99401 5.67756 6.99996H13.293C13.4717 6.99335 13.6459 7.06207 13.779 7.19173L9.47791 11.2032L5.19149 7.19173Z" fill="#575E63"/>
<path d="M5.19149 13.7922L8.38791 10.8356L9.49265 11.8904L9.97872 11.443L10.5679 10.8675H10.671L11.216 11.379L12.1293 12.226L13.1898 13.2169L13.7938 13.7762C13.7354 13.8427 13.6642 13.8945 13.5852 13.9276C13.5063 13.9608 13.4216 13.9745 13.3371 13.968H5.6923C5.60224 13.9764 5.51152 13.9652 5.42551 13.935C5.3395 13.9048 5.25994 13.8563 5.19149 13.7922Z" fill="#575E63"/>
<path d="M10.892 10.548L14 7.6233V13.4247L10.892 10.548Z" fill="#575E63"/>
<path d="M4.99999 7.6233L8.13748 10.548L5.02948 13.4087L4.99999 7.6233Z" fill="#575E63"/>
</svg>
