<svg width="20" height="20" viewBox="0 0 20 20" fill="none" xmlns="http://www.w3.org/2000/svg">
<rect width="20" height="20" rx="10" fill="white"/>
<path d="M9.50765 15.3265L8.85187 14.2109L6.51854 10.2311C6.26062 9.81805 6.09496 9.35533 6.03264 8.87388C5.97031 8.39244 6.01278 7.90331 6.15717 7.4394C6.30157 6.9755 6.54458 6.54752 6.86991 6.18398C7.19525 5.82045 7.59541 5.52983 8.04359 5.33157C8.71595 5.00119 9.47812 4.89382 10.2171 5.02536C10.956 5.15689 11.6324 5.52031 12.146 6.06179C12.6595 6.60326 12.9828 7.29389 13.068 8.03132C13.1531 8.76875 12.9956 9.51366 12.6188 10.1556L9.6449 15.2059L9.50765 15.3265ZM9.50765 10.0351C9.7321 10.0567 9.95864 10.0317 10.1727 9.96157C10.3868 9.89148 10.5837 9.7779 10.7507 9.62811C10.9177 9.47832 11.0512 9.29559 11.1425 9.09177C11.2338 8.88795 11.281 8.66757 11.281 8.44464C11.281 8.22172 11.2338 8.00125 11.1425 7.79742C11.0512 7.5936 10.9177 7.41087 10.7507 7.26108C10.5837 7.11129 10.3868 6.99771 10.1727 6.92763C9.95864 6.85754 9.7321 6.83248 9.50765 6.85411C9.29085 6.85191 9.07585 6.89328 8.8757 6.97566C8.67555 7.05804 8.4944 7.17976 8.34325 7.3334C8.19209 7.48705 8.07408 7.66949 7.99635 7.86956C7.91863 8.06964 7.88282 8.2832 7.89109 8.49737C7.88664 8.70437 7.92537 8.91006 8.00487 9.10161C8.08436 9.29317 8.20293 9.46645 8.35316 9.61072C8.5034 9.75499 8.68209 9.86713 8.87809 9.94013C9.07409 10.0131 9.28321 10.0455 9.4924 10.0351H9.50765Z" fill="#575E63"/>
</svg>
