<svg width="34" height="34" viewBox="0 0 34 34" fill="none" xmlns="http://www.w3.org/2000/svg">
<path d="M17.2677 0C17.5244 0.105343 17.7372 0.29551 17.8707 0.538788C18.0041 0.782065 18.0502 1.06375 18.0011 1.33685C17.9763 1.64631 18.0011 1.97433 18.0011 2.31164C21.5562 2.53793 24.9038 4.06464 27.4055 6.60071C29.9334 9.10244 31.457 12.4437 31.6883 15.9927H32.8674C33.5451 15.9927 33.9969 16.3919 34 16.983C34.0031 17.574 33.5513 17.9825 32.8828 17.9856H31.6883C31.4587 21.5338 29.9373 24.8749 27.4117 27.3776C24.9082 29.918 21.5573 31.448 17.998 31.676V32.8705C17.998 33.5389 17.5864 33.9938 16.9953 33.9876C16.4043 33.9814 16.0082 33.5327 16.0051 32.855V31.6853C12.4491 31.4576 9.10046 29.9325 6.59452 27.3993C4.05845 24.8976 2.53174 21.55 2.30545 17.9949C1.96814 17.9949 1.6463 17.9732 1.33066 17.9949C1.0568 18.0434 0.774594 17.9968 0.530874 17.8628C0.287154 17.7288 0.0965821 17.5156 -0.00927734 17.2584V16.7323C0.095682 16.4736 0.28643 16.2589 0.530987 16.1242C0.775545 15.9895 1.05901 15.9431 1.33375 15.9927C1.64321 16.0206 1.95267 15.9927 2.30855 15.9927C2.53795 12.4417 4.06309 9.09847 6.59452 6.59761C9.0989 4.06582 12.4451 2.5408 15.9989 2.31164C15.9989 1.97433 16.0206 1.6525 15.9989 1.33685C15.9494 1.06333 15.9956 0.781108 16.1298 0.537648C16.2639 0.294187 16.4778 0.104331 16.7354 0H17.2677ZM29.6738 15.9927C29.1632 9.39201 23.6982 4.65113 17.998 4.33549V5.42477C17.998 6.0932 17.5895 6.55429 17.0046 6.55739C16.4198 6.56048 16.0082 6.0963 16.0051 5.43096V4.31692C9.44462 4.82443 4.67278 10.2461 4.34476 15.9927H5.43405C6.10557 15.9927 6.56358 16.4012 6.56668 16.9861C6.56977 17.5709 6.10868 17.9825 5.44335 17.9856H4.32931C4.83372 24.5523 10.2678 29.3179 15.9742 29.6428C15.9742 29.6243 15.9989 29.6057 15.9989 29.5841C15.9803 29.2202 15.9803 28.8556 15.9989 28.4917C16.023 28.2432 16.1046 28.0038 16.2372 27.7923C16.3581 27.6318 16.5279 27.5148 16.7209 27.459C16.914 27.4032 17.12 27.4116 17.3079 27.4828C17.5022 27.5489 17.6713 27.6737 17.7916 27.84C17.9119 28.0064 17.9775 28.206 17.9794 28.4112C17.9794 28.8259 17.9794 29.2375 17.9794 29.649C24.5244 29.1508 29.3117 23.726 29.6366 17.9732H28.4824C28.3465 17.9803 28.2106 17.96 28.0828 17.9135C27.9549 17.8671 27.8378 17.7954 27.7382 17.7027C27.6386 17.61 27.5586 17.4983 27.503 17.3741C27.4475 17.25 27.4175 17.1159 27.4148 16.9799C27.4178 16.8432 27.4485 16.7085 27.505 16.584C27.5616 16.4594 27.6428 16.3477 27.7437 16.2554C27.8447 16.1631 27.9633 16.0923 28.0923 16.0472C28.2214 16.002 28.3583 15.9835 28.4948 15.9927C28.8754 15.9927 29.2653 15.9927 29.6738 15.9927Z" fill="url(#paint0_linear_525_278)"/>
<path d="M17.0108 8.00562C19.3943 8.01218 21.6778 8.96403 23.3603 10.6523C25.0427 12.3406 25.9867 14.6273 25.9851 17.0108C25.9769 19.3943 25.0241 21.6773 23.3355 23.3595C21.6469 25.0417 19.3603 25.9859 16.9768 25.9851C14.5936 25.9777 12.3106 25.0256 10.6283 23.3375C8.94597 21.6494 8.00173 19.3631 8.00256 16.9799C8.00912 14.5959 8.96139 12.3119 10.6503 10.6293C12.3393 8.94677 14.6268 8.00315 17.0108 8.00562ZM16.1536 17.3512C15.8442 17.0232 15.5564 16.7014 15.25 16.4012C15.1611 16.3019 15.0529 16.2218 14.9321 16.1657C14.8112 16.1096 14.6801 16.0787 14.5469 16.075C14.4137 16.0712 14.2811 16.0946 14.1573 16.1438C14.0334 16.193 13.9209 16.2669 13.8265 16.3609C13.7306 16.4571 13.6551 16.5717 13.6045 16.6978C13.554 16.8239 13.5294 16.9589 13.5323 17.0948C13.5351 17.2306 13.5654 17.3644 13.6213 17.4883C13.6772 17.6121 13.7575 17.7234 13.8575 17.8154C14.3773 18.3446 14.9034 18.8675 15.4295 19.3874C15.5244 19.5052 15.6448 19.5998 15.7816 19.6641C15.9184 19.7284 16.0681 19.7608 16.2193 19.7587C16.3704 19.7566 16.5192 19.7201 16.6542 19.6521C16.7892 19.584 16.9069 19.4861 16.9985 19.3658C17.4626 18.8799 17.9268 18.3817 18.3786 17.8866C18.9759 17.2491 19.5762 16.6116 20.1642 15.9679C20.2622 15.8735 20.3401 15.7603 20.3934 15.6351C20.4466 15.5099 20.4741 15.3752 20.4741 15.2392C20.4741 15.1031 20.4466 14.9684 20.3934 14.8432C20.3401 14.718 20.2622 14.6048 20.1642 14.5104C20.0632 14.4199 19.9451 14.3505 19.8169 14.3064C19.6887 14.2623 19.5529 14.2443 19.4176 14.2536C19.2823 14.2628 19.1503 14.299 19.0292 14.3602C18.9082 14.4213 18.8006 14.506 18.7129 14.6094C18.5829 14.7456 18.4591 14.8879 18.3291 15.0241L16.1536 17.3512Z" fill="url(#paint1_linear_525_278)"/>
<defs>
<linearGradient id="paint0_linear_525_278" x1="16.9954" y1="0" x2="16.9954" y2="33.9877" gradientUnits="userSpaceOnUse">
<stop stop-color="#12C9E3"/>
<stop offset="1" stop-color="#227FBC"/>
</linearGradient>
<linearGradient id="paint1_linear_525_278" x1="16.9938" y1="8.00562" x2="16.9938" y2="25.9851" gradientUnits="userSpaceOnUse">
<stop stop-color="#12C9E3"/>
<stop offset="1" stop-color="#227FBC"/>
</linearGradient>
</defs>
</svg>
