<svg width="22" height="38" viewBox="0 0 22 38" fill="none" xmlns="http://www.w3.org/2000/svg">
<path d="M11.0376 0C11.1399 0.116653 11.2491 0.226799 11.3646 0.329811C14.7845 3.17006 18.2089 6.0088 21.6377 8.84604C21.7392 8.91882 21.82 9.01776 21.872 9.13282C21.924 9.24787 21.9453 9.37494 21.9337 9.50113C21.9337 9.88063 21.9337 10.2647 21.9337 10.6939H18.2266V15.537C13.3661 12.614 8.57201 12.614 3.73369 15.537V10.73H0.0132751C0.0132751 10.1969 0.0132751 9.70444 0.0132751 9.21651C0.0132751 9.10356 0.159064 8.97706 0.265109 8.8867L10.6178 0.302705C10.715 0.216865 10.799 0.112951 10.8873 0.0180754L11.0376 0Z" fill="url(#paint0_linear_510_272)"/>
<path d="M10.9934 37.9819C9.54765 37.9784 8.11685 37.6832 6.78291 37.1133C5.44898 36.5433 4.23814 35.7099 3.21978 34.6606C2.20141 33.6114 1.39554 32.367 0.848335 30.9988C0.301132 29.6306 0.0233509 28.1654 0.030912 26.6872C0.0472755 23.7111 1.21681 20.863 3.28326 18.767C5.34971 16.6711 8.14452 15.4982 11.0552 15.5054C13.9658 15.5186 16.7525 16.7119 18.8036 18.8235C20.8546 20.9351 22.0026 23.7924 21.9956 26.7685C21.9938 28.2436 21.7078 29.7039 21.1538 31.0659C20.5999 32.428 19.7888 33.665 18.7671 34.7064C17.7453 35.7478 16.5329 36.5731 15.199 37.1351C13.8651 37.6971 12.436 37.9849 10.9934 37.9819ZM9.92407 20.6197L9.69872 20.6558C8.8265 20.8189 8.0432 21.3037 7.49748 22.0183C6.95176 22.7328 6.68159 23.6274 6.73828 24.5322C6.80248 25.4497 7.20148 26.3091 7.85619 26.9401C8.5109 27.571 9.37352 27.9274 10.2731 27.9386C10.7547 27.9386 11.2408 27.9386 11.7224 27.9386C12.0971 27.9446 12.4542 28.1019 12.7158 28.3761C12.9774 28.6504 13.1222 29.0194 13.1187 29.4024C13.1129 29.7839 12.9594 30.1474 12.6918 30.4134C12.4243 30.6793 12.0646 30.8259 11.6915 30.8211C11.2055 30.8211 10.7194 30.8211 10.2378 30.8211C9.97517 30.8199 9.71931 30.736 9.50503 30.5808C9.29075 30.4256 9.1285 30.2066 9.04036 29.9536C8.98187 29.7896 8.93317 29.6222 8.89454 29.4521H6.76921C6.75155 30.1302 6.93821 30.7973 7.30387 31.3632C7.5938 31.8303 7.98244 32.2249 8.44125 32.5181C8.90005 32.8113 9.41734 32.9956 9.955 33.0574V34.8646H12.1157V33.0574L12.4692 32.9761C13.2561 32.8019 13.9634 32.3634 14.4783 31.7305C14.9932 31.0976 15.2861 30.3067 15.3103 29.4838C15.3331 28.6563 15.0775 27.8459 14.5861 27.188C14.0947 26.5301 13.3973 26.0647 12.6105 25.8695C11.8705 25.7575 11.1226 25.7091 10.3747 25.7249C10.0014 25.7311 9.64063 25.5874 9.3697 25.3247C9.09877 25.0621 8.93929 24.7013 8.92547 24.3198C8.92076 24.1273 8.9537 23.9358 9.02237 23.7565C9.09104 23.5772 9.19404 23.4137 9.32534 23.2757C9.45664 23.1377 9.61358 23.0278 9.78696 22.9527C9.96034 22.8775 10.1467 22.8385 10.335 22.8379C10.7768 22.8154 11.2187 22.8154 11.6606 22.8379C12.0034 22.8351 12.3352 22.961 12.5934 23.1916C12.8515 23.4223 13.018 23.7417 13.0612 24.0894C13.0612 24.1481 13.0966 24.2023 13.1143 24.2701H15.2396C15.2656 23.6061 15.0913 22.95 14.7403 22.3907C14.4571 21.9106 14.0717 21.5021 13.6126 21.1954C13.1536 20.8888 12.6329 20.692 12.0891 20.6197V18.8125H9.91522L9.92407 20.6197Z" fill="url(#paint1_linear_510_272)"/>
<defs>
<linearGradient id="paint0_linear_510_272" x1="10.975" y1="0" x2="10.975" y2="15.537" gradientUnits="userSpaceOnUse">
<stop stop-color="#227FBC"/>
<stop offset="1" stop-color="#01A8C9"/>
</linearGradient>
<linearGradient id="paint1_linear_510_272" x1="11.0132" y1="15.5054" x2="11.0132" y2="37.9819" gradientUnits="userSpaceOnUse">
<stop stop-color="#227FBC"/>
<stop offset="1" stop-color="#01A8C9"/>
</linearGradient>
</defs>
</svg>
