<svg width="30" height="30" viewBox="0 0 30 30" fill="none" xmlns="http://www.w3.org/2000/svg">
<g clip-path="url(#clip0_250_44)">
<path d="M13.2937 29.9763C12.672 29.8599 12.037 29.7832 11.4418 29.6192C6.0291 28.1412 2.53089 24.7082 0.947114 19.3202C0.909504 19.2082 0.894779 19.0899 0.90384 18.9721C0.912902 18.8543 0.945553 18.7396 0.99985 18.6347C1.05415 18.5298 1.12898 18.4369 1.2199 18.3615C1.31082 18.2861 1.41598 18.2298 1.52911 18.1959C1.6472 18.1612 1.77126 18.1517 1.89326 18.1679C2.01525 18.1842 2.13248 18.2258 2.23741 18.2901C2.34234 18.3544 2.43264 18.44 2.50248 18.5413C2.57231 18.6426 2.62015 18.7575 2.64289 18.8784C3.24171 21.161 4.4744 23.2274 6.19843 24.8387C8.28322 26.8275 10.9963 28.0269 13.8704 28.2303C16.4366 28.4313 19.0027 27.841 21.2231 26.5387C23.4434 25.2365 25.2112 23.285 26.2884 20.9472C26.3413 20.8334 26.3916 20.717 26.4683 20.5371L25.8386 20.8017C25.3095 21.0186 24.8016 20.8467 24.5979 20.3811C24.3942 19.9154 24.5979 19.4128 25.1561 19.18C25.9639 18.8273 26.7725 18.4851 27.582 18.1535C28.1799 17.889 28.6402 18.0874 28.8889 18.6826C29.2416 19.501 29.5865 20.3202 29.9233 21.1403C29.9794 21.2492 30.0123 21.3685 30.0198 21.4907C30.0274 21.6129 30.0094 21.7354 29.9671 21.8503C29.9248 21.9652 29.8591 22.0701 29.7742 22.1583C29.6892 22.2465 29.5868 22.316 29.4736 22.3625C29.3625 22.4076 29.2435 22.4295 29.1237 22.4271C29.0039 22.4246 28.8858 22.3979 28.7767 22.3484C28.6676 22.2989 28.5696 22.2277 28.4889 22.1392C28.4081 22.0507 28.3462 21.9466 28.3069 21.8334C28.2355 21.6747 28.1667 21.5133 28.082 21.3043C27.8651 21.7329 27.6852 22.135 27.4656 22.5186C25.0565 26.7514 21.4409 29.2206 16.6191 29.926C16.5526 29.9387 16.4871 29.9564 16.4233 29.9789L13.2937 29.9763Z" fill="url(#paint0_linear_250_44)"/>
<path d="M12.6481 15.8943H12.3042C11.3756 15.8943 10.4524 15.8943 9.51852 15.8943C9.34188 15.9092 9.1649 15.8698 9.01125 15.7814C8.8576 15.693 8.73462 15.5598 8.65873 15.3996C8.57569 15.2371 8.54581 15.0526 8.57335 14.8722C8.60088 14.6918 8.68443 14.5246 8.81216 14.3943C10.4436 12.4243 12.0749 10.4516 13.7063 8.47629C14.4912 7.52744 15.276 6.57859 16.0608 5.62973C16.3757 5.24878 16.7302 5.13238 17.119 5.27524C17.5079 5.41809 17.6957 5.73555 17.6957 6.23026V14.0795H18.6852C19.3889 14.0795 20.0926 14.0795 20.8016 14.0795C20.9829 14.0609 21.1656 14.0983 21.325 14.1868C21.4845 14.2753 21.6129 14.4105 21.6931 14.5742C21.7762 14.742 21.8043 14.9318 21.7734 15.1165C21.7425 15.3012 21.6543 15.4715 21.5212 15.6033C20.3977 16.9578 19.2769 18.3132 18.1587 19.6694L14.3095 24.3229C13.9762 24.725 13.6296 24.852 13.2354 24.7012C12.8413 24.5504 12.6561 24.2356 12.6561 23.717V15.8943H12.6481Z" fill="url(#paint1_linear_250_44)"/>
<path d="M1.94973 8.63488C2.2328 8.10578 2.47883 7.59784 2.74338 7.12694C5.20105 3.0952 8.76192 0.714243 13.4498 0.113714C20.5132 -0.793693 27.299 3.83329 29.0582 10.6957C29.0963 10.8098 29.1111 10.9303 29.1017 11.0502C29.0924 11.1701 29.0591 11.2868 29.0039 11.3936C28.9486 11.5004 28.8725 11.5951 28.7801 11.6719C28.6876 11.7488 28.5807 11.8064 28.4656 11.8412C28.3498 11.8747 28.2283 11.8837 28.1088 11.8677C27.9894 11.8518 27.8745 11.8112 27.7715 11.7485C27.6686 11.6858 27.5798 11.6025 27.5107 11.5037C27.4417 11.4049 27.3939 11.2928 27.3704 11.1746C26.8576 9.19943 25.8642 7.3818 24.4788 5.88356C21.664 2.8862 18.1826 1.45234 14.082 1.83594C9.32013 2.28303 5.88095 4.76451 3.73809 9.03699C3.70899 9.09784 3.68786 9.16133 3.63495 9.30154C3.85717 9.20631 4.0291 9.12959 4.20106 9.0608C4.30908 9.00821 4.42661 8.97792 4.5466 8.97175C4.66658 8.96558 4.78656 8.98366 4.89941 9.02489C5.01225 9.06613 5.11562 9.12968 5.20336 9.21176C5.29109 9.29384 5.36141 9.39275 5.41007 9.5026C5.4568 9.61423 5.4801 9.73426 5.47853 9.85526C5.47696 9.97626 5.45054 10.0957 5.40093 10.206C5.35132 10.3164 5.27959 10.4154 5.19015 10.4969C5.1007 10.5784 4.99547 10.6407 4.88097 10.6799C4.0397 11.0414 3.19488 11.3941 2.34656 11.7381C2.23684 11.7941 2.11643 11.8261 1.99336 11.8318C1.87028 11.8376 1.74739 11.817 1.63293 11.7714C1.51846 11.7258 1.41505 11.6563 1.32963 11.5675C1.2442 11.4787 1.17872 11.3727 1.13757 11.2566C0.775141 10.4259 0.378316 9.60313 0.0793738 8.74334C-0.134912 8.10578 -0.0185188 7.74334 0.5 7.51318C0.973545 7.2989 1.45767 7.54229 1.69312 8.0899C1.79101 8.25657 1.86243 8.42588 1.94973 8.63488Z" fill="url(#paint2_linear_250_44)"/>
</g>
<defs>
<linearGradient id="paint0_linear_250_44" x1="15.4614" y1="18.0386" x2="15.4614" y2="29.9789" gradientUnits="userSpaceOnUse">
<stop stop-color="#12C9E3"/>
<stop offset="1" stop-color="#227FBC"/>
</linearGradient>
<linearGradient id="paint1_linear_250_44" x1="15.1745" y1="5.21631" x2="15.1745" y2="24.7626" gradientUnits="userSpaceOnUse">
<stop stop-color="#12C9E3"/>
<stop offset="1" stop-color="#227FBC"/>
</linearGradient>
<linearGradient id="paint2_linear_250_44" x1="14.541" y1="0.000244141" x2="14.541" y2="11.8754" gradientUnits="userSpaceOnUse">
<stop stop-color="#12C9E3"/>
<stop offset="1" stop-color="#227FBC"/>
</linearGradient>
<clipPath id="clip0_250_44">
<rect width="30" height="29.9762" fill="white"/>
</clipPath>
</defs>
</svg>
