<svg width="30" height="28" viewBox="0 0 30 28" fill="none" xmlns="http://www.w3.org/2000/svg">
<path d="M25.5629 4.36831C23.0663 1.83828 19.7349 0.303144 16.1901 0.0492774C13.2634 -0.208663 10.3271 0.422829 7.76508 1.86117C4.93027 3.40021 2.67662 5.82466 1.34804 8.7646C0.00692918 11.6274 -0.372384 14.8473 0.2668 17.9434C0.918698 21.3433 2.75152 24.403 5.44115 26.5815C5.96427 26.9971 6.50786 27.3862 7.06994 27.7473C7.21219 27.8488 7.37345 27.9205 7.54405 27.9582C7.71466 27.9958 7.89117 27.9987 8.0629 27.9666C8.23464 27.9344 8.39807 27.868 8.54353 27.7712C8.68899 27.6744 8.81351 27.5492 8.90948 27.4032C9.09432 27.1247 9.16664 26.7864 9.11191 26.4567C9.05719 26.1269 8.87945 25.8302 8.61458 25.6264C8.50099 25.5342 8.38137 25.4498 8.25651 25.3736L8.17226 25.3104C5.67556 23.6717 3.86138 21.1791 3.06922 18.2991C2.27706 15.4191 2.5612 12.3491 3.86849 9.66353C6.05197 5.26724 9.76598 2.89352 14.9193 2.6407L15.502 2.68986C15.9162 2.68986 16.3234 2.75307 16.7236 2.80925C19.3948 3.14744 21.8712 4.38596 23.7444 6.32066C25.0405 7.60528 26.0294 9.16636 26.6373 10.8872C27.2452 12.608 27.4563 14.444 27.2548 16.258C27.0243 18.8171 25.9784 21.2346 24.271 23.1544C23.4939 24.0387 22.5986 24.8115 21.6101 25.4508C21.2464 25.6755 20.9806 26.0291 20.8659 26.4411C20.8409 26.6715 20.869 26.9047 20.9481 27.1226C21.0272 27.3405 21.1552 27.5374 21.3223 27.6981C21.5308 27.8969 21.8065 28.0098 22.0945 28.0142C22.419 28.0016 22.7322 27.8915 22.9932 27.6981C27.5427 24.6783 29.8877 20.4365 29.9579 15.0992C30.0096 13.1034 29.6455 11.1187 28.8889 9.27129C28.1322 7.42387 26.9996 5.75414 25.5629 4.36831Z" fill="url(#paint0_linear_510_273)"/>
<path d="M19.7636 14.9304C19.759 14.3045 19.6311 13.6857 19.3872 13.1093C19.1433 12.5329 18.7882 12.0103 18.3421 11.5713C17.8961 11.1323 17.3679 10.7856 16.7878 10.551C16.2077 10.3164 15.5871 10.1985 14.9614 10.204C13.7038 10.2207 12.5039 10.7345 11.6238 11.6333C10.7438 12.532 10.255 13.7426 10.2644 15.0006C10.2718 16.2585 10.778 17.462 11.6718 18.3469C12.5656 19.2317 13.774 19.7256 15.0316 19.72C15.657 19.7172 16.2756 19.591 16.8522 19.3487C17.4287 19.1063 17.9517 18.7525 18.3913 18.3076C18.8309 17.8626 19.1785 17.3353 19.4139 16.7558C19.6494 16.1763 19.7682 15.5559 19.7636 14.9304Z" fill="url(#paint1_linear_510_273)"/>
<path d="M24.3693 12.0162C23.8475 10.2336 22.8157 8.64281 21.401 7.43982C19.9862 6.23683 18.2505 5.47427 16.4077 5.24617C14.2862 4.87586 12.1021 5.27691 10.2504 6.37684C8.73195 7.20229 7.46184 8.41899 6.57177 9.9008C5.6817 11.3826 5.2041 13.0756 5.18843 14.8042V14.8534C5.18454 16.4017 5.54475 17.9293 6.23993 19.3127C6.9351 20.6961 7.94571 21.8966 9.19027 22.8173C9.61105 23.1266 10.0546 23.4036 10.5172 23.646L10.6927 23.7443C10.8554 23.8396 11.0356 23.9011 11.2226 23.9252C11.4095 23.9494 11.5995 23.9356 11.781 23.8847C11.9411 23.8347 12.0895 23.753 12.2173 23.6444C12.3452 23.5358 12.4499 23.4026 12.5252 23.2527C12.6045 23.097 12.6509 22.9267 12.6614 22.7523C12.672 22.5779 12.6465 22.4032 12.5865 22.2391C12.5266 22.075 12.4334 21.9251 12.313 21.7986C12.1925 21.6721 12.0473 21.5718 11.8863 21.504L11.5774 21.3425C10.7316 20.8839 9.98564 20.2615 9.38293 19.5115C8.78022 18.7616 8.33289 17.899 8.06695 16.9743C7.7944 16.0596 7.70678 15.0997 7.80924 14.1507C7.91171 13.2018 8.20218 12.2827 8.66371 11.4473C9.55963 9.78989 11.0679 8.54849 12.8663 7.9882C14.6648 7.42791 16.611 7.59314 18.2893 8.44858C19.837 9.22006 21.0579 10.5198 21.7313 12.113C22.4047 13.7062 22.4862 15.4877 21.9612 17.1358C21.6686 18.0667 21.1905 18.9287 20.5558 19.6698C19.9211 20.4109 19.143 21.0157 18.2682 21.4478C18.0943 21.5056 17.9346 21.5998 17.7999 21.724C17.6651 21.8483 17.5583 21.9998 17.4866 22.1685C17.4149 22.3372 17.3798 22.5193 17.3839 22.7026C17.3879 22.8859 17.4309 23.0662 17.51 23.2316C17.5801 23.3882 17.6827 23.5281 17.811 23.6419C17.9393 23.7557 18.0904 23.8409 18.2542 23.8918C18.3684 23.9243 18.4865 23.9408 18.6052 23.9409C18.9177 23.9339 19.2218 23.839 19.4828 23.667L19.6092 23.5968C20.2124 23.2531 20.7896 22.8658 21.3363 22.438C22.8178 21.1974 23.8971 19.5442 24.4372 17.6885C24.9772 15.8328 24.9536 13.8584 24.3693 12.0162Z" fill="url(#paint2_linear_510_273)"/>
<defs>
<linearGradient id="paint0_linear_510_273" x1="14.9634" y1="-0.00708008" x2="14.9634" y2="28.0142" gradientUnits="userSpaceOnUse">
<stop stop-color="#12C9E3"/>
<stop offset="1" stop-color="#227FBC"/>
</linearGradient>
<linearGradient id="paint1_linear_510_273" x1="15.014" y1="10.2039" x2="15.014" y2="19.72" gradientUnits="userSpaceOnUse">
<stop stop-color="#12C9E3"/>
<stop offset="1" stop-color="#227FBC"/>
</linearGradient>
<linearGradient id="paint2_linear_510_273" x1="15.007" y1="5.11182" x2="15.007" y2="23.9409" gradientUnits="userSpaceOnUse">
<stop stop-color="#12C9E3"/>
<stop offset="1" stop-color="#227FBC"/>
</linearGradient>
</defs>
</svg>
