<svg width="35" height="32" viewBox="0 0 35 32" fill="none" xmlns="http://www.w3.org/2000/svg">
<path d="M21.7147 18.9034C21.7137 19.4549 21.603 20.0008 21.3889 20.5096C21.1748 21.0183 20.8616 21.4798 20.4674 21.8674C20.0731 22.255 19.6056 22.561 19.0918 22.7678C18.5781 22.9746 18.0282 23.078 17.4741 23.0722C16.923 23.0674 16.3783 22.9545 15.871 22.7402C15.3638 22.5259 14.9039 22.2142 14.5177 21.823C14.1315 21.4317 13.8265 20.9686 13.6201 20.4601C13.4138 19.9516 13.3101 19.4075 13.315 18.8591C13.3228 17.7521 13.7712 16.6934 14.5618 15.9148C15.3525 15.1361 16.4211 14.7012 17.5334 14.7051C18.6469 14.711 19.7126 15.1563 20.4966 15.9435C21.2805 16.7306 21.7186 17.7951 21.7147 18.9034Z" fill="url(#paint0_linear_510_276)"/>
<path d="M32.3904 18.6673C32.3894 19.1876 32.2851 19.7025 32.0835 20.1825C31.8819 20.6625 31.5869 21.0981 31.2156 21.4643C30.8442 21.8304 30.4038 22.1199 29.9197 22.3161C29.4355 22.5123 28.9171 22.6113 28.3944 22.6074C27.3456 22.5996 26.3425 22.1795 25.6037 21.4387C24.8649 20.6978 24.4503 19.6963 24.4503 18.6526C24.4513 18.132 24.5555 17.6167 24.7571 17.1363C24.9586 16.6559 25.2534 16.2198 25.6247 15.853C25.9959 15.4863 26.4363 15.1961 26.9205 14.9991C27.4047 14.8021 27.9232 14.7022 28.4463 14.7051C29.4957 14.7149 30.4989 15.1366 31.2375 15.8786C31.9761 16.6206 32.3904 17.6228 32.3904 18.6673Z" fill="url(#paint1_linear_510_276)"/>
<path d="M11.9805 7.54802C11.9573 7.80687 11.8566 8.05283 11.6913 8.25408C11.5261 8.45534 11.304 8.60263 11.0538 8.67691C10.4116 8.91813 9.8262 9.28825 9.33389 9.76424C8.84159 10.2402 8.45295 10.8119 8.19211 11.4438C8.02374 11.8754 7.89955 12.3228 7.82143 12.7793C7.80119 12.9528 7.74676 13.1207 7.66124 13.2732C7.57573 13.4258 7.46083 13.5601 7.32309 13.6683C7.18536 13.7766 7.02753 13.8568 6.85861 13.9043C6.68969 13.9518 6.513 13.9656 6.33869 13.9451C6.16258 13.9232 5.99293 13.8653 5.84031 13.7752C5.68769 13.685 5.55539 13.5645 5.45171 13.4212C5.34803 13.2778 5.27517 13.1147 5.23772 12.942C5.20027 12.7694 5.19903 12.5909 5.23406 12.4177C5.40401 11.0292 5.95754 9.71483 6.83313 8.62067C7.70872 7.52651 8.87207 6.69546 10.1938 6.21991C10.4016 6.13654 10.6275 6.10783 10.8497 6.13655C11.0719 6.16527 11.2829 6.25046 11.4624 6.3839C11.6419 6.51734 11.7839 6.69455 11.8747 6.89844C11.9654 7.10233 12.0018 7.32604 11.9805 7.54802Z" fill="url(#paint2_linear_510_276)"/>
<path d="M28.6836 13.9377C28.5127 13.9659 28.3379 13.9593 28.1696 13.9183C28.0014 13.8774 27.8433 13.803 27.7047 13.6996C27.5661 13.5961 27.4501 13.4659 27.3635 13.3166C27.2769 13.1673 27.2215 13.0021 27.2008 12.831C27.0832 11.8916 26.7084 11.0026 26.1174 10.2609C25.5264 9.51919 24.742 8.95339 23.8498 8.6253C23.5598 8.51701 23.319 8.30794 23.1718 8.03669C23.0246 7.76544 22.9811 7.45035 23.0492 7.14962C23.122 6.85271 23.2949 6.58964 23.5392 6.40433C23.7834 6.21902 24.0841 6.12268 24.3911 6.1314C24.5297 6.15054 24.6662 6.18265 24.7988 6.22733C26.1235 6.71136 27.2879 7.5506 28.1633 8.65223C29.0386 9.75386 29.5907 11.075 29.7586 12.4694C29.785 12.6361 29.7781 12.8063 29.7383 12.9703C29.6986 13.1344 29.6267 13.289 29.5269 13.4253C29.4271 13.5617 29.3012 13.6772 29.1565 13.7651C29.0118 13.853 28.8511 13.9117 28.6836 13.9377Z" fill="url(#paint3_linear_510_276)"/>
<path d="M24.4207 29.056C24.3351 29.7558 24.0055 30.4034 23.4893 30.8862C22.9732 31.3689 22.3032 31.656 21.5961 31.6975C20.8177 31.7934 20.0318 31.8524 19.246 31.9262C19.1459 31.9394 19.0469 31.9592 18.9494 31.9852H16.2138L14.1083 31.7786C13.7352 31.7456 13.3641 31.6939 12.9962 31.6237C12.375 31.5067 11.8075 31.1952 11.3768 30.7346C10.946 30.274 10.6743 29.6885 10.6016 29.0634C10.52 28.1724 10.52 27.276 10.6016 26.385C10.6673 25.8136 10.9341 25.2838 11.3548 24.8894C11.7754 24.4951 12.3228 24.2617 12.8999 24.2306C15.3315 24.1568 17.7706 24.142 20.2097 24.1199C20.8251 24.1199 21.4404 24.1715 22.0557 24.2158C22.6644 24.2583 23.2374 24.5172 23.6702 24.9452C24.103 25.3732 24.3667 25.9419 24.4133 26.5474C24.4713 27.3825 24.4738 28.2205 24.4207 29.056Z" fill="url(#paint4_linear_510_276)"/>
<path d="M10.8907 23.6993C10.8663 23.7401 10.8364 23.7773 10.8018 23.81C10.3675 24.138 10.0128 24.5589 9.76382 25.0416C9.51489 25.5244 9.37807 26.0566 9.3635 26.599C9.34254 27.606 9.3772 28.6135 9.4673 29.6167C9.55643 30.0376 9.6958 30.4463 9.88247 30.8342C9.50437 30.8711 9.14111 30.9227 8.73336 30.9522C6.65018 31.1146 4.55502 31.0328 2.491 30.7088C1.8685 30.6249 1.2922 30.3359 0.8541 29.8878C0.416005 29.4398 0.141388 28.8586 0.0741338 28.237C0.0741338 28.178 0.0741736 28.1116 0.0222778 28.0452V26.0013C0.0222778 25.8759 0.0815764 25.7431 0.103817 25.6103C0.212736 25.1063 0.479581 24.6496 0.865955 24.3062C1.25233 23.9628 1.73826 23.7503 2.25376 23.6993C5.06308 23.5185 7.88121 23.5185 10.6905 23.6993H10.8907Z" fill="url(#paint5_linear_510_276)"/>
<path d="M34.9333 28.3846C34.8351 29.0049 34.5316 29.5748 34.0709 30.0039C33.6103 30.4329 33.0188 30.6966 32.3904 30.7531C29.9879 31.1039 27.5484 31.1263 25.1398 30.8195C25.8812 29.3438 25.8145 27.7427 25.6366 26.1711C25.5179 25.303 25.0728 24.5119 24.3911 23.9576L24.1168 23.7141C24.3837 23.7141 24.5986 23.6625 24.8062 23.6551C27.4248 23.5358 30.0479 23.553 32.6647 23.7067C33.2693 23.7303 33.8429 23.9794 34.2715 24.4045C34.7 24.8297 34.9522 25.3997 34.9778 26.0014C35.0322 26.7956 35.0173 27.593 34.9333 28.3846Z" fill="url(#paint6_linear_510_276)"/>
<path d="M10.5719 18.6673C10.57 19.1873 10.465 19.7018 10.263 20.1813C10.0611 20.6609 9.76609 21.0961 9.39493 21.4621C9.02377 21.828 8.58374 22.1176 8.10002 22.3141C7.6163 22.5106 7.09839 22.6102 6.57593 22.6073C5.52589 22.5995 4.52166 22.1784 3.78263 21.436C3.0436 20.6936 2.62985 19.6902 2.63184 18.6452C2.63773 17.5956 3.06182 16.5912 3.811 15.8525C4.56018 15.1139 5.57324 14.7012 6.62783 14.7051C7.67726 14.7148 8.68039 15.1366 9.419 15.8786C10.1576 16.6206 10.572 17.6228 10.5719 18.6673Z" fill="url(#paint7_linear_510_276)"/>
<path d="M17.563 0C14.5976 0 11.5357 3.99908 11.5357 3.99908C11.5357 3.99908 14.6272 7.99816 17.563 7.99816C20.4989 7.99816 23.5904 3.99908 23.5904 3.99908C23.5904 3.99908 20.4692 0 17.563 0ZM17.563 6.49297C16.8984 6.49297 16.2611 6.23022 15.7912 5.76253C15.3212 5.29483 15.0572 4.6605 15.0572 3.99908C15.0572 3.33766 15.3212 2.70333 15.7912 2.23563C16.2611 1.76794 16.8984 1.50519 17.563 1.50519C18.2276 1.50519 18.865 1.76794 19.3349 2.23563C19.8048 2.70333 20.0689 3.33766 20.0689 3.99908C20.0689 4.6605 19.8048 5.29483 19.3349 5.76253C18.865 6.23022 18.2276 6.49297 17.563 6.49297Z" fill="url(#paint8_linear_510_276)"/>
<path d="M19.0457 3.96951C19.0467 4.15326 19.0112 4.3354 18.9412 4.50544C18.8712 4.67548 18.7682 4.83008 18.6379 4.96035C18.5077 5.09063 18.3529 5.19401 18.1825 5.26456C18.012 5.3351 17.8292 5.3714 17.6445 5.3714C17.4596 5.3714 17.2764 5.33514 17.1055 5.26469C16.9346 5.19424 16.7793 5.09098 16.6485 4.9608C16.5177 4.83062 16.4139 4.67608 16.3432 4.50599C16.2724 4.33591 16.236 4.15361 16.236 3.96951C16.236 3.59771 16.3843 3.24113 16.6485 2.97822C16.9127 2.71532 17.271 2.56763 17.6445 2.56763C17.8292 2.56762 18.012 2.60393 18.1825 2.67447C18.3529 2.74501 18.5077 2.8484 18.6379 2.97867C18.7682 3.10895 18.8712 3.26354 18.9412 3.43359C19.0112 3.60363 19.0467 3.78576 19.0457 3.96951Z" fill="url(#paint9_linear_510_276)"/>
<defs>
<linearGradient id="paint0_linear_510_276" x1="17.5148" y1="14.7051" x2="17.5148" y2="23.0724" gradientUnits="userSpaceOnUse">
<stop stop-color="#12C9E3"/>
<stop offset="1" stop-color="#227FBC"/>
</linearGradient>
<linearGradient id="paint1_linear_510_276" x1="28.4204" y1="14.7051" x2="28.4204" y2="22.6075" gradientUnits="userSpaceOnUse">
<stop stop-color="#12C9E3"/>
<stop offset="1" stop-color="#227FBC"/>
</linearGradient>
<linearGradient id="paint2_linear_510_276" x1="8.59755" y1="6.12573" x2="8.59755" y2="13.9543" gradientUnits="userSpaceOnUse">
<stop stop-color="#12C9E3"/>
<stop offset="1" stop-color="#227FBC"/>
</linearGradient>
<linearGradient id="paint3_linear_510_276" x1="26.3961" y1="6.13086" x2="26.3961" y2="13.9548" gradientUnits="userSpaceOnUse">
<stop stop-color="#12C9E3"/>
<stop offset="1" stop-color="#227FBC"/>
</linearGradient>
<linearGradient id="paint4_linear_510_276" x1="17.4996" y1="24.1199" x2="17.4996" y2="31.9852" gradientUnits="userSpaceOnUse">
<stop stop-color="#12C9E3"/>
<stop offset="1" stop-color="#227FBC"/>
</linearGradient>
<linearGradient id="paint5_linear_510_276" x1="5.4565" y1="23.5637" x2="5.4565" y2="31.0333" gradientUnits="userSpaceOnUse">
<stop stop-color="#12C9E3"/>
<stop offset="1" stop-color="#227FBC"/>
</linearGradient>
<linearGradient id="paint6_linear_510_276" x1="29.5633" y1="23.5769" x2="29.5633" y2="31.034" gradientUnits="userSpaceOnUse">
<stop stop-color="#12C9E3"/>
<stop offset="1" stop-color="#227FBC"/>
</linearGradient>
<linearGradient id="paint7_linear_510_276" x1="6.60188" y1="14.7051" x2="6.60188" y2="22.6074" gradientUnits="userSpaceOnUse">
<stop stop-color="#12C9E3"/>
<stop offset="1" stop-color="#227FBC"/>
</linearGradient>
<linearGradient id="paint8_linear_510_276" x1="17.563" y1="0" x2="17.563" y2="7.99816" gradientUnits="userSpaceOnUse">
<stop stop-color="#12C9E3"/>
<stop offset="1" stop-color="#227FBC"/>
</linearGradient>
<linearGradient id="paint9_linear_510_276" x1="17.6409" y1="2.56763" x2="17.6409" y2="5.3714" gradientUnits="userSpaceOnUse">
<stop stop-color="#12C9E3"/>
<stop offset="1" stop-color="#227FBC"/>
</linearGradient>
</defs>
</svg>
