<svg width="30" height="30" viewBox="0 0 30 30" fill="none" xmlns="http://www.w3.org/2000/svg">
<g clip-path="url(#clip0_250_48)">
<path d="M15.8585 29.9693V23.8185C15.4078 23.8185 14.9724 23.8185 14.537 23.8185C14.3263 23.8178 14.1187 23.7669 13.9316 23.6699C13.7445 23.5729 13.5832 23.4327 13.4612 23.2609C13.3391 23.0891 13.2599 22.8907 13.2299 22.6821C13.2 22.4734 13.2202 22.2607 13.289 22.0615C13.3734 21.8101 13.5331 21.5907 13.7465 21.4332C13.9599 21.2758 14.2167 21.1879 14.4818 21.1815C14.9264 21.1815 15.3741 21.1815 15.8555 21.1815V15.8831H19.4184C19.4884 16.3198 19.65 16.7369 19.8925 17.1068C20.1351 17.4767 20.4531 17.7911 20.8258 18.0294C21.3879 18.3896 22.0521 18.5564 22.7177 18.5047C24.0852 18.428 25.094 17.5082 25.5632 15.8831H30.0031C29.8865 16.6496 29.8221 17.4162 29.6504 18.1429C28.4546 23.2297 25.4436 26.8111 20.6511 28.8747C19.3113 29.4436 17.8888 29.7935 16.4381 29.9111C16.3622 29.9212 16.2874 29.9376 16.2142 29.9601L15.8585 29.9693Z" fill="url(#paint0_linear_250_48)"/>
<path d="M0 13.7582C0.0950531 13.1449 0.15023 12.5317 0.291277 11.9491C1.71401 5.96688 5.40269 2.13716 11.2991 0.43847C11.8176 0.304184 12.344 0.201784 12.8751 0.131847C13.2676 0.067456 13.6662 0.0459935 14.1016 0V6.15699C14.5799 6.15699 15.0214 6.15699 15.4691 6.15699C15.7845 6.16695 16.086 6.28918 16.3193 6.50166C16.5526 6.71415 16.7023 7.00293 16.7416 7.31603C16.7863 7.63322 16.7111 7.95568 16.5308 8.22045C16.3506 8.48522 16.078 8.67329 15.7665 8.74796C15.3997 8.79618 15.0294 8.81361 14.6596 8.80008C14.4879 8.80008 14.3131 8.80008 14.1169 8.80008V14.0832H10.5478C10.478 13.6467 10.3168 13.2299 10.0748 12.8601C9.83284 12.4902 9.51545 12.1756 9.14348 11.9368C8.57648 11.5811 7.90951 11.4187 7.24243 11.4738C5.87796 11.5505 4.84157 12.4949 4.39696 14.1169H0V13.7582Z" fill="url(#paint1_linear_250_48)"/>
<path d="M0 15.8647H6.15084C6.15084 15.414 6.15084 14.9786 6.15084 14.5432C6.15149 14.3324 6.20243 14.1249 6.2994 13.9378C6.39637 13.7507 6.53658 13.5894 6.70839 13.4674C6.8802 13.3453 7.07867 13.266 7.28728 13.2361C7.49588 13.2062 7.70858 13.2264 7.90778 13.2952C8.15516 13.3766 8.37191 13.5314 8.52911 13.739C8.68632 13.9466 8.77657 14.1971 8.78783 14.4573C8.80622 14.9111 8.78783 15.3772 8.78783 15.8616H14.0801V19.4246C13.6345 19.4962 13.2096 19.6631 12.8345 19.9139C12.4593 20.1648 12.1426 20.4936 11.9062 20.878C11.5562 21.4469 11.4003 22.114 11.4616 22.7791C11.5536 24.1159 12.498 25.1339 14.1016 25.5724V29.9694H13.752L13.5282 29.9172C12.5654 29.7302 11.5689 29.6474 10.6429 29.3408C5.08993 27.501 1.62509 23.7296 0.291277 18.0233C0.15023 17.4315 0.0950532 16.8183 0 16.2173V15.8647Z" fill="url(#paint2_linear_250_48)"/>
<path d="M15.8739 4.42144V0.0397949C22.9753 0.257497 29.5708 6.29184 29.9448 14.1015H23.8124C23.8124 14.5676 23.8124 15.003 23.8124 15.4384C23.8153 15.6944 23.7411 15.9454 23.5995 16.1586C23.4578 16.3719 23.2553 16.5376 23.0182 16.6342C22.7919 16.7427 22.5383 16.7809 22.2902 16.7437C22.042 16.7065 21.8107 16.5958 21.6262 16.4257C21.4754 16.3005 21.3557 16.142 21.2764 15.9627C21.1971 15.7834 21.1605 15.5882 21.1693 15.3924V14.1199H15.8984V10.5539C16.3355 10.4848 16.7529 10.3237 17.123 10.081C17.493 9.83837 17.8072 9.51982 18.0448 9.1465C18.4049 8.58443 18.5718 7.92018 18.5201 7.25464C18.425 5.88403 17.5021 4.87217 15.8739 4.42144Z" fill="url(#paint3_linear_250_48)"/>
</g>
<defs>
<linearGradient id="paint0_linear_250_48" x1="21.6098" y1="15.8831" x2="21.6098" y2="29.9693" gradientUnits="userSpaceOnUse">
<stop stop-color="#12C9E3"/>
<stop offset="1" stop-color="#227FBC"/>
</linearGradient>
<linearGradient id="paint1_linear_250_48" x1="8.3771" y1="0" x2="8.3771" y2="14.1169" gradientUnits="userSpaceOnUse">
<stop stop-color="#12C9E3"/>
<stop offset="1" stop-color="#227FBC"/>
</linearGradient>
<linearGradient id="paint2_linear_250_48" x1="7.0508" y1="13.2227" x2="7.0508" y2="29.9694" gradientUnits="userSpaceOnUse">
<stop stop-color="#12C9E3"/>
<stop offset="1" stop-color="#227FBC"/>
</linearGradient>
<linearGradient id="paint3_linear_250_48" x1="22.9094" y1="0.0397949" x2="22.9094" y2="16.7575" gradientUnits="userSpaceOnUse">
<stop stop-color="#12C9E3"/>
<stop offset="1" stop-color="#227FBC"/>
</linearGradient>
<clipPath id="clip0_250_48">
<rect width="30" height="29.9693" fill="white"/>
</clipPath>
</defs>
</svg>
