<svg width="30" height="30" viewBox="0 0 30 30" fill="none" xmlns="http://www.w3.org/2000/svg">
<path d="M14.9872 0C18.9665 0.00339042 22.7819 1.58513 25.5964 4.39818C28.4109 7.21123 29.9946 11.0259 30 15.0051C29.9919 18.9786 28.4101 22.7871 25.6009 25.5973C22.7917 28.4075 18.9837 29.9905 15.0102 30C11.0314 29.9959 7.21664 28.4139 4.4027 25.6009C1.58876 22.7879 0.0053974 18.9737 -3.05176e-05 14.9949C0.00741526 11.0216 1.58857 7.21309 4.39738 4.40284C7.20619 1.59259 11.0139 0.00948387 14.9872 0ZM4.40104 13.9286L4.32926 13.8978C4.41898 13.4211 4.48564 12.9417 4.60355 12.4727C5.26938 9.73345 6.9884 7.36723 9.38769 5.88735C11.787 4.40747 14.673 3.93329 17.4197 4.56767C22.0335 5.59296 25.54 9.75051 25.7091 14.4899C25.8424 18.1963 24.4275 21.2517 21.4926 23.515C18.9294 25.4913 15.9842 26.2013 12.8135 25.4554C8.9123 24.5378 6.32602 22.0694 4.90599 18.3476C4.86498 18.2425 4.83679 18.1348 4.79066 18.0349C4.74362 17.9078 4.64955 17.8037 4.52789 17.744C4.40622 17.6844 4.26627 17.6738 4.13702 17.7145C4.00294 17.7575 3.89109 17.8514 3.82544 17.976C3.75979 18.1006 3.74558 18.246 3.78586 18.3809C3.80637 18.4578 3.83457 18.5296 3.8602 18.6039C4.43589 20.3255 5.40073 21.8911 6.67975 23.1793C9.34294 25.8424 12.5418 27.1087 16.3175 26.7139C18.9355 26.4399 21.3798 25.2743 23.2408 23.4125C24.945 21.7424 26.1024 19.5945 26.5601 17.2527C27.0177 14.9109 26.7541 12.4853 25.804 10.2965C23.4432 4.93677 17.4889 1.98394 11.7908 3.68079C7.30773 5.01623 4.55227 8.05878 3.47315 12.6111C3.36806 13.0571 3.31678 13.5185 3.23476 14.0055C2.96049 13.826 2.72211 13.6569 2.46579 13.4928C2.40777 13.4478 2.341 13.4154 2.26973 13.3976C2.19846 13.3798 2.12427 13.3772 2.0519 13.3897C1.97953 13.4022 1.91056 13.4297 1.84942 13.4705C1.78829 13.5112 1.73631 13.5642 1.69682 13.6261C1.6511 13.686 1.61916 13.7552 1.60324 13.8288C1.58731 13.9025 1.58779 13.9787 1.60468 14.0521C1.62156 14.1255 1.65443 14.1943 1.70092 14.2536C1.74742 14.3129 1.80642 14.3612 1.8737 14.3951C2.36841 14.736 2.87592 15.0615 3.37575 15.3999C3.48161 15.4834 3.61253 15.5289 3.74741 15.5289C3.88228 15.5289 4.01323 15.4834 4.11909 15.3999C4.60867 15.0692 5.10337 14.7462 5.59295 14.413C5.66011 14.3792 5.71933 14.3315 5.76667 14.2731C5.814 14.2147 5.84836 14.1469 5.86751 14.0742C5.88666 14.0015 5.89014 13.9255 5.87771 13.8514C5.86528 13.7772 5.83723 13.7065 5.79542 13.6441C5.7541 13.5806 5.69976 13.5267 5.63597 13.4859C5.57218 13.445 5.50042 13.4183 5.42549 13.4074C5.35055 13.3965 5.27414 13.4016 5.20136 13.4226C5.12858 13.4435 5.0611 13.4797 5.00339 13.5287C4.79833 13.6492 4.59841 13.7876 4.40104 13.9286ZM13.3954 16.0791C13.8645 16.0791 14.3335 16.0637 14.8 16.0791C15.0511 16.1001 15.3027 16.0451 15.5222 15.9212C15.7416 15.7973 15.9187 15.6103 16.0304 15.3845C17.0147 13.7158 18.022 12.0523 19.0191 10.3964C19.0792 10.3022 19.134 10.2046 19.1832 10.1042C19.2789 9.90707 19.3111 9.68503 19.2753 9.46878C19.2395 9.25253 19.1375 9.05273 18.9832 8.89696C18.8358 8.73334 18.6381 8.62357 18.4212 8.58503C18.2044 8.5465 17.9809 8.5814 17.7862 8.68421C17.5578 8.81738 17.3659 9.00493 17.2274 9.23018C16.3252 10.7049 15.4357 12.1864 14.5591 13.6748C14.5163 13.7614 14.4477 13.8325 14.3628 13.8784C14.2778 13.9243 14.1808 13.9427 14.0849 13.9311C13.3467 13.9311 12.6111 13.9311 11.8754 13.9311C11.7275 13.9202 11.5789 13.9399 11.439 13.9891C11.2991 14.0383 11.1708 14.1158 11.0623 14.2169C10.9537 14.318 10.8672 14.4404 10.8082 14.5765C10.7492 14.7126 10.719 14.8594 10.7194 15.0077C10.7194 15.6254 11.2064 16.0689 11.8882 16.0714C12.3855 16.074 12.8879 16.0714 13.3903 16.0714L13.3954 16.0791Z" fill="url(#paint0_linear_250_40)"/>
<defs>
<linearGradient id="paint0_linear_250_40" x1="15" y1="0" x2="15" y2="30" gradientUnits="userSpaceOnUse">
<stop stop-color="#12C9E3"/>
<stop offset="1" stop-color="#227FBC"/>
</linearGradient>
</defs>
</svg>
