<svg width="31" height="31" viewBox="0 0 31 31" fill="none" xmlns="http://www.w3.org/2000/svg">
<path d="M0 17.5633C0.225748 17.1933 0.507583 16.8608 0.835388 16.5774L5.40381 12.007C5.51682 11.872 5.66049 11.7659 5.82286 11.6978C5.98522 11.6296 6.16155 11.6013 6.33707 11.6153C6.5339 11.6305 6.71869 11.7161 6.85769 11.8563C6.99669 11.9966 7.08059 12.1822 7.0941 12.3792C7.11077 12.5403 7.09 12.7031 7.0334 12.8549C6.97679 13.0066 6.88588 13.1433 6.76779 13.2541C5.07094 14.9386 3.37847 16.6274 1.69033 18.3206C1.61326 18.4012 1.52794 18.4734 1.4358 18.5361C1.33226 18.6112 1.21362 18.6628 1.08813 18.6874C0.962644 18.712 0.833314 18.709 0.709115 18.6785C0.584917 18.6481 0.468811 18.5909 0.368898 18.5111C0.268985 18.4313 0.187661 18.3306 0.130534 18.2162C0.130534 18.1574 0.0522233 18.0987 0.0130654 18.0399L0 17.5633Z" fill="url(#paint0_linear_510_274)"/>
<path d="M22.9139 8.29191C21.9611 7.33214 21.0147 6.37237 20.0488 5.42565C19.9199 5.33121 19.817 5.20564 19.7497 5.06064C19.6823 4.91565 19.6528 4.75595 19.6638 4.59646C19.6646 4.49455 19.6492 4.39318 19.6181 4.29613C19.5594 3.45388 19.5072 2.61162 19.4419 1.76937C19.4508 1.64771 19.4352 1.52552 19.3961 1.40998C19.357 1.29444 19.2952 1.1879 19.2143 1.09663C19.1334 1.00536 19.0351 0.931218 18.9251 0.878559C18.8151 0.825899 18.6957 0.795789 18.5739 0.790011L15.5196 0.228511C15.1672 0.163221 14.8213 0.0783488 14.4689 0H14.0447C13.7091 0.181089 13.4379 0.461609 13.268 0.803072C12.0672 2.76179 10.862 4.72051 9.65243 6.67923C9.0977 7.56718 8.54298 8.46167 8.00129 9.35615C7.86807 9.52513 7.80232 9.73759 7.81679 9.95232C7.83126 10.1671 7.92492 10.3688 8.07961 10.5183C8.97371 11.4259 9.87435 12.3138 10.775 13.2083L13.2093 15.6567C13.2831 15.7607 13.377 15.8488 13.4854 15.9158C13.5938 15.9828 13.7146 16.0274 13.8406 16.0468C13.9666 16.0663 14.0952 16.0603 14.2188 16.0292C14.3424 15.9981 14.4585 15.9425 14.5602 15.8656C16.0439 15.1083 17.521 14.3465 18.9916 13.5805C19.1968 13.4726 19.3858 13.3364 19.5529 13.1756L22.9139 9.81971C23.0339 9.7318 23.1316 9.61682 23.1989 9.48409C23.2662 9.35136 23.3013 9.20464 23.3013 9.05581C23.3013 8.90698 23.2662 8.76025 23.1989 8.62753C23.1316 8.4948 23.0339 8.37982 22.9139 8.29191Z" fill="url(#paint1_linear_510_274)"/>
<path d="M30.7389 15.1475C30.0145 14.4031 29.2705 13.6784 28.533 12.9472L26.9798 11.3802C26.8325 11.1818 26.6135 11.049 26.3697 11.0099C26.1258 10.9709 25.8763 11.0288 25.6745 11.1713C24.5977 11.7262 23.5274 12.2812 22.444 12.8296C22.2895 12.9016 22.1517 13.0049 22.0393 13.1331C21.927 13.2612 21.8425 13.4114 21.7914 13.574C21.5173 14.3574 21.2301 15.1279 20.9494 15.9048C20.7732 16.3815 20.5905 16.8515 20.4339 17.3282C20.3503 17.5381 20.3512 17.7723 20.4363 17.9817C20.5215 18.191 20.6843 18.3593 20.8907 18.4512C21.3671 18.6797 21.8697 18.869 22.3591 19.1041C22.4289 19.145 22.5008 19.182 22.5745 19.2151L26.0922 20.7363C26.3083 20.8647 26.5661 20.903 26.8102 20.8432C27.0543 20.7834 27.2651 20.6301 27.3974 20.4164L28.9703 18.5426C29.5577 17.8374 30.1516 17.1388 30.7324 16.4272C30.8215 16.3463 30.8927 16.2478 30.9417 16.1379C30.9906 16.028 31.0162 15.9091 31.0168 15.7887C31.0174 15.6684 30.9931 15.5493 30.9453 15.4389C30.8974 15.3285 30.8271 15.2293 30.7389 15.1475Z" fill="url(#paint2_linear_510_274)"/>
<path d="M7.88379 30.0468C7.96863 29.864 8.04042 29.6877 8.13179 29.5114C8.1733 29.4535 8.22399 29.4028 8.28188 29.3613L17.967 19.6656C18.1301 19.4683 18.3648 19.3439 18.6196 19.3196C18.8009 19.2984 18.9843 19.335 19.1436 19.424C19.3029 19.5131 19.4302 19.6502 19.5072 19.8158C19.6053 19.9839 19.6402 20.1815 19.6055 20.3731C19.5708 20.5647 19.4688 20.7375 19.3179 20.8604C17.9212 22.2707 16.5116 23.6745 15.1084 25.0782L9.50884 30.6867C9.39252 30.8278 9.23374 30.9275 9.05617 30.9711C8.87859 31.0146 8.69171 30.9996 8.52336 30.9282C8.34053 30.8627 8.18172 30.7435 8.06762 30.5863C7.95353 30.429 7.88946 30.241 7.88379 30.0468Z" fill="url(#paint3_linear_510_274)"/>
<path d="M15.2259 29.6745C15.0577 29.6869 14.89 29.6447 14.7477 29.5541C14.6054 29.4636 14.4962 29.3294 14.4362 29.1717C14.3623 29.0221 14.3335 28.8542 14.3532 28.6885C14.3729 28.5227 14.4403 28.3663 14.5471 28.2381L14.6124 28.1728C16.6225 26.1619 18.6326 24.1509 20.6427 22.14C20.7622 22.0069 20.9218 21.9165 21.0972 21.8823C21.2727 21.8482 21.4545 21.8721 21.6152 21.9506C21.7426 22.0053 21.8558 22.0884 21.946 22.1937C22.0363 22.2989 22.1013 22.4235 22.1359 22.5578C22.1706 22.6921 22.174 22.8325 22.146 22.9683C22.1179 23.1042 22.0591 23.2318 21.9741 23.3413C21.9231 23.4031 21.8687 23.462 21.8109 23.5176L15.996 29.335C15.9046 29.4496 15.7868 29.5404 15.6527 29.5995C15.5186 29.6586 15.3721 29.6843 15.2259 29.6745Z" fill="url(#paint4_linear_510_274)"/>
<defs>
<linearGradient id="paint0_linear_510_274" x1="3.54984" y1="11.6118" x2="3.54984" y2="18.7038" gradientUnits="userSpaceOnUse">
<stop stop-color="#12C9E3"/>
<stop offset="1" stop-color="#227FBC"/>
</linearGradient>
<linearGradient id="paint1_linear_510_274" x1="15.558" y1="0" x2="15.558" y2="16.058" gradientUnits="userSpaceOnUse">
<stop stop-color="#12C9E3"/>
<stop offset="1" stop-color="#227FBC"/>
</linearGradient>
<linearGradient id="paint2_linear_510_274" x1="25.6943" y1="10.998" x2="25.6943" y2="20.8708" gradientUnits="userSpaceOnUse">
<stop stop-color="#12C9E3"/>
<stop offset="1" stop-color="#227FBC"/>
</linearGradient>
<linearGradient id="paint3_linear_510_274" x1="13.7512" y1="19.3137" x2="13.7512" y2="30.9955" gradientUnits="userSpaceOnUse">
<stop stop-color="#12C9E3"/>
<stop offset="1" stop-color="#227FBC"/>
</linearGradient>
<linearGradient id="paint4_linear_510_274" x1="18.256" y1="21.8672" x2="18.256" y2="29.6766" gradientUnits="userSpaceOnUse">
<stop stop-color="#12C9E3"/>
<stop offset="1" stop-color="#227FBC"/>
</linearGradient>
</defs>
</svg>
