<svg width="513" height="198" viewBox="0 0 513 198" fill="none" xmlns="http://www.w3.org/2000/svg">
<g clip-path="url(#clip0_303_82)">
<path d="M-313 1C-230.48 1 -230.48 35 -148 35C-65.5199 35 -65.4699 1 17.0001 1C99.4701 1 99.5301 35 182.05 35C264.57 35 264.58 1 347.11 1C429.64 1 429.64 35 512.17 35" stroke="url(#paint0_linear_303_82)" stroke-width="2" stroke-miterlimit="10"/>
<path d="M-313 11.7998C-230.48 11.7998 -230.48 45.7998 -148 45.7998C-65.5199 45.7998 -65.4699 11.7998 17.0001 11.7998C99.4701 11.7998 99.5301 45.7998 182.05 45.7998C264.57 45.7998 264.58 11.7998 347.11 11.7998C429.64 11.7998 429.64 45.7998 512.17 45.7998" stroke="url(#paint1_linear_303_82)" stroke-width="1.93" stroke-miterlimit="10"/>
<path d="M-313 22.6001C-230.48 22.6001 -230.48 56.6001 -148 56.6001C-65.5199 56.6001 -65.4699 22.6001 17.0001 22.6001C99.4701 22.6001 99.5301 56.6001 182.05 56.6001C264.57 56.6001 264.58 22.6001 347.11 22.6001C429.64 22.6001 429.64 56.6001 512.17 56.6001" stroke="url(#paint2_linear_303_82)" stroke-width="1.87" stroke-miterlimit="10"/>
<path d="M-313 33.3999C-230.48 33.3999 -230.48 67.3999 -148 67.3999C-65.5199 67.3999 -65.4699 33.3999 17.0001 33.3999C99.4701 33.3999 99.5301 67.3999 182.05 67.3999C264.57 67.3999 264.58 33.3999 347.11 33.3999C429.64 33.3999 429.64 67.3999 512.17 67.3999" stroke="url(#paint3_linear_303_82)" stroke-width="1.8" stroke-miterlimit="10"/>
<path d="M-313 44.2002C-230.48 44.2002 -230.48 78.2002 -148 78.2002C-65.5199 78.2002 -65.4699 44.2002 17.0001 44.2002C99.4701 44.2002 99.5301 78.2002 182.05 78.2002C264.57 78.2002 264.58 44.2002 347.11 44.2002C429.64 44.2002 429.64 78.2002 512.17 78.2002" stroke="url(#paint4_linear_303_82)" stroke-width="1.73" stroke-miterlimit="10"/>
<path d="M-313 55C-230.48 55 -230.48 89 -148 89C-65.5199 89 -65.4699 55 17.0001 55C99.4701 55 99.5301 89 182.05 89C264.57 89 264.58 55 347.11 55C429.64 55 429.64 89 512.17 89" stroke="url(#paint5_linear_303_82)" stroke-width="1.67" stroke-miterlimit="10"/>
<path d="M-313 65.7998C-230.48 65.7998 -230.48 99.7998 -148 99.7998C-65.5199 99.7998 -65.4699 65.7998 17.0001 65.7998C99.4701 65.7998 99.5301 99.7998 182.05 99.7998C264.57 99.7998 264.58 65.7998 347.11 65.7998C429.64 65.7998 429.64 99.7998 512.17 99.7998" stroke="url(#paint6_linear_303_82)" stroke-width="1.6" stroke-miterlimit="10"/>
<path d="M-313 76.6001C-230.48 76.6001 -230.48 110.6 -148 110.6C-65.5199 110.6 -65.4699 76.6001 17.0001 76.6001C99.4701 76.6001 99.5301 110.6 182.05 110.6C264.57 110.6 264.58 76.6001 347.11 76.6001C429.64 76.6001 429.64 110.6 512.17 110.6" stroke="url(#paint7_linear_303_82)" stroke-width="1.53" stroke-miterlimit="10"/>
<path d="M-313 87.3999C-230.48 87.3999 -230.48 121.4 -148 121.4C-65.5199 121.4 -65.4699 87.3999 17.0001 87.3999C99.4701 87.3999 99.5301 121.4 182.05 121.4C264.57 121.4 264.58 87.3999 347.11 87.3999C429.64 87.3999 429.64 121.4 512.17 121.4" stroke="url(#paint8_linear_303_82)" stroke-width="1.47" stroke-miterlimit="10"/>
<path d="M-313 98.2002C-230.48 98.2002 -230.48 132.2 -148 132.2C-65.5199 132.2 -65.4699 98.2002 17.0001 98.2002C99.4701 98.2002 99.5301 132.2 182.05 132.2C264.57 132.2 264.58 98.2002 347.11 98.2002C429.64 98.2002 429.64 132.2 512.17 132.2" stroke="url(#paint9_linear_303_82)" stroke-width="1.4" stroke-miterlimit="10"/>
<path d="M-313 109C-230.48 109 -230.48 143 -148 143C-65.5199 143 -65.4699 109 17.0001 109C99.4701 109 99.5301 143 182.05 143C264.57 143 264.58 109 347.11 109C429.64 109 429.64 143 512.17 143" stroke="url(#paint10_linear_303_82)" stroke-width="1.33" stroke-miterlimit="10"/>
<path d="M-313 119.8C-230.48 119.8 -230.48 153.8 -148 153.8C-65.5199 153.8 -65.4699 119.8 17.0001 119.8C99.4701 119.8 99.5301 153.8 182.05 153.8C264.57 153.8 264.58 119.8 347.11 119.8C429.64 119.8 429.64 153.8 512.17 153.8" stroke="url(#paint11_linear_303_82)" stroke-width="1.27" stroke-miterlimit="10"/>
<path d="M-313 130.6C-230.48 130.6 -230.48 164.6 -148 164.6C-65.5199 164.6 -65.4699 130.6 17.0001 130.6C99.4701 130.6 99.5301 164.6 182.05 164.6C264.57 164.6 264.58 130.6 347.11 130.6C429.64 130.6 429.64 164.6 512.17 164.6" stroke="url(#paint12_linear_303_82)" stroke-width="1.2" stroke-miterlimit="10"/>
<path d="M-313 141.4C-230.48 141.4 -230.48 175.4 -148 175.4C-65.5199 175.4 -65.4699 141.4 17.0001 141.4C99.4701 141.4 99.5301 175.4 182.05 175.4C264.57 175.4 264.58 141.4 347.11 141.4C429.64 141.4 429.64 175.4 512.17 175.4" stroke="url(#paint13_linear_303_82)" stroke-width="1.13" stroke-miterlimit="10"/>
<path d="M-313 152.2C-230.48 152.2 -230.48 186.2 -148 186.2C-65.5199 186.2 -65.4699 152.2 17.0001 152.2C99.4701 152.2 99.5301 186.2 182.05 186.2C264.57 186.2 264.58 152.2 347.11 152.2C429.64 152.2 429.64 186.2 512.17 186.2" stroke="url(#paint14_linear_303_82)" stroke-width="1.07" stroke-miterlimit="10"/>
<path d="M-313 163C-230.48 163 -230.48 197 -148 197C-65.5199 197 -65.4699 163 17.0001 163C99.4701 163 99.5301 197 182.05 197C264.57 197 264.58 163 347.11 163C429.64 163 429.64 197 512.17 197" stroke="url(#paint15_linear_303_82)" stroke-miterlimit="10"/>
</g>
<defs>
<linearGradient id="paint0_linear_303_82" x1="-313" y1="18" x2="512.26" y2="18" gradientUnits="userSpaceOnUse">
<stop stop-color="#3ADEFF"/>
<stop offset="0.14" stop-color="#3FDFFD"/>
<stop offset="0.31" stop-color="#4EE2F8"/>
<stop offset="0.5" stop-color="#66E8F0"/>
<stop offset="0.7" stop-color="#88F0E5"/>
<stop offset="0.9" stop-color="#B4FAD6"/>
<stop offset="1" stop-color="#CCFFCE"/>
</linearGradient>
<linearGradient id="paint1_linear_303_82" x1="-313" y1="28.7998" x2="512.26" y2="28.7998" gradientUnits="userSpaceOnUse">
<stop stop-color="#3ADEFF"/>
<stop offset="0.14" stop-color="#3FDFFD"/>
<stop offset="0.31" stop-color="#4EE2F8"/>
<stop offset="0.5" stop-color="#66E8F0"/>
<stop offset="0.7" stop-color="#88F0E5"/>
<stop offset="0.9" stop-color="#B4FAD6"/>
<stop offset="1" stop-color="#CCFFCE"/>
</linearGradient>
<linearGradient id="paint2_linear_303_82" x1="-313" y1="39.6001" x2="512.26" y2="39.6001" gradientUnits="userSpaceOnUse">
<stop stop-color="#3ADEFF"/>
<stop offset="0.14" stop-color="#3FDFFD"/>
<stop offset="0.31" stop-color="#4EE2F8"/>
<stop offset="0.5" stop-color="#66E8F0"/>
<stop offset="0.7" stop-color="#88F0E5"/>
<stop offset="0.9" stop-color="#B4FAD6"/>
<stop offset="1" stop-color="#CCFFCE"/>
</linearGradient>
<linearGradient id="paint3_linear_303_82" x1="-313" y1="50.3999" x2="512.26" y2="50.3999" gradientUnits="userSpaceOnUse">
<stop stop-color="#3ADEFF"/>
<stop offset="0.14" stop-color="#3FDFFD"/>
<stop offset="0.31" stop-color="#4EE2F8"/>
<stop offset="0.5" stop-color="#66E8F0"/>
<stop offset="0.7" stop-color="#88F0E5"/>
<stop offset="0.9" stop-color="#B4FAD6"/>
<stop offset="1" stop-color="#CCFFCE"/>
</linearGradient>
<linearGradient id="paint4_linear_303_82" x1="-313" y1="61.2002" x2="512.26" y2="61.2002" gradientUnits="userSpaceOnUse">
<stop stop-color="#3ADEFF"/>
<stop offset="0.14" stop-color="#3FDFFD"/>
<stop offset="0.31" stop-color="#4EE2F8"/>
<stop offset="0.5" stop-color="#66E8F0"/>
<stop offset="0.7" stop-color="#88F0E5"/>
<stop offset="0.9" stop-color="#B4FAD6"/>
<stop offset="1" stop-color="#CCFFCE"/>
</linearGradient>
<linearGradient id="paint5_linear_303_82" x1="-313" y1="72" x2="512.26" y2="72" gradientUnits="userSpaceOnUse">
<stop stop-color="#3ADEFF"/>
<stop offset="0.14" stop-color="#3FDFFD"/>
<stop offset="0.31" stop-color="#4EE2F8"/>
<stop offset="0.5" stop-color="#66E8F0"/>
<stop offset="0.7" stop-color="#88F0E5"/>
<stop offset="0.9" stop-color="#B4FAD6"/>
<stop offset="1" stop-color="#CCFFCE"/>
</linearGradient>
<linearGradient id="paint6_linear_303_82" x1="-313" y1="82.7998" x2="512.26" y2="82.7998" gradientUnits="userSpaceOnUse">
<stop stop-color="#3ADEFF"/>
<stop offset="0.14" stop-color="#3FDFFD"/>
<stop offset="0.31" stop-color="#4EE2F8"/>
<stop offset="0.5" stop-color="#66E8F0"/>
<stop offset="0.7" stop-color="#88F0E5"/>
<stop offset="0.9" stop-color="#B4FAD6"/>
<stop offset="1" stop-color="#CCFFCE"/>
</linearGradient>
<linearGradient id="paint7_linear_303_82" x1="-313" y1="93.6001" x2="512.26" y2="93.6001" gradientUnits="userSpaceOnUse">
<stop stop-color="#3ADEFF"/>
<stop offset="0.14" stop-color="#3FDFFD"/>
<stop offset="0.31" stop-color="#4EE2F8"/>
<stop offset="0.5" stop-color="#66E8F0"/>
<stop offset="0.7" stop-color="#88F0E5"/>
<stop offset="0.9" stop-color="#B4FAD6"/>
<stop offset="1" stop-color="#CCFFCE"/>
</linearGradient>
<linearGradient id="paint8_linear_303_82" x1="-313" y1="104.4" x2="512.26" y2="104.4" gradientUnits="userSpaceOnUse">
<stop stop-color="#3ADEFF"/>
<stop offset="0.14" stop-color="#3FDFFD"/>
<stop offset="0.31" stop-color="#4EE2F8"/>
<stop offset="0.5" stop-color="#66E8F0"/>
<stop offset="0.7" stop-color="#88F0E5"/>
<stop offset="0.9" stop-color="#B4FAD6"/>
<stop offset="1" stop-color="#CCFFCE"/>
</linearGradient>
<linearGradient id="paint9_linear_303_82" x1="-313" y1="115.2" x2="512.26" y2="115.2" gradientUnits="userSpaceOnUse">
<stop stop-color="#3ADEFF"/>
<stop offset="0.14" stop-color="#3FDFFD"/>
<stop offset="0.31" stop-color="#4EE2F8"/>
<stop offset="0.5" stop-color="#66E8F0"/>
<stop offset="0.7" stop-color="#88F0E5"/>
<stop offset="0.9" stop-color="#B4FAD6"/>
<stop offset="1" stop-color="#CCFFCE"/>
</linearGradient>
<linearGradient id="paint10_linear_303_82" x1="-313" y1="126" x2="512.26" y2="126" gradientUnits="userSpaceOnUse">
<stop stop-color="#3ADEFF"/>
<stop offset="0.14" stop-color="#3FDFFD"/>
<stop offset="0.31" stop-color="#4EE2F8"/>
<stop offset="0.5" stop-color="#66E8F0"/>
<stop offset="0.7" stop-color="#88F0E5"/>
<stop offset="0.9" stop-color="#B4FAD6"/>
<stop offset="1" stop-color="#CCFFCE"/>
</linearGradient>
<linearGradient id="paint11_linear_303_82" x1="-313" y1="136.8" x2="512.26" y2="136.8" gradientUnits="userSpaceOnUse">
<stop stop-color="#3ADEFF"/>
<stop offset="0.14" stop-color="#3FDFFD"/>
<stop offset="0.31" stop-color="#4EE2F8"/>
<stop offset="0.5" stop-color="#66E8F0"/>
<stop offset="0.7" stop-color="#88F0E5"/>
<stop offset="0.9" stop-color="#B4FAD6"/>
<stop offset="1" stop-color="#CCFFCE"/>
</linearGradient>
<linearGradient id="paint12_linear_303_82" x1="-313" y1="147.6" x2="512.26" y2="147.6" gradientUnits="userSpaceOnUse">
<stop stop-color="#3ADEFF"/>
<stop offset="0.14" stop-color="#3FDFFD"/>
<stop offset="0.31" stop-color="#4EE2F8"/>
<stop offset="0.5" stop-color="#66E8F0"/>
<stop offset="0.7" stop-color="#88F0E5"/>
<stop offset="0.9" stop-color="#B4FAD6"/>
<stop offset="1" stop-color="#CCFFCE"/>
</linearGradient>
<linearGradient id="paint13_linear_303_82" x1="-313" y1="158.4" x2="512.26" y2="158.4" gradientUnits="userSpaceOnUse">
<stop stop-color="#3ADEFF"/>
<stop offset="0.14" stop-color="#3FDFFD"/>
<stop offset="0.31" stop-color="#4EE2F8"/>
<stop offset="0.5" stop-color="#66E8F0"/>
<stop offset="0.7" stop-color="#88F0E5"/>
<stop offset="0.9" stop-color="#B4FAD6"/>
<stop offset="1" stop-color="#CCFFCE"/>
</linearGradient>
<linearGradient id="paint14_linear_303_82" x1="-313" y1="169.2" x2="512.26" y2="169.2" gradientUnits="userSpaceOnUse">
<stop stop-color="#3ADEFF"/>
<stop offset="0.14" stop-color="#3FDFFD"/>
<stop offset="0.31" stop-color="#4EE2F8"/>
<stop offset="0.5" stop-color="#66E8F0"/>
<stop offset="0.7" stop-color="#88F0E5"/>
<stop offset="0.9" stop-color="#B4FAD6"/>
<stop offset="1" stop-color="#CCFFCE"/>
</linearGradient>
<linearGradient id="paint15_linear_303_82" x1="-313" y1="180" x2="512.26" y2="180" gradientUnits="userSpaceOnUse">
<stop stop-color="#3ADEFF"/>
<stop offset="0.14" stop-color="#3FDFFD"/>
<stop offset="0.31" stop-color="#4EE2F8"/>
<stop offset="0.5" stop-color="#66E8F0"/>
<stop offset="0.7" stop-color="#88F0E5"/>
<stop offset="0.9" stop-color="#B4FAD6"/>
<stop offset="1" stop-color="#CCFFCE"/>
</linearGradient>
<clipPath id="clip0_303_82">
<rect width="825.26" height="197.5" fill="white" transform="translate(-313)"/>
</clipPath>
</defs>
</svg>
