<svg width="200" height="198" viewBox="0 0 200 198" fill="none" xmlns="http://www.w3.org/2000/svg">
<g clip-path="url(#clip0_303_65)">
<path d="M0.00012207 1C82.5201 1 82.5201 35 165 35C247.48 35 247.53 1 330 1C412.47 1 412.53 35 495.05 35C577.57 35 577.58 1 660.11 1C742.64 1 742.64 35 825.17 35" stroke="url(#paint0_linear_303_65)" stroke-width="2" stroke-miterlimit="10"/>
<path d="M0.00012207 11.7998C82.5201 11.7998 82.5201 45.7998 165 45.7998C247.48 45.7998 247.53 11.7998 330 11.7998C412.47 11.7998 412.53 45.7998 495.05 45.7998C577.57 45.7998 577.58 11.7998 660.11 11.7998C742.64 11.7998 742.64 45.7998 825.17 45.7998" stroke="url(#paint1_linear_303_65)" stroke-width="1.93" stroke-miterlimit="10"/>
<path d="M0.00012207 22.6001C82.5201 22.6001 82.5201 56.6001 165 56.6001C247.48 56.6001 247.53 22.6001 330 22.6001C412.47 22.6001 412.53 56.6001 495.05 56.6001C577.57 56.6001 577.58 22.6001 660.11 22.6001C742.64 22.6001 742.64 56.6001 825.17 56.6001" stroke="url(#paint2_linear_303_65)" stroke-width="1.87" stroke-miterlimit="10"/>
<path d="M0.00012207 33.3999C82.5201 33.3999 82.5201 67.3999 165 67.3999C247.48 67.3999 247.53 33.3999 330 33.3999C412.47 33.3999 412.53 67.3999 495.05 67.3999C577.57 67.3999 577.58 33.3999 660.11 33.3999C742.64 33.3999 742.64 67.3999 825.17 67.3999" stroke="url(#paint3_linear_303_65)" stroke-width="1.8" stroke-miterlimit="10"/>
<path d="M0.00012207 44.2002C82.5201 44.2002 82.5201 78.2002 165 78.2002C247.48 78.2002 247.53 44.2002 330 44.2002C412.47 44.2002 412.53 78.2002 495.05 78.2002C577.57 78.2002 577.58 44.2002 660.11 44.2002C742.64 44.2002 742.64 78.2002 825.17 78.2002" stroke="url(#paint4_linear_303_65)" stroke-width="1.73" stroke-miterlimit="10"/>
<path d="M0.00012207 55C82.5201 55 82.5201 89 165 89C247.48 89 247.53 55 330 55C412.47 55 412.53 89 495.05 89C577.57 89 577.58 55 660.11 55C742.64 55 742.64 89 825.17 89" stroke="url(#paint5_linear_303_65)" stroke-width="1.67" stroke-miterlimit="10"/>
<path d="M0.00012207 65.7998C82.5201 65.7998 82.5201 99.7998 165 99.7998C247.48 99.7998 247.53 65.7998 330 65.7998C412.47 65.7998 412.53 99.7998 495.05 99.7998C577.57 99.7998 577.58 65.7998 660.11 65.7998C742.64 65.7998 742.64 99.7998 825.17 99.7998" stroke="url(#paint6_linear_303_65)" stroke-width="1.6" stroke-miterlimit="10"/>
<path d="M0.00012207 76.6001C82.5201 76.6001 82.5201 110.6 165 110.6C247.48 110.6 247.53 76.6001 330 76.6001C412.47 76.6001 412.53 110.6 495.05 110.6C577.57 110.6 577.58 76.6001 660.11 76.6001C742.64 76.6001 742.64 110.6 825.17 110.6" stroke="url(#paint7_linear_303_65)" stroke-width="1.53" stroke-miterlimit="10"/>
<path d="M0.00012207 87.3999C82.5201 87.3999 82.5201 121.4 165 121.4C247.48 121.4 247.53 87.3999 330 87.3999C412.47 87.3999 412.53 121.4 495.05 121.4C577.57 121.4 577.58 87.3999 660.11 87.3999C742.64 87.3999 742.64 121.4 825.17 121.4" stroke="url(#paint8_linear_303_65)" stroke-width="1.47" stroke-miterlimit="10"/>
<path d="M0.00012207 98.2002C82.5201 98.2002 82.5201 132.2 165 132.2C247.48 132.2 247.53 98.2002 330 98.2002C412.47 98.2002 412.53 132.2 495.05 132.2C577.57 132.2 577.58 98.2002 660.11 98.2002C742.64 98.2002 742.64 132.2 825.17 132.2" stroke="url(#paint9_linear_303_65)" stroke-width="1.4" stroke-miterlimit="10"/>
<path d="M0.00012207 109C82.5201 109 82.5201 143 165 143C247.48 143 247.53 109 330 109C412.47 109 412.53 143 495.05 143C577.57 143 577.58 109 660.11 109C742.64 109 742.64 143 825.17 143" stroke="url(#paint10_linear_303_65)" stroke-width="1.33" stroke-miterlimit="10"/>
<path d="M0.00012207 119.8C82.5201 119.8 82.5201 153.8 165 153.8C247.48 153.8 247.53 119.8 330 119.8C412.47 119.8 412.53 153.8 495.05 153.8C577.57 153.8 577.58 119.8 660.11 119.8C742.64 119.8 742.64 153.8 825.17 153.8" stroke="url(#paint11_linear_303_65)" stroke-width="1.27" stroke-miterlimit="10"/>
<path d="M0.00012207 130.6C82.5201 130.6 82.5201 164.6 165 164.6C247.48 164.6 247.53 130.6 330 130.6C412.47 130.6 412.53 164.6 495.05 164.6C577.57 164.6 577.58 130.6 660.11 130.6C742.64 130.6 742.64 164.6 825.17 164.6" stroke="url(#paint12_linear_303_65)" stroke-width="1.2" stroke-miterlimit="10"/>
<path d="M0.00012207 141.4C82.5201 141.4 82.5201 175.4 165 175.4C247.48 175.4 247.53 141.4 330 141.4C412.47 141.4 412.53 175.4 495.05 175.4C577.57 175.4 577.58 141.4 660.11 141.4C742.64 141.4 742.64 175.4 825.17 175.4" stroke="url(#paint13_linear_303_65)" stroke-width="1.13" stroke-miterlimit="10"/>
<path d="M0.00012207 152.2C82.5201 152.2 82.5201 186.2 165 186.2C247.48 186.2 247.53 152.2 330 152.2C412.47 152.2 412.53 186.2 495.05 186.2C577.57 186.2 577.58 152.2 660.11 152.2C742.64 152.2 742.64 186.2 825.17 186.2" stroke="url(#paint14_linear_303_65)" stroke-width="1.07" stroke-miterlimit="10"/>
<path d="M0.00012207 163C82.5201 163 82.5201 197 165 197C247.48 197 247.53 163 330 163C412.47 163 412.53 197 495.05 197C577.57 197 577.58 163 660.11 163C742.64 163 742.64 197 825.17 197" stroke="url(#paint15_linear_303_65)" stroke-miterlimit="10"/>
</g>
<defs>
<linearGradient id="paint0_linear_303_65" x1="0.00012207" y1="18" x2="825.26" y2="18" gradientUnits="userSpaceOnUse">
<stop stop-color="#3ADEFF"/>
<stop offset="0.14" stop-color="#3FDFFD"/>
<stop offset="0.31" stop-color="#4EE2F8"/>
<stop offset="0.5" stop-color="#66E8F0"/>
<stop offset="0.7" stop-color="#88F0E5"/>
<stop offset="0.9" stop-color="#B4FAD6"/>
<stop offset="1" stop-color="#CCFFCE"/>
</linearGradient>
<linearGradient id="paint1_linear_303_65" x1="0.00012207" y1="28.7998" x2="825.26" y2="28.7998" gradientUnits="userSpaceOnUse">
<stop stop-color="#3ADEFF"/>
<stop offset="0.14" stop-color="#3FDFFD"/>
<stop offset="0.31" stop-color="#4EE2F8"/>
<stop offset="0.5" stop-color="#66E8F0"/>
<stop offset="0.7" stop-color="#88F0E5"/>
<stop offset="0.9" stop-color="#B4FAD6"/>
<stop offset="1" stop-color="#CCFFCE"/>
</linearGradient>
<linearGradient id="paint2_linear_303_65" x1="0.00012207" y1="39.6001" x2="825.26" y2="39.6001" gradientUnits="userSpaceOnUse">
<stop stop-color="#3ADEFF"/>
<stop offset="0.14" stop-color="#3FDFFD"/>
<stop offset="0.31" stop-color="#4EE2F8"/>
<stop offset="0.5" stop-color="#66E8F0"/>
<stop offset="0.7" stop-color="#88F0E5"/>
<stop offset="0.9" stop-color="#B4FAD6"/>
<stop offset="1" stop-color="#CCFFCE"/>
</linearGradient>
<linearGradient id="paint3_linear_303_65" x1="0.00012207" y1="50.3999" x2="825.26" y2="50.3999" gradientUnits="userSpaceOnUse">
<stop stop-color="#3ADEFF"/>
<stop offset="0.14" stop-color="#3FDFFD"/>
<stop offset="0.31" stop-color="#4EE2F8"/>
<stop offset="0.5" stop-color="#66E8F0"/>
<stop offset="0.7" stop-color="#88F0E5"/>
<stop offset="0.9" stop-color="#B4FAD6"/>
<stop offset="1" stop-color="#CCFFCE"/>
</linearGradient>
<linearGradient id="paint4_linear_303_65" x1="0.00012207" y1="61.2002" x2="825.26" y2="61.2002" gradientUnits="userSpaceOnUse">
<stop stop-color="#3ADEFF"/>
<stop offset="0.14" stop-color="#3FDFFD"/>
<stop offset="0.31" stop-color="#4EE2F8"/>
<stop offset="0.5" stop-color="#66E8F0"/>
<stop offset="0.7" stop-color="#88F0E5"/>
<stop offset="0.9" stop-color="#B4FAD6"/>
<stop offset="1" stop-color="#CCFFCE"/>
</linearGradient>
<linearGradient id="paint5_linear_303_65" x1="0.00012207" y1="72" x2="825.26" y2="72" gradientUnits="userSpaceOnUse">
<stop stop-color="#3ADEFF"/>
<stop offset="0.14" stop-color="#3FDFFD"/>
<stop offset="0.31" stop-color="#4EE2F8"/>
<stop offset="0.5" stop-color="#66E8F0"/>
<stop offset="0.7" stop-color="#88F0E5"/>
<stop offset="0.9" stop-color="#B4FAD6"/>
<stop offset="1" stop-color="#CCFFCE"/>
</linearGradient>
<linearGradient id="paint6_linear_303_65" x1="0.00012207" y1="82.7998" x2="825.26" y2="82.7998" gradientUnits="userSpaceOnUse">
<stop stop-color="#3ADEFF"/>
<stop offset="0.14" stop-color="#3FDFFD"/>
<stop offset="0.31" stop-color="#4EE2F8"/>
<stop offset="0.5" stop-color="#66E8F0"/>
<stop offset="0.7" stop-color="#88F0E5"/>
<stop offset="0.9" stop-color="#B4FAD6"/>
<stop offset="1" stop-color="#CCFFCE"/>
</linearGradient>
<linearGradient id="paint7_linear_303_65" x1="0.00012207" y1="93.6001" x2="825.26" y2="93.6001" gradientUnits="userSpaceOnUse">
<stop stop-color="#3ADEFF"/>
<stop offset="0.14" stop-color="#3FDFFD"/>
<stop offset="0.31" stop-color="#4EE2F8"/>
<stop offset="0.5" stop-color="#66E8F0"/>
<stop offset="0.7" stop-color="#88F0E5"/>
<stop offset="0.9" stop-color="#B4FAD6"/>
<stop offset="1" stop-color="#CCFFCE"/>
</linearGradient>
<linearGradient id="paint8_linear_303_65" x1="0.00012207" y1="104.4" x2="825.26" y2="104.4" gradientUnits="userSpaceOnUse">
<stop stop-color="#3ADEFF"/>
<stop offset="0.14" stop-color="#3FDFFD"/>
<stop offset="0.31" stop-color="#4EE2F8"/>
<stop offset="0.5" stop-color="#66E8F0"/>
<stop offset="0.7" stop-color="#88F0E5"/>
<stop offset="0.9" stop-color="#B4FAD6"/>
<stop offset="1" stop-color="#CCFFCE"/>
</linearGradient>
<linearGradient id="paint9_linear_303_65" x1="0.00012207" y1="115.2" x2="825.26" y2="115.2" gradientUnits="userSpaceOnUse">
<stop stop-color="#3ADEFF"/>
<stop offset="0.14" stop-color="#3FDFFD"/>
<stop offset="0.31" stop-color="#4EE2F8"/>
<stop offset="0.5" stop-color="#66E8F0"/>
<stop offset="0.7" stop-color="#88F0E5"/>
<stop offset="0.9" stop-color="#B4FAD6"/>
<stop offset="1" stop-color="#CCFFCE"/>
</linearGradient>
<linearGradient id="paint10_linear_303_65" x1="0.00012207" y1="126" x2="825.26" y2="126" gradientUnits="userSpaceOnUse">
<stop stop-color="#3ADEFF"/>
<stop offset="0.14" stop-color="#3FDFFD"/>
<stop offset="0.31" stop-color="#4EE2F8"/>
<stop offset="0.5" stop-color="#66E8F0"/>
<stop offset="0.7" stop-color="#88F0E5"/>
<stop offset="0.9" stop-color="#B4FAD6"/>
<stop offset="1" stop-color="#CCFFCE"/>
</linearGradient>
<linearGradient id="paint11_linear_303_65" x1="0.00012207" y1="136.8" x2="825.26" y2="136.8" gradientUnits="userSpaceOnUse">
<stop stop-color="#3ADEFF"/>
<stop offset="0.14" stop-color="#3FDFFD"/>
<stop offset="0.31" stop-color="#4EE2F8"/>
<stop offset="0.5" stop-color="#66E8F0"/>
<stop offset="0.7" stop-color="#88F0E5"/>
<stop offset="0.9" stop-color="#B4FAD6"/>
<stop offset="1" stop-color="#CCFFCE"/>
</linearGradient>
<linearGradient id="paint12_linear_303_65" x1="0.00012207" y1="147.6" x2="825.26" y2="147.6" gradientUnits="userSpaceOnUse">
<stop stop-color="#3ADEFF"/>
<stop offset="0.14" stop-color="#3FDFFD"/>
<stop offset="0.31" stop-color="#4EE2F8"/>
<stop offset="0.5" stop-color="#66E8F0"/>
<stop offset="0.7" stop-color="#88F0E5"/>
<stop offset="0.9" stop-color="#B4FAD6"/>
<stop offset="1" stop-color="#CCFFCE"/>
</linearGradient>
<linearGradient id="paint13_linear_303_65" x1="0.00012207" y1="158.4" x2="825.26" y2="158.4" gradientUnits="userSpaceOnUse">
<stop stop-color="#3ADEFF"/>
<stop offset="0.14" stop-color="#3FDFFD"/>
<stop offset="0.31" stop-color="#4EE2F8"/>
<stop offset="0.5" stop-color="#66E8F0"/>
<stop offset="0.7" stop-color="#88F0E5"/>
<stop offset="0.9" stop-color="#B4FAD6"/>
<stop offset="1" stop-color="#CCFFCE"/>
</linearGradient>
<linearGradient id="paint14_linear_303_65" x1="0.00012207" y1="169.2" x2="825.26" y2="169.2" gradientUnits="userSpaceOnUse">
<stop stop-color="#3ADEFF"/>
<stop offset="0.14" stop-color="#3FDFFD"/>
<stop offset="0.31" stop-color="#4EE2F8"/>
<stop offset="0.5" stop-color="#66E8F0"/>
<stop offset="0.7" stop-color="#88F0E5"/>
<stop offset="0.9" stop-color="#B4FAD6"/>
<stop offset="1" stop-color="#CCFFCE"/>
</linearGradient>
<linearGradient id="paint15_linear_303_65" x1="0.00012207" y1="180" x2="825.26" y2="180" gradientUnits="userSpaceOnUse">
<stop stop-color="#3ADEFF"/>
<stop offset="0.14" stop-color="#3FDFFD"/>
<stop offset="0.31" stop-color="#4EE2F8"/>
<stop offset="0.5" stop-color="#66E8F0"/>
<stop offset="0.7" stop-color="#88F0E5"/>
<stop offset="0.9" stop-color="#B4FAD6"/>
<stop offset="1" stop-color="#CCFFCE"/>
</linearGradient>
<clipPath id="clip0_303_65">
<rect width="825.26" height="197.5" fill="white"/>
</clipPath>
</defs>
</svg>
