<svg width="38" height="36" viewBox="0 0 38 36" fill="none" xmlns="http://www.w3.org/2000/svg">
<path d="M18.6424 36C28.792 36 37.0199 27.9411 37.0199 18C37.0199 8.05888 28.792 0 18.6424 0C8.49277 0 0.264893 8.05888 0.264893 18C0.264893 27.9411 8.49277 36 18.6424 36Z" fill="#3D6AD5"/>
<path d="M20.4691 23.5186V27.403C20.4691 27.8494 20.3699 27.9538 19.9178 27.9538H16.801C16.3489 27.9538 16.257 27.871 16.2533 27.4246C16.2533 26.2366 16.2533 25.0486 16.2533 23.8606V19.6342C16.2533 19.2526 16.2533 19.2526 15.8858 19.2526H13.6805C13.3129 19.2526 13.1843 19.1374 13.1843 18.7738C13.1843 17.755 13.1843 16.7398 13.1843 15.721C13.1843 15.361 13.3019 15.2422 13.6805 15.2422H15.8858C16.2533 15.2422 16.2533 15.2422 16.2533 14.8822C16.2533 14.0578 16.2349 13.2334 16.2827 12.4126C16.4077 10.285 17.7529 8.39497 20.2596 8.12137C21.41 7.99897 22.5825 8.07097 23.7476 8.06017C23.7988 8.05525 23.8504 8.06182 23.8985 8.07935C23.9467 8.09689 23.9901 8.12494 24.0255 8.16138C24.061 8.19781 24.0875 8.24168 24.103 8.28964C24.1185 8.3376 24.1227 8.3884 24.1152 8.43818C24.1152 9.43898 24.1152 10.4398 24.1152 11.4406C24.1152 11.6962 23.9755 11.8186 23.7035 11.8258C23.2956 11.8258 22.8876 11.8258 22.4796 11.8258C22.0716 11.8258 21.7445 11.8474 21.377 11.8726C21.1613 11.8752 20.9548 11.9588 20.8002 12.1062C20.6457 12.2536 20.5548 12.4534 20.5463 12.6646C20.5059 13.453 20.5095 14.2414 20.4948 15.0298C20.4948 15.2386 20.6345 15.235 20.7852 15.235H23.4536C23.9094 15.235 24.0307 15.3502 24.0307 15.7966V18.7054C24.0307 19.1266 23.9057 19.249 23.483 19.249C22.5935 19.249 21.7041 19.249 20.8146 19.249C20.5683 19.249 20.4838 19.3138 20.4875 19.5658C20.4764 20.8654 20.4691 22.1974 20.4691 23.5186Z" fill="white"/>
</svg>
