<svg width="37" height="36" viewBox="0 0 37 36" fill="none" xmlns="http://www.w3.org/2000/svg">
<path d="M18.3973 36C28.5469 36 36.7747 27.9411 36.7747 18C36.7747 8.05888 28.5469 0 18.3973 0C8.24765 0 0.0197754 8.05888 0.0197754 18C0.0197754 27.9411 8.24765 36 18.3973 36Z" fill="url(#paint0_linear_361_198)"/>
<path d="M22.0581 8.42784C19.6078 8.42784 17.1709 8.42784 14.7475 8.42784C13.9406 8.41765 13.1397 8.56599 12.3922 8.86411C11.6448 9.16222 10.9659 9.60406 10.3958 10.1635C9.82561 10.723 9.37571 11.3887 9.07269 12.1213C8.76967 12.854 8.61966 13.6386 8.63151 14.429C8.63151 16.829 8.63151 19.229 8.63151 21.629C8.62614 22.4129 8.7798 23.19 9.08359 23.9153C9.38738 24.6405 9.83527 25.2994 10.4012 25.8537C10.9671 26.408 11.6398 26.8467 12.3803 27.1442C13.1207 27.4418 13.9142 27.5923 14.7145 27.587C17.1648 27.587 19.6262 27.587 22.0985 27.587C22.8983 27.5899 23.6906 27.4373 24.4296 27.138C25.1687 26.8387 25.8397 26.3987 26.4038 25.8435C26.9679 25.2883 27.4139 24.6289 27.7159 23.9036C28.0179 23.1783 28.1699 22.4015 28.1631 21.6182C28.1631 20.4158 28.1631 19.217 28.1631 18.0182C28.1631 16.8194 28.1631 15.617 28.1631 14.4182C28.176 13.629 28.027 12.8453 27.7248 12.1135C27.4227 11.3817 26.9737 10.7168 26.4044 10.1581C25.835 9.59949 25.157 9.15848 24.4104 8.86126C23.6638 8.56404 22.8639 8.41665 22.0581 8.42784ZM25.9909 21.5858C26.004 22.0953 25.9112 22.6021 25.7179 23.0754C25.5246 23.5486 25.2351 23.9783 24.8668 24.3383C24.4985 24.6984 24.0592 24.9812 23.5757 25.1696C23.0922 25.3581 22.5746 25.4481 22.0544 25.4342H18.3789C17.1807 25.4342 15.9825 25.4342 14.7806 25.4342C14.2572 25.4522 13.7357 25.3648 13.2481 25.1775C12.7606 24.9902 12.3174 24.7069 11.9461 24.3452C11.5748 23.9835 11.2831 23.5511 11.0891 23.0746C10.8952 22.5981 10.8031 22.0878 10.8185 21.575C10.8185 19.2038 10.8185 16.8302 10.8185 14.4542C10.8006 13.9416 10.8903 13.4308 11.082 12.9534C11.2737 12.4761 11.5633 12.0423 11.9329 11.6789C12.3025 11.3156 12.7444 11.0303 13.231 10.8408C13.7176 10.6512 14.2388 10.5615 14.7623 10.577C17.2003 10.577 19.6372 10.577 22.0728 10.577C22.5929 10.5646 23.11 10.656 23.5928 10.8458C24.0755 11.0356 24.5138 11.3197 24.8808 11.6808C25.2477 12.0419 25.5357 12.4725 25.7272 12.9462C25.9187 13.42 26.0097 13.9269 25.9946 14.4362C26.0019 16.817 26.0007 19.2002 25.9909 21.5858Z" fill="white"/>
<path d="M24.4876 12.8086C24.4885 12.9167 24.4677 13.0239 24.4262 13.1241C24.3848 13.2243 24.3236 13.3155 24.246 13.3924C24.1685 13.4693 24.0762 13.5305 23.9745 13.5724C23.8728 13.6143 23.7636 13.6361 23.6532 13.6366C23.5429 13.638 23.4333 13.6181 23.3308 13.5779C23.2284 13.5378 23.135 13.4782 23.0561 13.4026C22.9772 13.327 22.9144 13.2369 22.8711 13.1374C22.8279 13.038 22.8052 12.9311 22.8042 12.823C22.8052 12.7146 22.828 12.6075 22.8715 12.5078C22.9149 12.4081 22.9781 12.3178 23.0574 12.2421C23.1367 12.1665 23.2305 12.107 23.3334 12.067C23.4363 12.0271 23.5462 12.0075 23.6569 12.0094C23.8738 12.0121 24.0813 12.0967 24.2361 12.2456C24.3908 12.3945 24.4809 12.5962 24.4876 12.8086Z" fill="white"/>
<path d="M18.4193 13.1006C17.0947 13.1034 15.8247 13.6181 14.8853 14.5328C13.9459 15.4475 13.4129 16.6884 13.4023 17.9858C13.4032 19.2829 13.9269 20.5272 14.8596 21.4481C15.7922 22.369 17.0583 22.892 18.3826 22.9034C19.705 22.8977 20.9718 22.3817 21.9082 21.4672C22.8447 20.5526 23.3753 19.3134 23.3849 18.0182C23.3841 16.7235 22.8623 15.4814 21.9329 14.5609C21.0034 13.6404 19.741 13.1157 18.4193 13.1006ZM18.4193 20.9702C17.6171 20.9675 16.8479 20.6568 16.2769 20.1049C15.7059 19.553 15.3785 18.8038 15.365 18.0182C15.3659 17.2309 15.6828 16.4755 16.2474 15.9152C16.812 15.3548 17.5789 15.0343 18.3826 15.023C19.1858 15.0238 19.9564 15.3338 20.5284 15.886C21.1005 16.4382 21.4281 17.1884 21.4406 17.975C21.4388 18.762 21.1215 19.5168 20.5572 20.077C19.9928 20.6372 19.2264 20.9579 18.423 20.9702H18.4193Z" fill="white"/>
<defs>
<linearGradient id="paint0_linear_361_198" x1="34.8892" y1="8.5428" x2="2.44737" y2="27.9328" gradientUnits="userSpaceOnUse">
<stop stop-color="#8A08CE"/>
<stop offset="0.48" stop-color="#F81F86"/>
<stop offset="1" stop-color="#FEDB16"/>
</linearGradient>
</defs>
</svg>
