<svg width="38" height="36" viewBox="0 0 38 36" fill="none" xmlns="http://www.w3.org/2000/svg">
<path d="M19.1324 36C29.282 36 37.5098 27.9411 37.5098 18C37.5098 8.05888 29.282 0 19.1324 0C8.98276 0 0.754883 8.05888 0.754883 18C0.754883 27.9411 8.98276 36 19.1324 36Z" fill="#0A66C0"/>
<path d="M20.6099 25.8228H16.769V13.6656H20.4445V15.282C20.6855 14.9802 20.9419 14.6907 21.2128 14.4144C21.8792 13.8069 22.7378 13.441 23.6459 13.3776C24.4395 13.2971 25.2416 13.3717 26.0055 13.5972C26.5975 13.7751 27.132 14.101 27.5561 14.543C27.9802 14.9849 28.2794 15.5275 28.424 16.1172C28.6604 16.9369 28.7767 17.7854 28.7695 18.6372C28.7695 20.9916 28.7695 23.346 28.7695 25.7004C28.7722 25.7351 28.7722 25.77 28.7695 25.8048H24.9139V25.542C24.9139 23.5296 24.9139 21.5172 24.9139 19.5048C24.9114 19.0823 24.8721 18.6607 24.7964 18.2448C24.5611 16.9956 23.7304 16.56 22.5322 16.7076C21.4553 16.8372 20.8672 17.4564 20.6944 18.6012C20.6357 19.0211 20.6062 19.4445 20.6062 19.8684C20.6062 21.7692 20.6062 23.67 20.6062 25.5708L20.6099 25.8228Z" fill="white"/>
<path d="M14.3102 25.8227H10.473V13.6655H14.3102V25.8227Z" fill="white"/>
<path d="M14.6225 9.75972C14.6256 10.3392 14.3962 10.8967 13.9837 11.3121C13.5712 11.7275 13.0087 11.9677 12.4172 11.9809C11.8202 11.9771 11.2489 11.7429 10.827 11.3291C10.4052 10.9153 10.1671 10.3553 10.1642 9.77052C10.168 9.1927 10.403 8.63939 10.8188 8.22945C11.2346 7.81951 11.798 7.58565 12.3879 7.57812C12.979 7.57907 13.5457 7.809 13.9643 8.21772C14.383 8.62644 14.6196 9.18076 14.6225 9.75972Z" fill="white"/>
</svg>
