<svg width="38" height="36" viewBox="0 0 38 36" fill="none" xmlns="http://www.w3.org/2000/svg">
<path d="M18.8874 36C29.037 36 37.2649 27.9411 37.2649 18C37.2649 8.05888 29.037 0 18.8874 0C8.73777 0 0.509888 8.05888 0.509888 18C0.509888 27.9411 8.73777 36 18.8874 36Z" fill="#03A8F3"/>
<path d="M14.6569 22.7594C12.7383 22.5686 11.4372 21.611 10.6947 19.829C11.3346 19.907 11.9838 19.8692 12.6097 19.7174C11.9695 19.5801 11.369 19.3033 10.8529 18.9076C10.3369 18.5118 9.91848 18.0073 9.62884 17.4314C9.32688 16.8515 9.17901 16.2065 9.19884 15.5558C9.7669 15.8458 10.3961 16.0023 11.0366 16.013C10.1711 15.3923 9.56198 14.4878 9.32007 13.4642C9.07553 12.4285 9.24381 11.3405 9.79054 10.4222C10.8745 11.7194 12.2229 12.7809 13.7493 13.539C15.2758 14.2971 16.9469 14.7351 18.6559 14.825C18.6559 14.4182 18.6044 14.051 18.6081 13.6838C18.6392 12.7911 18.9609 11.9316 19.5263 11.2308C20.0917 10.53 20.8711 10.0246 21.7506 9.7886C22.4761 9.58305 23.2447 9.57215 23.976 9.75707C24.7073 9.94199 25.3744 10.3159 25.9076 10.8398C25.9485 10.8838 26.0013 10.9153 26.06 10.9307C26.1187 10.946 26.1806 10.9444 26.2384 10.9262C27.0287 10.7546 27.7908 10.4759 28.5026 10.0982L28.7561 9.9722C28.6164 10.456 28.3648 10.9019 28.021 11.2754C27.7013 11.6354 27.33 11.9378 26.9661 12.2798C27.3557 12.2006 27.7491 12.1358 28.1313 12.035C28.5136 11.9342 28.8664 11.7938 29.3148 11.6534C29.1747 11.8683 29.0187 12.0729 28.848 12.2654C28.3629 12.7442 27.8593 13.2086 27.3521 13.6694C27.2982 13.7088 27.2552 13.7606 27.227 13.8203C27.1988 13.8801 27.1862 13.9457 27.1904 14.0114C27.255 15.9516 26.8282 17.8773 25.948 19.6166C24.8753 21.8835 23.0885 23.7535 20.8501 24.9518C19.5705 25.6337 18.1717 26.0745 16.7262 26.2514C15.8227 26.3725 14.9085 26.4003 13.999 26.3342C12.5058 26.2284 11.046 25.8499 9.69498 25.2182C9.25759 25.013 8.83491 24.7754 8.41223 24.527C10.6484 24.746 12.8848 24.113 14.6569 22.7594Z" fill="white"/>
</svg>
