<svg width="37" height="36" viewBox="0 0 37 36" fill="none" xmlns="http://www.w3.org/2000/svg">
<path d="M18.3775 36C28.5271 36 36.755 27.9411 36.755 18C36.755 8.05888 28.5271 0 18.3775 0C8.22788 0 0 8.05888 0 18C0 27.9411 8.22788 36 18.3775 36Z" fill="#F31C0D"/>
<path d="M29.3562 14.5981V21.4057C29.3195 21.6325 29.2937 21.8593 29.2423 22.0825C29.023 23.0917 28.4519 23.9948 27.627 24.6366C26.802 25.2784 25.7747 25.6189 24.7214 25.5997C20.4897 25.5997 16.2592 25.5997 12.0299 25.5997C11.6791 25.6029 11.329 25.5679 10.9861 25.4953C9.96364 25.2802 9.0486 24.7253 8.39612 23.9248C7.74365 23.1244 7.39389 22.1275 7.40618 21.1033C7.40618 19.0369 7.40618 16.9741 7.40618 14.9077C7.39434 14.1195 7.60138 13.343 8.00524 12.6613C8.40332 11.9586 8.99109 11.3767 9.70417 10.9792C10.4173 10.5817 11.2282 10.384 12.0483 10.4077C16.2678 10.4077 20.4835 10.4077 24.6993 10.4077H25.0228C25.9858 10.454 26.9088 10.7997 27.6576 11.3946C28.4064 11.9895 28.9422 12.8027 29.1872 13.7161C29.246 14.0257 29.3011 14.3065 29.3562 14.5981ZM15.3562 18.0001V20.7541C15.3562 21.1321 15.4996 21.2221 15.8488 21.0601C17.76 20.1673 19.6725 19.2721 21.5862 18.3745C21.6928 18.3205 21.8435 18.1909 21.8362 18.1081C21.8175 18.0446 21.7857 17.9857 21.7427 17.9349C21.6997 17.8841 21.6464 17.8425 21.5862 17.8129C19.67 16.8529 17.7539 15.9013 15.8377 14.9581C15.5106 14.7925 15.3562 14.8861 15.3562 15.2497V18.0001Z" fill="white"/>
</svg>
