<svg width="63" height="63" viewBox="0 0 63 63" fill="none" xmlns="http://www.w3.org/2000/svg">
<g clip-path="url(#clip0_535_1335)">
<path d="M18.8262 63C20.617 59.363 22.4102 55.7311 24.206 52.1043C24.2639 52.021 24.34 51.9518 24.4282 51.9017C24.5165 51.8517 24.6148 51.8221 24.716 51.8152C29.2412 51.8152 33.7663 51.8152 38.2914 51.8152C38.3936 51.8226 38.493 51.8523 38.5824 51.9023C38.6718 51.9522 38.7492 52.0212 38.809 52.1043C40.6125 55.7337 42.393 59.363 44.1813 63H18.8262Z" fill="url(#paint0_linear_535_1335)"/>
<path d="M0 63C2.98297 59.4492 5.9634 55.8782 8.9413 52.2869C9.05589 52.123 9.21025 51.9909 9.38996 51.903C9.56967 51.8152 9.76871 51.7745 9.96848 51.7848C13.3472 51.7848 16.7259 51.7848 20.1579 51.7848C20.1122 51.9295 20.0589 52.0717 19.9981 52.2108C18.2682 55.7108 16.5357 59.2134 14.8007 62.7184C14.755 62.8098 14.6942 62.8935 14.6485 62.9848L0 63Z" fill="url(#paint1_linear_535_1335)"/>
<path d="M48.3592 63C46.6749 59.6065 44.9905 56.2181 43.3063 52.8348C43.1541 52.5228 43.0096 52.2109 42.8193 51.8305C43.0857 51.8305 43.2987 51.8305 43.5117 51.8305C46.685 51.8305 49.8658 51.8305 53.039 51.8305C53.2378 51.8214 53.4356 51.8619 53.6149 51.9482C53.7942 52.0346 53.9494 52.164 54.0664 52.325C56.8515 55.6779 59.6417 59.0283 62.4369 62.3761C62.6126 62.5657 62.798 62.746 62.9924 62.9163C62.8336 62.9783 62.6672 63.0192 62.4977 63.0381L48.3592 63Z" fill="url(#paint2_linear_535_1335)"/>
<path d="M44.212 11.1011H38.8853V48.0946H24.1075V11.1011H18.7808L18.7046 10.9718L31.4888 0.00762939L44.2654 10.9565L44.212 11.1011Z" fill="url(#paint3_linear_535_1335)"/>
<path d="M11.2242 33.3337H7.52588L16.7184 22.2935C16.8934 22.4837 17.0455 22.6358 17.1824 22.8032C18.1641 23.9826 19.161 25.1543 20.1274 26.3489C20.2945 26.5464 20.3955 26.7911 20.4165 27.0489C20.4165 33.9982 20.4165 40.9449 20.4165 47.8891C20.4211 47.9448 20.4211 48.0008 20.4165 48.0565H11.2395L11.2242 33.3337Z" fill="url(#paint4_linear_535_1335)"/>
<path d="M55.4968 33.3337H51.8213V48.0717H42.5757V47.4554C42.5757 40.7293 42.5757 34.0058 42.5757 27.2848C42.5917 26.9123 42.7219 26.5537 42.9485 26.2576C44.0063 24.9337 45.1097 23.6402 46.2512 22.2783L55.4968 33.3337Z" fill="url(#paint5_linear_535_1335)"/>
</g>
<defs>
<linearGradient id="paint0_linear_535_1335" x1="31.5037" y1="51.8152" x2="31.5037" y2="63" gradientUnits="userSpaceOnUse">
<stop stop-color="#12C9E3"/>
<stop offset="1" stop-color="#227FBC"/>
</linearGradient>
<linearGradient id="paint1_linear_535_1335" x1="10.0789" y1="51.7832" x2="10.0789" y2="63" gradientUnits="userSpaceOnUse">
<stop stop-color="#12C9E3"/>
<stop offset="1" stop-color="#227FBC"/>
</linearGradient>
<linearGradient id="paint2_linear_535_1335" x1="52.9059" y1="51.8292" x2="52.9059" y2="63.0381" gradientUnits="userSpaceOnUse">
<stop stop-color="#12C9E3"/>
<stop offset="1" stop-color="#227FBC"/>
</linearGradient>
<linearGradient id="paint3_linear_535_1335" x1="31.485" y1="0.00762939" x2="31.485" y2="48.0946" gradientUnits="userSpaceOnUse">
<stop stop-color="#12C9E3"/>
<stop offset="1" stop-color="#227FBC"/>
</linearGradient>
<linearGradient id="paint4_linear_535_1335" x1="13.9729" y1="22.2935" x2="13.9729" y2="48.0565" gradientUnits="userSpaceOnUse">
<stop stop-color="#12C9E3"/>
<stop offset="1" stop-color="#227FBC"/>
</linearGradient>
<linearGradient id="paint5_linear_535_1335" x1="49.0362" y1="22.2783" x2="49.0362" y2="48.0717" gradientUnits="userSpaceOnUse">
<stop stop-color="#12C9E3"/>
<stop offset="1" stop-color="#227FBC"/>
</linearGradient>
<clipPath id="clip0_535_1335">
<rect width="63" height="63" fill="white"/>
</clipPath>
</defs>
</svg>
