<svg width="69" height="61" viewBox="0 0 69 61" fill="none" xmlns="http://www.w3.org/2000/svg">
<g clip-path="url(#clip0_535_1342)">
<path d="M69 20.4927C68.743 21.1322 68.3363 21.6996 67.8146 22.1467C67.2928 22.5939 66.6715 22.9073 66.0034 23.0605C65.3476 23.2061 64.6662 23.1864 64.0198 23.0033C63.3733 22.8202 62.7817 22.4793 62.2975 22.0108C61.8133 21.5423 61.4515 20.9607 61.2441 20.3176C61.0366 19.6745 60.9899 18.9899 61.1083 18.3243H69V20.4927Z" fill="url(#paint0_linear_535_1342)"/>
<path d="M6.31192 54.5804V53.6389C6.31192 44.2569 6.31192 34.8796 6.31192 25.507C6.28905 25.2557 6.34514 25.0034 6.47224 24.7859C6.59934 24.5683 6.79104 24.3964 7.02033 24.2944C7.76725 23.7662 8.47733 23.1871 9.14559 22.5612C9.70923 23.3575 10.4528 24.0076 11.315 24.4578C12.1771 24.908 13.1333 25.1454 14.1045 25.1504C15.107 25.1581 16.0963 24.9214 16.9882 24.4606C17.8801 23.9998 18.648 23.3285 19.2264 22.5041C21.6633 25.9136 26.5585 26.3416 29.4701 22.5398C30.0329 23.3746 30.7916 24.0568 31.6789 24.5259C32.5661 24.9949 33.5546 25.2364 34.5567 25.2288C35.5622 25.2337 36.5531 24.9874 37.4408 24.5118C38.3285 24.0363 39.0852 23.3464 39.6431 22.5041C40.2045 23.3462 40.9639 24.0356 41.8538 24.511C42.7436 24.9863 43.7363 25.2329 44.7436 25.2288C45.7506 25.235 46.7433 24.99 47.6334 24.5158C48.5234 24.0416 49.2829 23.3529 49.8442 22.5112C50.4063 23.3472 51.1631 24.032 52.0485 24.5057C52.9339 24.9794 53.9211 25.2277 54.9237 25.2288C55.9035 25.2446 56.8722 25.0196 57.7461 24.5734C58.6201 24.1272 59.3728 23.4732 59.9392 22.6681C60.8105 23.3315 61.6749 23.9592 62.4967 24.6297C62.6696 24.8252 62.7586 25.0816 62.7445 25.343C62.7445 27.9892 62.7445 30.6355 62.7445 33.2747V54.5804C63.1837 54.5804 63.5451 54.5804 63.8993 54.5804C64.4608 54.5513 65.0108 54.7473 65.4291 55.1257C65.8473 55.504 66.0997 56.0338 66.1308 56.599C66.2087 58.0256 66.1308 59.5235 66.1308 61.0285H2.95402C2.95402 59.4736 2.86192 57.9186 2.95402 56.3779C3.02087 55.865 3.27611 55.3959 3.66953 55.0632C4.06294 54.7304 4.56596 54.5582 5.07927 54.5804C5.48307 54.5377 5.85853 54.5804 6.31192 54.5804ZM29.8739 54.5804C29.8739 54.3879 29.8739 54.2523 29.8739 54.1239C29.8739 47.4333 29.8739 40.7499 29.8739 34.0593C29.8993 33.6953 29.8455 33.3301 29.7164 32.9891C29.5873 32.6481 29.3859 32.3396 29.1263 32.085C28.8666 31.8304 28.5552 31.6358 28.2132 31.5148C27.8713 31.3939 27.5072 31.3494 27.1465 31.3845C23.4438 31.3845 19.7412 31.3845 16.0385 31.3845C14.1328 31.3845 13.2048 32.326 13.2048 34.2376V54.5591L29.8739 54.5804ZM46.2738 46.4847C48.4486 46.4847 50.6236 46.4847 52.7984 46.4847C54.0594 46.4847 54.6686 45.8784 54.6757 44.6159C54.6757 40.6643 54.6757 36.7127 54.6757 32.7611C54.6757 31.4701 54.0452 30.8566 52.763 30.8566H39.7776C38.4387 30.8566 37.8507 31.4487 37.8507 32.7968C37.8507 36.7056 37.8507 40.6144 37.8507 44.5232C37.8507 45.9497 38.4104 46.4775 39.8131 46.4847C41.9667 46.4348 44.1202 46.4276 46.2738 46.4276V46.4847Z" fill="url(#paint1_linear_535_1342)"/>
<path d="M62.7304 6.30545H6.43929C5.73087 2.54645 7.61532 -0.00711793 10.9307 1.49051e-05C26.6671 0.0285462 42.3988 0.0285462 58.1257 1.49051e-05C60.9594 1.49051e-05 62.7091 1.74757 62.7304 4.58643C62.7375 5.16419 62.7304 5.72769 62.7304 6.30545Z" fill="url(#paint2_linear_535_1342)"/>
<path d="M38.5379 16.1987H30.5044L31.0288 8.45953H38.0137C38.1908 11.0131 38.3608 13.5666 38.5379 16.1987Z" fill="url(#paint3_linear_535_1342)"/>
<path d="M40.5782 16.1773L40.0469 8.45953H47.0247C47.5348 11.0131 48.0519 13.5666 48.5761 16.1773H40.5782Z" fill="url(#paint4_linear_535_1342)"/>
<path d="M20.4731 16.1773L22.0316 8.44531H28.9884L28.4712 16.1773H20.4731Z" fill="url(#paint5_linear_535_1342)"/>
<path d="M49.0864 8.41675H52.8835C53.7831 8.41675 54.6829 8.41675 55.5755 8.41675C55.675 8.42086 55.7722 8.44812 55.8595 8.49639C55.9467 8.54465 56.0216 8.6126 56.0784 8.69493C56.9214 11.1415 57.7362 13.6023 58.5863 16.1487C58.3383 16.1487 58.154 16.2129 57.9628 16.2129H51.2328C50.8998 16.2129 50.6377 16.2129 50.5244 15.7778C50.071 13.3527 49.5894 10.9275 49.0864 8.41675Z" fill="url(#paint6_linear_535_1342)"/>
<path d="M68.6457 16.2272H67.2643C65.2666 16.2272 63.276 16.2272 61.2782 16.2272C60.924 16.2272 60.7186 16.1559 60.5698 15.7707C59.8118 13.4383 59.0183 11.113 58.2462 8.78052C58.2185 8.66123 58.2043 8.53922 58.2036 8.41674C60.1163 8.41674 62.0007 8.35968 63.871 8.45954C64.1547 8.4899 64.4286 8.58222 64.6733 8.73005C64.918 8.87788 65.1277 9.07766 65.2878 9.31548C66.4709 11.5481 67.5051 13.8377 68.6457 16.2272Z" fill="url(#paint7_linear_535_1342)"/>
<path d="M10.9094 8.33114C10.6331 9.15855 10.3922 9.85757 10.1585 10.5566C9.5988 12.2471 9.0463 13.9375 8.45831 15.6138C8.38039 15.8278 8.1041 16.1273 7.91991 16.1273C5.45461 16.1273 2.99636 16.1273 0.438965 16.1273C0.587733 15.7992 0.701108 15.5424 0.821539 15.2857C1.67873 13.4525 2.56434 11.6265 3.39319 9.77911C3.56387 9.32079 3.87624 8.92986 4.28442 8.664C4.6926 8.39815 5.17494 8.27144 5.66009 8.3026C7.3603 8.33827 9.06044 8.33114 10.9094 8.33114Z" fill="url(#paint8_linear_535_1342)"/>
<path d="M10.5059 16.1487C10.5767 15.8848 10.6192 15.6922 10.683 15.4996C11.3914 13.317 12.1423 11.1415 12.8508 8.95882C12.8787 8.78416 12.9741 8.62767 13.1161 8.52346C13.2581 8.41925 13.4351 8.37575 13.6088 8.40246C15.6916 8.40246 17.7743 8.40246 19.942 8.40246C19.6162 10.0573 19.3046 11.6622 18.9858 13.2671C18.8228 14.0802 18.6739 14.9005 18.4756 15.7136C18.4331 15.8777 18.2207 16.1202 18.0861 16.1202C15.5783 16.1559 13.0703 16.1487 10.5059 16.1487Z" fill="url(#paint9_linear_535_1342)"/>
<path d="M7.96979 18.2386C8.10961 19.0408 8.00898 19.8666 7.68096 20.611C7.35294 21.3554 6.8123 21.9846 6.12784 22.4185C5.50612 22.8511 4.77198 23.0905 4.01642 23.107C3.26085 23.1235 2.51707 22.9163 1.87732 22.5112C0.247959 21.5697 -0.247907 20.0932 0.134639 18.2315L7.96979 18.2386Z" fill="url(#paint10_linear_535_1342)"/>
<path d="M40.6919 18.3171L41.1877 18.2743H48.7607C48.8957 19.039 48.8153 19.8266 48.5286 20.5477C48.2419 21.2688 47.7604 21.8946 47.1386 22.3543C46.4994 22.8394 45.7305 23.1204 44.9311 23.1611C44.1318 23.2018 43.3387 23.0003 42.6542 22.5825C41.9359 22.156 41.3634 21.5196 41.0129 20.7577C40.6624 19.9958 40.5504 19.1446 40.6919 18.3171Z" fill="url(#paint11_linear_535_1342)"/>
<path d="M50.8925 18.3029H58.9119C59.061 19.0474 58.9986 19.8191 58.7316 20.5295C58.4647 21.2398 58.0042 21.86 57.403 22.3186C56.7653 22.8074 55.999 23.097 55.1994 23.1516C54.3998 23.2061 53.6018 23.0231 52.9045 22.6254C52.1724 22.1963 51.5877 21.5527 51.2282 20.7804C50.8688 20.0081 50.7516 19.1439 50.8925 18.3029Z" fill="url(#paint12_linear_535_1342)"/>
<path d="M28.3861 18.3242C28.5065 20.1075 27.9965 21.5554 26.5088 22.5041C25.8732 22.9411 25.1215 23.1749 24.3518 23.1749C23.5821 23.1749 22.8302 22.9411 22.1945 22.5041C21.4908 22.0785 20.9306 21.4495 20.5869 20.6989C20.2432 19.9483 20.132 19.1109 20.2676 18.2957L28.3861 18.3242Z" fill="url(#paint13_linear_535_1342)"/>
<path d="M30.469 18.31H38.5449C38.6852 19.056 38.6135 19.8268 38.3377 20.5334C38.062 21.2401 37.5935 21.854 36.9864 22.3044C36.3763 22.814 35.6241 23.1207 34.8337 23.182C34.0432 23.2433 33.2535 23.0563 32.573 22.6468C30.9436 21.7694 30.3061 20.243 30.469 18.31Z" fill="url(#paint14_linear_535_1342)"/>
<path d="M18.1921 18.3171C18.3054 20.1574 17.7245 21.5982 16.173 22.5112C15.5145 22.9351 14.7432 23.1465 13.9622 23.1171C13.1811 23.0878 12.4275 22.8192 11.8021 22.3472C11.1636 21.9088 10.6603 21.2985 10.3497 20.5859C10.039 19.8733 9.93352 19.0872 10.0453 18.3171H18.1921Z" fill="url(#paint15_linear_535_1342)"/>
</g>
<defs>
<linearGradient id="paint0_linear_535_1342" x1="65.0222" y1="18.3243" x2="65.0222" y2="23.1568" gradientUnits="userSpaceOnUse">
<stop stop-color="#12C9E3"/>
<stop offset="1" stop-color="#227FBC"/>
</linearGradient>
<linearGradient id="paint1_linear_535_1342" x1="34.5392" y1="22.5041" x2="34.5392" y2="61.0285" gradientUnits="userSpaceOnUse">
<stop stop-color="#12C9E3"/>
<stop offset="1" stop-color="#227FBC"/>
</linearGradient>
<linearGradient id="paint2_linear_535_1342" x1="34.5123" y1="0" x2="34.5123" y2="6.30545" gradientUnits="userSpaceOnUse">
<stop stop-color="#12C9E3"/>
<stop offset="1" stop-color="#227FBC"/>
</linearGradient>
<linearGradient id="paint3_linear_535_1342" x1="34.5212" y1="8.45953" x2="34.5212" y2="16.1987" gradientUnits="userSpaceOnUse">
<stop stop-color="#12C9E3"/>
<stop offset="1" stop-color="#227FBC"/>
</linearGradient>
<linearGradient id="paint4_linear_535_1342" x1="44.3115" y1="8.45953" x2="44.3115" y2="16.1773" gradientUnits="userSpaceOnUse">
<stop stop-color="#12C9E3"/>
<stop offset="1" stop-color="#227FBC"/>
</linearGradient>
<linearGradient id="paint5_linear_535_1342" x1="24.7307" y1="8.44531" x2="24.7307" y2="16.1773" gradientUnits="userSpaceOnUse">
<stop stop-color="#12C9E3"/>
<stop offset="1" stop-color="#227FBC"/>
</linearGradient>
<linearGradient id="paint6_linear_535_1342" x1="53.8363" y1="8.41675" x2="53.8363" y2="16.2129" gradientUnits="userSpaceOnUse">
<stop stop-color="#12C9E3"/>
<stop offset="1" stop-color="#227FBC"/>
</linearGradient>
<linearGradient id="paint7_linear_535_1342" x1="63.4247" y1="8.40051" x2="63.4247" y2="16.2272" gradientUnits="userSpaceOnUse">
<stop stop-color="#12C9E3"/>
<stop offset="1" stop-color="#227FBC"/>
</linearGradient>
<linearGradient id="paint8_linear_535_1342" x1="5.67419" y1="8.29797" x2="5.67419" y2="16.1273" gradientUnits="userSpaceOnUse">
<stop stop-color="#12C9E3"/>
<stop offset="1" stop-color="#227FBC"/>
</linearGradient>
<linearGradient id="paint9_linear_535_1342" x1="15.224" y1="8.39478" x2="15.224" y2="16.1493" gradientUnits="userSpaceOnUse">
<stop stop-color="#12C9E3"/>
<stop offset="1" stop-color="#227FBC"/>
</linearGradient>
<linearGradient id="paint10_linear_535_1342" x1="4.02165" y1="18.2315" x2="4.02165" y2="23.1079" gradientUnits="userSpaceOnUse">
<stop stop-color="#12C9E3"/>
<stop offset="1" stop-color="#227FBC"/>
</linearGradient>
<linearGradient id="paint11_linear_535_1342" x1="44.7284" y1="18.2743" x2="44.7284" y2="23.1663" gradientUnits="userSpaceOnUse">
<stop stop-color="#12C9E3"/>
<stop offset="1" stop-color="#227FBC"/>
</linearGradient>
<linearGradient id="paint12_linear_535_1342" x1="54.9127" y1="18.3029" x2="54.9127" y2="23.161" gradientUnits="userSpaceOnUse">
<stop stop-color="#12C9E3"/>
<stop offset="1" stop-color="#227FBC"/>
</linearGradient>
<linearGradient id="paint13_linear_535_1342" x1="24.3072" y1="18.2957" x2="24.3072" y2="23.1749" gradientUnits="userSpaceOnUse">
<stop stop-color="#12C9E3"/>
<stop offset="1" stop-color="#227FBC"/>
</linearGradient>
<linearGradient id="paint14_linear_535_1342" x1="34.5296" y1="18.31" x2="34.5296" y2="23.1934" gradientUnits="userSpaceOnUse">
<stop stop-color="#12C9E3"/>
<stop offset="1" stop-color="#227FBC"/>
</linearGradient>
<linearGradient id="paint15_linear_535_1342" x1="14.1039" y1="18.3171" x2="14.1039" y2="23.1198" gradientUnits="userSpaceOnUse">
<stop stop-color="#12C9E3"/>
<stop offset="1" stop-color="#227FBC"/>
</linearGradient>
<clipPath id="clip0_535_1342">
<rect width="69" height="61" fill="white"/>
</clipPath>
</defs>
</svg>
