<svg width="63" height="63" viewBox="0 0 63 63" fill="none" xmlns="http://www.w3.org/2000/svg">
<path d="M0 51.9241H3.64865V55.6508H0V51.9241Z" fill="url(#paint0_linear_573_318)"/>
<path d="M0 59.308H3.64865V63H0V59.308Z" fill="url(#paint1_linear_573_318)"/>
<path d="M18.4169 51.9658V55.5813H7.4292V51.9658H18.4169Z" fill="url(#paint2_linear_573_318)"/>
<path d="M18.403 62.9722H7.41553V59.3567H18.403V62.9722Z" fill="url(#paint3_linear_573_318)"/>
<path d="M0 11.076V0.027832H14.7544V3.71981C16.7699 3.71981 18.6951 3.71981 20.6202 3.71981C20.9704 3.73783 21.3039 3.87523 21.5653 4.10917C23.817 6.32018 26.0503 8.55206 28.265 10.8048C28.4095 10.9541 28.5856 11.0691 28.7804 11.1413C28.9753 11.2135 29.1839 11.241 29.3908 11.222C31.0657 11.1499 32.7435 11.1754 34.4155 11.2984C38.594 11.8168 42.6092 13.2404 46.1814 15.4702C51.3714 18.6342 55.9869 22.6568 59.8309 27.3665C60.936 28.6806 61.9159 30.0712 63.0001 31.4131C62.8194 31.6843 62.7012 31.879 62.5691 32.0597C59.0719 36.9809 54.8304 41.3274 49.9969 44.9434C46.5441 47.5932 42.6403 49.5955 38.4742 50.8533L36.966 51.2705C37.9112 52.6611 38.7938 54.0517 39.7459 55.3658C39.8309 55.4436 39.9308 55.5034 40.0394 55.5416C40.1481 55.5799 40.2635 55.5957 40.3784 55.5883C42.8178 55.5883 45.2433 55.5883 47.6897 55.5883L48.2594 55.5465V51.9658H62.9375V62.9653H48.2178V59.308H47.4811C44.4927 59.308 41.4974 59.308 38.502 59.308C38.3143 59.3281 38.1249 59.2918 37.9579 59.2039C37.7908 59.116 37.6536 58.9804 37.5637 58.8144C36.1251 56.6242 34.6587 54.448 33.2132 52.2578C33.1501 52.1285 33.0508 52.0202 32.9274 51.9462C32.8041 51.8722 32.6619 51.8355 32.5182 51.8407C31.2103 51.8756 29.9016 51.8338 28.5986 51.7155C24.3815 51.1656 20.3338 49.7067 16.7352 47.4395C10.4029 43.529 4.92198 38.3837 0.618628 32.31C0.437933 32.0667 0.236341 31.8442 0.0486962 31.6147V31.3714C0.140556 31.2969 0.224481 31.213 0.298964 31.1211C2.45282 28.0507 4.90645 25.2022 7.62392 22.6177C11.3703 18.8705 15.7457 15.811 20.5506 13.579C21.7877 13.0297 23.0804 12.5847 24.4008 12.0702C22.8719 10.5406 21.3568 9.02485 19.8278 7.50912C19.7407 7.42794 19.6272 7.38103 19.5082 7.37703H14.7892V11.069L0 11.076ZM18.5699 31.4687C18.568 34.8896 19.9203 38.1721 22.331 40.5982C24.7417 43.0243 28.0146 44.3966 31.434 44.415C34.8546 44.4224 38.1388 43.0739 40.568 40.6645C42.9971 38.2551 44.3734 34.9812 44.3955 31.5591C44.4047 28.1268 43.0511 24.8312 40.6323 22.397C38.2135 19.9628 34.9274 18.5892 31.4966 18.5781C28.0765 18.5817 24.797 19.9397 22.3748 22.3552C19.9526 24.7707 18.5846 28.0472 18.5699 31.4687Z" fill="url(#paint4_linear_573_318)"/>
<path d="M55.5915 0.027832V3.67809H44.5205V0.027832H55.5915Z" fill="url(#paint5_linear_573_318)"/>
<path d="M62.9375 0.027832V3.67809H59.2471V0.027832H62.9375Z" fill="url(#paint6_linear_573_318)"/>
<path d="M55.5706 7.43262V11.0273H44.5623V7.43262H55.5706Z" fill="url(#paint7_linear_573_318)"/>
<path d="M62.9374 7.42566V11.0412H59.3235V7.42566H62.9374Z" fill="url(#paint8_linear_573_318)"/>
<path d="M40.698 31.4966C40.6943 33.9424 39.7215 36.2871 37.9927 38.0166C36.264 39.7461 33.9204 40.7193 31.4756 40.723C29.0308 40.7193 26.6872 39.7461 24.9584 38.0166C23.2297 36.2871 22.2569 33.9424 22.2532 31.4966C22.2587 29.0507 23.2333 26.7068 24.9634 24.9786C26.6934 23.2504 29.0377 22.2789 31.4825 22.277C33.9249 22.2825 36.2657 23.2557 37.9927 24.9835C39.7198 26.7113 40.6925 29.0531 40.698 31.4966ZM25.9436 31.4966C25.9434 32.9574 26.5177 34.3597 27.5424 35.4005C28.5671 36.4413 29.9599 37.0369 31.4199 37.0589C32.8849 37.0589 34.2908 36.4805 35.3319 35.4494C36.373 34.4183 36.9651 33.0177 36.9798 31.5522C36.9799 30.0913 36.4056 28.689 35.3809 27.6482C34.3562 26.6075 32.9635 26.0118 31.5034 25.9899C30.0444 25.9915 28.6445 26.5669 27.6057 27.5919C26.5669 28.6168 25.9724 30.0092 25.9505 31.4687L25.9436 31.4966Z" fill="url(#paint9_linear_573_318)"/>
<path d="M31.5104 33.339C31.0259 33.3411 30.5596 33.1542 30.2106 32.818C29.8615 32.4818 29.6573 32.0227 29.641 31.5382C29.6382 31.2929 29.6839 31.0495 29.7754 30.8219C29.8669 30.5944 30.0023 30.3871 30.1741 30.212C30.3459 30.037 30.5505 29.8976 30.7763 29.8018C31.002 29.706 31.2444 29.6558 31.4896 29.654C31.9734 29.6629 32.4349 29.8592 32.7771 30.2015C33.1192 30.5438 33.3153 31.0055 33.3242 31.4896C33.3226 31.9736 33.132 32.4378 32.7932 32.7832C32.4543 33.1287 31.9941 33.3281 31.5104 33.339Z" fill="url(#paint10_linear_573_318)"/>
<defs>
<linearGradient id="paint0_linear_573_318" x1="1.82432" y1="51.9241" x2="1.82432" y2="55.6508" gradientUnits="userSpaceOnUse">
<stop stop-color="#12C9E3"/>
<stop offset="1" stop-color="#227FBC"/>
</linearGradient>
<linearGradient id="paint1_linear_573_318" x1="1.82432" y1="59.308" x2="1.82432" y2="63" gradientUnits="userSpaceOnUse">
<stop stop-color="#12C9E3"/>
<stop offset="1" stop-color="#227FBC"/>
</linearGradient>
<linearGradient id="paint2_linear_573_318" x1="12.923" y1="51.9658" x2="12.923" y2="55.5813" gradientUnits="userSpaceOnUse">
<stop stop-color="#12C9E3"/>
<stop offset="1" stop-color="#227FBC"/>
</linearGradient>
<linearGradient id="paint3_linear_573_318" x1="12.9093" y1="59.3567" x2="12.9093" y2="62.9722" gradientUnits="userSpaceOnUse">
<stop stop-color="#12C9E3"/>
<stop offset="1" stop-color="#227FBC"/>
</linearGradient>
<linearGradient id="paint4_linear_573_318" x1="31.5" y1="0.027832" x2="31.5" y2="62.9653" gradientUnits="userSpaceOnUse">
<stop stop-color="#12C9E3"/>
<stop offset="1" stop-color="#227FBC"/>
</linearGradient>
<linearGradient id="paint5_linear_573_318" x1="50.056" y1="0.027832" x2="50.056" y2="3.67809" gradientUnits="userSpaceOnUse">
<stop stop-color="#12C9E3"/>
<stop offset="1" stop-color="#227FBC"/>
</linearGradient>
<linearGradient id="paint6_linear_573_318" x1="61.0923" y1="0.027832" x2="61.0923" y2="3.67809" gradientUnits="userSpaceOnUse">
<stop stop-color="#12C9E3"/>
<stop offset="1" stop-color="#227FBC"/>
</linearGradient>
<linearGradient id="paint7_linear_573_318" x1="50.0664" y1="7.43262" x2="50.0664" y2="11.0273" gradientUnits="userSpaceOnUse">
<stop stop-color="#12C9E3"/>
<stop offset="1" stop-color="#227FBC"/>
</linearGradient>
<linearGradient id="paint8_linear_573_318" x1="61.1304" y1="7.42566" x2="61.1304" y2="11.0412" gradientUnits="userSpaceOnUse">
<stop stop-color="#12C9E3"/>
<stop offset="1" stop-color="#227FBC"/>
</linearGradient>
<linearGradient id="paint9_linear_573_318" x1="31.4756" y1="22.277" x2="31.4756" y2="40.723" gradientUnits="userSpaceOnUse">
<stop stop-color="#12C9E3"/>
<stop offset="1" stop-color="#227FBC"/>
</linearGradient>
<linearGradient id="paint10_linear_573_318" x1="31.4826" y1="29.654" x2="31.4826" y2="33.339" gradientUnits="userSpaceOnUse">
<stop stop-color="#12C9E3"/>
<stop offset="1" stop-color="#227FBC"/>
</linearGradient>
</defs>
</svg>
